<svg width="21" height="21" viewBox="0 0 21 21" fill="none" xmlns="http://www.w3.org/2000/svg">
<path d="M0.0673828 8.40576C0.0673828 4.63453 0.0673828 2.74891 1.23896 1.57733C2.41053 0.405762 4.29615 0.405762 8.06738 0.405762H12.0674C15.8386 0.405762 17.7242 0.405762 18.8958 1.57733C20.0674 2.74891 20.0674 4.63453 20.0674 8.40576V12.4058C20.0674 16.177 20.0674 18.0626 18.8958 19.2342C17.7242 20.4058 15.8386 20.4058 12.0674 20.4058H8.06738C4.29615 20.4058 2.41053 20.4058 1.23896 19.2342C0.0673828 18.0626 0.0673828 16.177 0.0673828 12.4058V8.40576Z" fill="white"/>
<path fill-rule="evenodd" clip-rule="evenodd" d="M6.75215 5.57434C6.11817 5.57434 5.64905 6.12924 5.67005 6.73102C5.69021 7.30917 5.66402 8.05795 5.47552 8.66859C5.28635 9.28093 4.96665 9.66898 4.44434 9.71878V10.2811C4.96665 10.331 5.28635 10.7189 5.4755 11.3313C5.66402 11.9419 5.69019 12.6907 5.67003 13.2689C5.64902 13.8706 6.11814 14.4255 6.75224 14.4255H13.2485C13.8825 14.4255 14.3515 13.8706 14.3305 13.2689C14.3103 12.6907 14.3365 11.9419 14.525 11.3313C14.7142 10.7189 15.0331 10.3309 15.5555 10.2811V9.71878C15.0331 9.66887 14.7142 9.28102 14.525 8.66859C14.3365 8.05804 14.3103 7.30917 14.3305 6.73102C14.3515 6.12933 13.8825 5.57434 13.2485 5.57434H6.75206H6.75215ZM11.9773 11.0228C11.9773 11.8515 11.3592 12.354 10.3335 12.354H8.58746C8.53751 12.354 8.48961 12.3342 8.4543 12.2988C8.41898 12.2635 8.39914 12.2156 8.39914 12.1657V7.83423C8.39914 7.78429 8.41898 7.73639 8.4543 7.70107C8.48961 7.66575 8.53751 7.64591 8.58746 7.64591H10.3236C11.1788 7.64591 11.7402 8.10919 11.7402 8.82047C11.7402 9.31971 11.3626 9.76665 10.8815 9.84495V9.87099C11.5364 9.94283 11.9773 10.3964 11.9773 11.0228ZM10.1431 8.24289H9.14755V9.64914H9.98607C10.6343 9.64914 10.9917 9.38812 10.9917 8.92156C10.9917 8.48432 10.6844 8.24289 10.1431 8.24289ZM9.14755 10.2071V11.7568H10.1798C10.8547 11.7568 11.2122 11.486 11.2122 10.9771C11.2122 10.4681 10.8446 10.207 10.1364 10.207H9.14755V10.2071Z" fill="#7952B3"/>
</svg>
