<svg width="21" height="20" viewBox="0 0 21 20" fill="none" xmlns="http://www.w3.org/2000/svg">
<path d="M0.619629 8C0.619629 4.22876 0.619629 2.34315 1.7912 1.17157C2.96277 0 4.84839 0 8.61963 0H12.6196C16.3909 0 18.2765 0 19.4481 1.17157C20.6196 2.34315 20.6196 4.22876 20.6196 8V12C20.6196 15.7712 20.6196 17.6569 19.4481 18.8284C18.2765 20 16.3909 20 12.6196 20H8.61963C4.84839 20 2.96277 20 1.7912 18.8284C0.619629 17.6569 0.619629 15.7712 0.619629 12V8Z" fill="white"/>
<path d="M15.8988 4.44446L15.0062 14.4433L10.9942 15.5556L6.99317 14.4449L6.10156 4.44446H15.8988Z" fill="#264DE4"/>
<path d="M14.2419 13.8065L15.0047 5.26208H11V14.7053L14.2419 13.8065Z" fill="#2965F1"/>
<path d="M8.14551 8.97119L8.25544 10.1977H11.0001V8.97119H8.14551Z" fill="#EBEBEB"/>
<path d="M11.0003 6.48865H10.9961H7.9248L8.0363 7.71517H11.0003V6.48865Z" fill="#EBEBEB"/>
<path d="M10.9999 13.4326V12.1565L10.9946 12.158L9.6286 11.7891L9.54128 10.8109H8.87752H8.31006L8.48189 12.7367L10.9943 13.4342L10.9999 13.4326Z" fill="#EBEBEB"/>
<path d="M12.5064 10.1976L12.364 11.7883L10.9961 12.1575V13.4336L13.5105 12.7367L13.5289 12.5295L13.8172 9.30048L13.8471 8.97113L14.0685 6.48865H10.9961V7.71517H12.7244L12.6128 8.97113H10.9961V10.1976H12.5064Z" fill="white"/>
</svg>
