<svg width="21" height="21" viewBox="0 0 21 21" fill="none" xmlns="http://www.w3.org/2000/svg">
<rect x="0.723999" y="0.405762" width="20" height="20" rx="4" fill="white"/>
<g clip-path="url(#clip0_105_31)">
<path fill-rule="evenodd" clip-rule="evenodd" d="M11.2158 4.97046C10.9737 4.97105 10.728 5.09387 10.5648 5.33717L5.70193 12.6801C5.27454 13.5804 5.89383 14.441 6.73331 14.685C8.31017 15.0362 9.75434 14.0974 9.75434 14.0974C11.8816 12.7362 13.2555 11.9678 13.2555 11.9678C14.9508 11.1084 16.4339 12.1629 16.437 12.1652L11.8471 5.33717C11.6967 5.09173 11.4579 4.96993 11.2158 4.97046ZM11.2178 5.72498C11.4083 5.72439 11.5962 5.8205 11.7146 6.01364C12.8356 7.67761 14.1096 9.39313 15.1823 11.0871C15.1823 11.0871 14.1586 10.5544 12.823 11.2315C12.823 11.2315 11.7415 11.8363 10.0676 12.9074C10.0676 12.9074 8.93144 13.6457 7.69061 13.3694C7.02998 13.1773 6.54235 12.5001 6.87865 11.7916L10.7058 6.01364C10.8342 5.82218 11.0272 5.72541 11.2178 5.72498V5.72498Z" fill="#FF7102"/>
<path fill-rule="evenodd" clip-rule="evenodd" d="M15.045 12.1639C13.211 12.2092 11.6197 13.9228 10.3235 14.4292C12.2941 16.7976 18.1939 13.9878 15.9846 12.4182C15.7043 12.2271 15.3869 12.1554 15.045 12.1639V12.1639ZM15.6958 12.8429C16.7358 13.8819 12.8301 15.6892 11.1692 14.5007C11.8056 14.4516 14.4839 11.8747 15.6958 12.8429V12.8429Z" fill="#FF7102"/>
</g>
<defs>
<clipPath id="clip0_105_31">
<rect width="11.1111" height="10.8347" fill="white" transform="translate(5.44446 4.55554)"/>
</clipPath>
</defs>
</svg>
