<svg width="21" height="20" viewBox="0 0 21 20" fill="none" xmlns="http://www.w3.org/2000/svg">
<path d="M0.343262 8C0.343262 4.22876 0.343262 2.34315 1.51483 1.17157C2.68641 0 4.57203 0 8.34326 0H12.3433C16.1145 0 18.0001 0 19.1717 1.17157C20.3433 2.34315 20.3433 4.22876 20.3433 8V12C20.3433 15.7712 20.3433 17.6569 19.1717 18.8284C18.0001 20 16.1145 20 12.3433 20H8.34326C4.57203 20 2.68641 20 1.51483 18.8284C0.343262 17.6569 0.343262 15.7712 0.343262 12V8Z" fill="white"/>
<path d="M4.44434 4.44446H15.5554V15.5556H4.44434V4.44446Z" fill="#CC0000"/>
<path d="M9.96214 5.63782H5.6377V14.3618H9.9617V7.83782H12.1617V14.3618H14.3617V5.63782H9.96214Z" fill="white"/>
</svg>
