<svg width="32" height="32" viewBox="0 0 32 32" fill="none" xmlns="http://www.w3.org/2000/svg">
<path d="M28.9681 18.9632L28.0023 18.4056C28.1645 17.5988 28.2465 16.791 28.2465 16C28.2465 15.1975 28.1658 14.3889 28.0063 13.592L28.9681 13.0367C29.2659 12.8648 29.479 12.5871 29.568 12.2548C29.657 11.9226 29.6114 11.5756 29.4394 11.2778L26.8092 6.72219C26.6372 6.42433 26.3596 6.21123 26.0274 6.12225C25.6951 6.03326 25.3481 6.0789 25.0502 6.2509L24.0877 6.80663C22.8719 5.73699 21.441 4.90915 19.9178 4.39408V3.28767C19.9178 2.57764 19.3401 2 18.6301 2H13.3698C12.6598 2 12.0822 2.57764 12.0822 3.28767V4.39414C10.5671 4.90712 9.13817 5.73605 7.91784 6.80992L6.94967 6.2509C6.65176 6.0789 6.30474 6.03321 5.97252 6.12225C5.64031 6.21129 5.36266 6.42433 5.19066 6.72219L2.56052 11.2778C2.38852 11.5756 2.34288 11.9226 2.43187 12.2548C2.52085 12.5871 2.73395 12.8648 3.03181 13.0367L3.99762 13.5944C3.83554 14.4011 3.7534 15.2089 3.7534 16C3.7534 16.8024 3.83417 17.611 3.99362 18.4079L3.03187 18.9632C2.41696 19.3182 2.20557 20.1073 2.56052 20.7222L5.19066 25.2778C5.54568 25.8927 6.33472 26.1041 6.94967 25.7491L7.91214 25.1934C9.12803 26.263 10.5589 27.0908 12.0822 27.606V28.7123C12.0822 29.4224 12.6598 30 13.3698 30H18.6301C19.3401 30 19.9178 29.4224 19.9178 28.7123V27.6059C21.4329 27.0929 22.8618 26.2639 24.0822 25.1901L25.0503 25.7491C25.6651 26.1041 26.4543 25.8927 26.8093 25.2778L29.4394 20.7222C29.7944 20.1073 29.583 19.3182 28.9681 18.9632ZM28.7276 20.3113L26.0975 24.8668C25.9691 25.0893 25.6836 25.1657 25.4612 25.0373L24.2343 24.3289C24.0784 24.2388 23.8819 24.2608 23.7498 24.3831C22.4954 25.5432 20.9861 26.4186 19.3852 26.9145C19.2132 26.9678 19.0959 27.127 19.0959 27.3071V28.7123C19.0959 28.9692 18.8869 29.1781 18.6301 29.1781H13.3698C13.113 29.1781 12.9041 28.9692 12.9041 28.7123V27.3071C12.9041 27.127 12.7868 26.9679 12.6148 26.9146C11.004 26.4156 9.49291 25.5413 8.24463 24.3864C8.16677 24.3144 8.06655 24.2771 7.96546 24.2771C7.89499 24.2771 7.82414 24.2952 7.76009 24.3322L6.53872 25.0373C6.31625 25.1656 6.03088 25.0892 5.9025 24.8668L3.27236 20.3113C3.14398 20.0889 3.22047 19.8035 3.44283 19.675L4.66321 18.9704C4.81905 18.8804 4.89822 18.6996 4.85861 18.5241C4.67061 17.6908 4.57532 16.8415 4.57532 16C4.57532 15.1726 4.67203 14.3242 4.86283 13.4782C4.90239 13.3027 4.82321 13.1219 4.66743 13.0319L3.44283 12.3249C3.3351 12.2627 3.25806 12.1623 3.22584 12.0421C3.19368 11.922 3.21017 11.7964 3.27236 11.6887L5.9025 7.13315C5.96469 7.02542 6.06513 6.94833 6.18535 6.91616C6.30546 6.88395 6.43104 6.90049 6.53877 6.96269L7.76573 7.67107C7.92167 7.76115 8.11806 7.73912 8.25022 7.61688C9.50469 6.45671 11.0139 5.58137 12.6148 5.08542C12.7868 5.03211 12.9041 4.87299 12.9041 4.69288V3.28767C12.9041 3.03085 13.1131 2.82192 13.3699 2.82192H18.6302C18.887 2.82192 19.0959 3.03085 19.0959 3.28767V4.69288C19.0959 4.87299 19.2132 5.03211 19.3852 5.08542C20.9959 5.58438 22.507 6.45863 23.7554 7.61359C23.8875 7.73589 24.084 7.75786 24.2399 7.66784L25.4613 6.96269C25.5691 6.90049 25.6946 6.88395 25.8147 6.91616C25.9349 6.94838 26.0353 7.02542 26.0976 7.13315L28.7277 11.6887C28.7899 11.7964 28.8064 11.922 28.7742 12.0421C28.742 12.1623 28.665 12.2627 28.5572 12.3249L27.3368 13.0295C27.181 13.1195 27.1018 13.3004 27.1415 13.4759C27.3295 14.3091 27.4247 15.1583 27.4247 16C27.4247 16.8274 27.328 17.6758 27.1372 18.5217C27.0977 18.6972 27.1768 18.878 27.3326 18.968L28.5572 19.675C28.7795 19.8035 28.856 20.0889 28.7276 20.3113Z" fill="#828282"/>
<path d="M16 7.69864C11.4226 7.69864 7.69861 11.4226 7.69861 16C7.69861 20.5774 11.4226 24.3014 16 24.3014C20.5774 24.3014 24.3013 20.5774 24.3013 16C24.3013 11.4226 20.5774 7.69864 16 7.69864ZM16 23.4795C11.8758 23.4795 8.52053 20.1242 8.52053 16C8.52053 11.8758 11.8758 8.52056 16 8.52056C20.1241 8.52056 23.4794 11.8758 23.4794 16C23.4794 20.1242 20.1241 23.4795 16 23.4795Z" fill="#828282"/>
<path d="M17.5342 13.8356H15.9999C15.773 13.8356 15.589 14.0196 15.589 14.2466V17.7534C15.589 17.9804 15.773 18.1644 15.9999 18.1644C16.2269 18.1644 16.4109 17.9804 16.4109 17.7534V16.8493H17.5342C18.3651 16.8493 19.041 16.1734 19.041 15.3425C19.041 14.5115 18.3651 13.8356 17.5342 13.8356ZM17.5342 16.0274H16.4109V14.6575H17.5342C17.9119 14.6575 18.2191 14.9648 18.2191 15.3425C18.2191 15.7201 17.9119 16.0274 17.5342 16.0274Z" fill="#828282"/>
<path d="M13.7546 14.1023C13.6944 13.9419 13.5411 13.8356 13.3698 13.8356H12.9314C12.7602 13.8356 12.6068 13.9418 12.5467 14.1023L11.2316 17.6091C11.1519 17.8216 11.2596 18.0585 11.4721 18.1382C11.6846 18.218 11.9215 18.1102 12.0012 17.8977L12.2299 17.2877H14.0713L14.3 17.8977C14.3619 18.0627 14.5185 18.1645 14.6849 18.1645C14.7328 18.1645 14.7816 18.156 14.8291 18.1382C15.0416 18.0586 15.1493 17.8216 15.0696 17.6091L13.7546 14.1023ZM12.5381 16.4657L13.1506 14.8325L13.7631 16.4657H12.5381Z" fill="#828282"/>
<path d="M19.9451 13.8356C19.7182 13.8356 19.5342 14.0196 19.5342 14.2466V17.7534C19.5342 17.9804 19.7182 18.1644 19.9451 18.1644C20.1721 18.1644 20.3561 17.9804 20.3561 17.7534V14.2466C20.3561 14.0196 20.1721 13.8356 19.9451 13.8356Z" fill="#828282"/>
<path d="M18.9399 6.78357C19.2251 6.87448 19.5094 6.98006 19.7849 7.09732C19.8374 7.11968 19.8919 7.13026 19.9456 7.13026C20.1054 7.13026 20.2574 7.03645 20.3239 6.88017C20.4128 6.67135 20.3156 6.42998 20.1068 6.34111C19.8077 6.21382 19.4991 6.09919 19.1894 6.00051C18.9732 5.93158 18.742 6.05103 18.6731 6.26725C18.6042 6.48346 18.7236 6.71464 18.9399 6.78357Z" fill="#828282"/>
<path d="M7.50411 20.6249C7.3954 20.4256 7.1457 20.3522 6.94652 20.4609C6.74729 20.5696 6.67386 20.8193 6.78258 21.0185C6.9531 21.331 7.14187 21.6385 7.34362 21.9323C7.42329 22.0483 7.55189 22.1107 7.68274 22.1107C7.76291 22.1107 7.84389 22.0873 7.91502 22.0384C8.10214 21.9099 8.14965 21.6541 8.02115 21.467C7.83524 21.1963 7.66126 20.9129 7.50411 20.6249Z" fill="#828282"/>
<path d="M15.1583 25.6351C12.9562 25.4454 10.8659 24.4911 9.27252 22.948C9.10946 22.79 8.84929 22.7943 8.69143 22.9573C8.53357 23.1203 8.53767 23.3805 8.70074 23.5384C10.4295 25.2126 12.6978 26.2481 15.0878 26.454C15.0998 26.455 15.1116 26.4555 15.1235 26.4555C15.3345 26.4555 15.514 26.2939 15.5325 26.0799C15.5519 25.8538 15.3844 25.6546 15.1583 25.6351Z" fill="#828282"/>
<path d="M21.9136 7.33079C21.7262 7.20274 21.4705 7.25084 21.3424 7.43819C21.2144 7.62558 21.2625 7.88131 21.4498 8.00936C23.3591 9.31419 24.7402 11.2558 25.3387 13.4765C25.3881 13.6599 25.5541 13.7807 25.7353 13.7807C25.7707 13.7807 25.8067 13.776 25.8424 13.7664C26.0616 13.7073 26.1914 13.4818 26.1323 13.2627C25.4829 10.8528 23.9846 8.74619 21.9136 7.33079Z" fill="#828282"/>
</svg>
