<svg width="32" height="32" viewBox="0 0 32 32" fill="none" xmlns="http://www.w3.org/2000/svg">
<path d="M20.129 7.61292H11.871C11.6572 7.61292 11.4839 7.78617 11.4839 8.00001V10.0645C11.4839 10.2784 11.6572 10.4516 11.871 10.4516H20.129C20.3429 10.4516 20.5161 10.2784 20.5161 10.0645V8.00001C20.5161 7.78621 20.3429 7.61292 20.129 7.61292ZM19.7419 9.67743H12.2581V8.3871H19.7419V9.67743Z" fill="#828282"/>
<path d="M11.871 13.5484H13.4194C13.6332 13.5484 13.8064 13.3751 13.8064 13.1613V11.6129C13.8064 11.3991 13.6332 11.2258 13.4194 11.2258H11.871C11.6572 11.2258 11.4839 11.3991 11.4839 11.6129V13.1613C11.4839 13.3751 11.6572 13.5484 11.871 13.5484ZM12.2581 12H13.0323V12.7742H12.2581V12Z" fill="#828282"/>
<path d="M15.2257 13.5484H16.7741C16.9879 13.5484 17.1612 13.3751 17.1612 13.1613V11.6129C17.1612 11.3991 16.9879 11.2258 16.7741 11.2258H15.2257C15.0119 11.2258 14.8386 11.3991 14.8386 11.6129V13.1613C14.8386 13.3751 15.0119 13.5484 15.2257 13.5484ZM15.6128 12H16.387V12.7742H15.6128V12Z" fill="#828282"/>
<path d="M20.129 11.2258H18.5806C18.3667 11.2258 18.1935 11.3991 18.1935 11.6129V13.1613C18.1935 13.3751 18.3667 13.5484 18.5806 13.5484H20.129C20.3428 13.5484 20.516 13.3751 20.516 13.1613V11.6129C20.516 11.3991 20.3428 11.2258 20.129 11.2258ZM19.7419 12.7742H18.9677V12H19.7419V12.7742Z" fill="#828282"/>
<path d="M11.4839 16.258C11.4839 16.4719 11.6572 16.6451 11.871 16.6451H13.4194C13.6332 16.6451 13.8064 16.4719 13.8064 16.258V14.7097C13.8064 14.4958 13.6332 14.3226 13.4194 14.3226H11.871C11.6572 14.3226 11.4839 14.4958 11.4839 14.7097V16.258ZM12.2581 15.0968H13.0323V15.8709H12.2581V15.0968Z" fill="#828282"/>
<path d="M14.8386 16.258C14.8386 16.4719 15.0119 16.6451 15.2257 16.6451H16.7741C16.9879 16.6451 17.1612 16.4719 17.1612 16.258V14.7097C17.1612 14.4958 16.9879 14.3226 16.7741 14.3226H15.2257C15.0119 14.3226 14.8386 14.4958 14.8386 14.7097V16.258ZM15.6128 15.0968H16.387V15.8709H15.6128V15.0968Z" fill="#828282"/>
<path d="M20.129 14.3226H18.5806C18.3667 14.3226 18.1935 14.4958 18.1935 14.7097V16.258C18.1935 16.4719 18.3667 16.6451 18.5806 16.6451H20.129C20.3428 16.6451 20.516 16.4719 20.516 16.258V14.7097C20.516 14.4958 20.3428 14.3226 20.129 14.3226ZM19.7419 15.8709H18.9677V15.0968H19.7419V15.8709Z" fill="#828282"/>
<path d="M11.4839 19.3548C11.4839 19.5687 11.6572 19.7419 11.871 19.7419H13.4194C13.6332 19.7419 13.8064 19.5687 13.8064 19.3548V17.8065C13.8064 17.5926 13.6332 17.4194 13.4194 17.4194H11.871C11.6572 17.4194 11.4839 17.5926 11.4839 17.8065V19.3548ZM12.2581 18.1936H13.0323V18.9677H12.2581V18.1936Z" fill="#828282"/>
<path d="M14.8386 19.3548C14.8386 19.5687 15.0119 19.7419 15.2257 19.7419H16.7741C16.9879 19.7419 17.1612 19.5687 17.1612 19.3548V17.8065C17.1612 17.5926 16.9879 17.4194 16.7741 17.4194H15.2257C15.0119 17.4194 14.8386 17.5926 14.8386 17.8065V19.3548ZM15.6128 18.1936H16.387V18.9677H15.6128V18.1936Z" fill="#828282"/>
<path d="M20.129 17.4194H18.5806C18.3667 17.4194 18.1935 17.5926 18.1935 17.8065V19.3548C18.1935 19.5687 18.3667 19.7419 18.5806 19.7419H20.129C20.3428 19.7419 20.516 19.5687 20.516 19.3548V17.8065C20.516 17.5926 20.3428 17.4194 20.129 17.4194ZM19.7419 18.9677H18.9677V18.1936H19.7419V18.9677Z" fill="#828282"/>
<path d="M20.6451 5.54837H17.1612V4.38709C17.1612 4.17325 16.988 4 16.7741 4C16.5603 4 16.387 4.17325 16.387 4.38709V5.54837H15.6129V4.38709C15.6129 4.17325 15.4396 4 15.2258 4C15.012 4 14.8387 4.17325 14.8387 4.38709V5.54837H11.3548C10.2875 5.54837 9.41931 6.41659 9.41931 7.48384C9.41931 7.69769 9.59261 7.87094 9.80641 7.87094C10.0202 7.87094 10.1935 7.69769 10.1935 7.48384C10.1935 6.84353 10.7144 6.32256 11.3548 6.32256H20.6451C21.2854 6.32256 21.8064 6.84353 21.8064 7.48384V21.9355C21.8064 22.4375 21.4846 22.881 21.0057 23.039C20.8026 23.106 20.6924 23.3249 20.7594 23.5279C20.8131 23.6907 20.9644 23.7938 21.1269 23.7938C21.1671 23.7938 21.208 23.7875 21.2483 23.7742C22.0452 23.5112 22.5806 22.7724 22.5806 21.9355V7.48389C22.5806 6.41664 21.7124 5.54837 20.6451 5.54837Z" fill="#828282"/>
<path d="M19.6128 21.0322H12.387C12.1732 21.0322 11.9999 21.2055 11.9999 21.4193V23.0968H11.3548C10.7144 23.0968 10.1935 22.5758 10.1935 21.9355V9.03224C10.1935 8.81839 10.0202 8.64514 9.80641 8.64514C9.59261 8.64514 9.41931 8.81839 9.41931 9.03224V21.9355C9.41931 23.0027 10.2875 23.8709 11.3548 23.8709H11.9999V26.8387C11.9999 27.479 12.5208 28 13.1612 28H18.8386C19.4789 28 19.9999 27.479 19.9999 26.8387V21.4193C19.9999 21.2055 19.8266 21.0322 19.6128 21.0322ZM15.0967 27.2258H13.1612C12.9477 27.2258 12.7741 27.0522 12.7741 26.8387V21.8064H15.0967V27.2258ZM19.2257 26.8387C19.2257 27.0522 19.0521 27.2258 18.8386 27.2258H17.9354V22.9936C17.9354 22.7797 17.7621 22.6065 17.5483 22.6065C17.3344 22.6065 17.1612 22.7797 17.1612 22.9936V27.2258H15.8709V21.8064H19.2257V26.8387Z" fill="#828282"/>
</svg>
