<svg width="32" height="32" viewBox="0 0 32 32" fill="none" xmlns="http://www.w3.org/2000/svg">
<path d="M19.5 6H12.6C12.2 6 11.8 6.2 11.5 6.5C11.2 6.8 11 7.2 11 7.6V20.4C11 20.8 11.2 21.2 11.5 21.5C11.8 21.8 12.2 22 12.6 22H22.4C22.8 22 23.2 21.8 23.5 21.5C23.8 21.2 24 20.8 24 20.4V10.5L19.5 6Z" stroke="#828282" stroke-width="2" stroke-linecap="round" stroke-linejoin="round"/>
<path d="M7 11.6V24.4C7 24.8 7.2 25.2 7.5 25.5C7.8 25.8 8.2 26 8.6 26H18.4" stroke="#828282" stroke-width="2" stroke-linecap="round" stroke-linejoin="round"/>
<path d="M19 6V11H24" stroke="#828282" stroke-width="2" stroke-linecap="round" stroke-linejoin="round"/>
</svg>
