<svg width="32" height="32" viewBox="0 0 32 32" fill="none" xmlns="http://www.w3.org/2000/svg">
<path d="M3 27.4621C3 29.6317 4.125 30.7667 6.27455 30.7667H16.9821C19.1417 30.7667 20.2567 29.6317 20.2567 27.4621V12.3147C20.2567 10.135 19.1417 9 16.9821 9H6.27455C4.125 9 3 10.135 3 12.3147V27.4621ZM4.99888 27.3315V12.4353C4.99888 11.5112 5.48103 11.0089 6.45536 11.0089H16.8013C17.7757 11.0089 18.2578 11.5112 18.2578 12.4353V27.3315C18.2578 28.2556 17.7757 28.7578 16.8013 28.7578H6.45536C5.48103 28.7578 4.99888 28.2556 4.99888 27.3315Z" fill="#828282"/>
<path opacity="0.8" d="M7 23.4621C7 25.6317 8.125 26.7667 10.2746 26.7667H20.9821C23.1417 26.7667 24.2567 25.6317 24.2567 23.4621V8.31473C24.2567 6.13504 23.1417 5 20.9821 5H10.2746C8.125 5 7 6.13504 7 8.31473V23.4621ZM8.99888 23.3315V8.43527C8.99888 7.51116 9.48103 7.00893 10.4554 7.00893H20.8013C21.7757 7.00893 22.2578 7.51116 22.2578 8.43527V23.3315C22.2578 24.2556 21.7757 24.7578 20.8013 24.7578H10.4554C9.48103 24.7578 8.99888 24.2556 8.99888 23.3315Z" fill="#828282"/>
<path opacity="0.5" d="M11 19.4621C11 21.6317 12.125 22.7667 14.2746 22.7667H24.9821C27.1417 22.7667 28.2567 21.6317 28.2567 19.4621V4.31473C28.2567 2.13504 27.1417 1 24.9821 1H14.2746C12.125 1 11 2.13504 11 4.31473V19.4621ZM12.9989 19.3315V4.43527C12.9989 3.51116 13.481 3.00893 14.4554 3.00893H24.8013C25.7757 3.00893 26.2578 3.51116 26.2578 4.43527V19.3315C26.2578 20.2556 25.7757 20.7578 24.8013 20.7578H14.4554C13.481 20.7578 12.9989 20.2556 12.9989 19.3315Z" fill="#828282"/>
</svg>
