<svg width="32" height="32" viewBox="0 0 32 32" fill="none" xmlns="http://www.w3.org/2000/svg">
<path d="M16 28C22.6274 28 28 22.6274 28 16C28 9.37257 22.6274 4 16 4C9.37257 4 4 9.37257 4 16C4 22.6274 9.37257 28 16 28ZM16.75 20.1809C17.9288 20.2787 18.9288 20.5979 19.767 21.0237C18.8512 22.9943 17.6082 24.5644 16.75 25.5141V20.1809ZM16.75 18.6763V16.75H20.9401C20.8595 17.7591 20.6386 18.7225 20.331 19.6239C19.3328 19.1334 18.1455 18.7739 16.75 18.6763ZM16.75 15.25V13.324C18.1606 13.2255 19.3589 12.8593 20.3638 12.3607C20.671 13.2636 20.8853 14.2316 20.9515 15.25H16.75V15.25ZM16.75 11.8195V6.55948C17.6374 7.50356 18.8862 9.03402 19.796 10.9619C18.9519 11.3952 17.9423 11.7206 16.75 11.8195ZM15.25 11.8217C14.0605 11.726 13.0492 11.4028 12.2 10.9705C13.1101 9.03858 14.3613 7.50498 15.25 6.55953V11.8217ZM15.25 13.3256V15.25H11.0485C11.1145 14.2347 11.3277 13.2693 11.6335 12.3688C12.6432 12.8663 13.8428 13.2302 15.25 13.3256ZM15.25 16.75V18.6747C13.8578 18.7692 12.669 19.1263 11.6661 19.6156C11.36 18.7166 11.1403 17.756 11.0599 16.75H15.25V16.75ZM15.25 20.1786V25.514C14.3906 24.5629 13.145 22.9897 12.2289 21.015C13.0721 20.5901 14.0741 20.2733 15.25 20.1786ZM13.9227 26.2933C12.0691 25.9198 10.3911 25.0565 9.02918 23.8449C9.41783 23.2782 10.0421 22.5131 10.9387 21.8257C11.8496 23.7402 13.0266 25.2784 13.9227 26.2933ZM21.054 21.8408C21.9551 22.5403 22.5697 23.3156 22.9403 23.872C21.5838 25.0693 19.917 25.9225 18.0773 26.2932C18.971 25.281 20.1441 23.7483 21.054 21.8408ZM21.6523 20.414C22.0615 19.2852 22.3543 18.0561 22.4442 16.75H26.4729C26.3104 19.0406 25.41 21.1303 24.0085 22.7825C23.5076 22.081 22.7372 21.1895 21.6523 20.414ZM22.455 15.25C22.3817 13.9304 22.0947 12.6946 21.6837 11.5635C22.752 10.7933 23.5126 9.91238 24.0086 9.21755C25.41 10.8698 26.3105 12.9594 26.473 15.25H22.455V15.25ZM21.0797 10.1392C20.1512 8.2239 18.936 6.69819 18.0058 5.69303C19.8737 6.05587 21.5663 6.91522 22.9403 8.128C22.5731 8.67936 21.9665 9.44516 21.0797 10.1392ZM10.913 10.1544C10.0303 9.47224 9.41416 8.71639 9.02927 8.15504C10.4086 6.928 12.1124 6.05856 13.9941 5.69308C13.0615 6.70083 11.8425 8.23198 10.913 10.1544ZM10.3111 11.5775C9.90282 12.7048 9.61796 13.9359 9.54493 15.25H5.52709C5.68857 12.9728 6.57951 10.8942 7.967 9.24655C8.47762 9.94578 9.24601 10.8173 10.3111 11.5775ZM9.5558 16.75C9.64529 18.0508 9.93618 19.2752 10.3427 20.4002C9.26119 21.1655 8.48251 22.0473 7.96686 22.7534C6.57946 21.1057 5.68857 19.0272 5.52704 16.75H9.5558V16.75Z" fill="#828282"/>
</svg>
