<svg width="32" height="32" viewBox="0 0 32 32" fill="none" xmlns="http://www.w3.org/2000/svg">
<path d="M5.67382 23.3245C4.84857 23.3245 4 23.9858 4 25.1433C4 26.2014 4.74609 26.9489 5.67382 26.9489C6.4396 26.9489 6.7809 26.4349 6.7809 26.4349V26.6589C6.7809 26.7648 6.88103 26.883 7.00496 26.883H7.5585V23.4035H6.7809V23.8451C6.7809 23.8451 6.43674 23.3245 5.67382 23.3245V23.3245ZM5.81233 24.0359C6.49168 24.0359 6.84804 24.6334 6.84804 25.143C6.84804 25.7106 6.42493 26.2497 5.81377 26.2497C5.30288 26.2497 4.79112 25.8359 4.79112 25.1355C4.79112 24.5033 5.23152 24.0359 5.81233 24.0359Z" fill="#2F80ED"/>
<path d="M8.63921 26.8829C8.51974 26.8829 8.41516 26.7972 8.41516 26.6589V23.4035H9.19276V23.8341C9.36896 23.5692 9.71321 23.3234 10.2416 23.3234C11.1052 23.3234 11.5651 24.0118 11.5651 24.6556V26.8829H11.0247C10.883 26.8829 10.7875 26.7643 10.7875 26.6457V24.8269C10.7875 24.4701 10.5689 24.0367 10.0632 24.0367C9.51763 24.0367 9.19276 24.5523 9.19276 25.0378V26.8829L8.63921 26.8829Z" fill="#2F80ED"/>
<path d="M13.832 23.3245C13.0068 23.3245 12.1582 23.9857 12.1582 25.1432C12.1582 26.2014 12.9043 26.9488 13.832 26.9488C14.5978 26.9488 14.9391 26.4348 14.9391 26.4348V26.6589C14.9391 26.7648 15.0392 26.8829 15.1631 26.8829H15.7167V21.6638H14.9391V23.845C14.9391 23.845 14.5949 23.3244 13.832 23.3244V23.3245ZM13.9705 24.0359C14.6499 24.0359 15.0062 24.6334 15.0062 25.143C15.0062 25.7106 14.5831 26.2497 13.972 26.2497C13.4611 26.2497 12.9493 25.8359 12.9493 25.1355C12.9493 24.5033 13.3897 24.0359 13.9705 24.0359Z" fill="#2F80ED"/>
<path d="M16.7974 26.8829C16.6779 26.8829 16.5734 26.7972 16.5734 26.6588V23.4035H17.351V23.9834C17.4848 23.6585 17.7736 23.364 18.2867 23.364C18.4297 23.364 18.5635 23.3903 18.5635 23.3903V24.1943C18.5635 24.1943 18.3965 24.1284 18.1945 24.1284C17.6489 24.1284 17.351 24.644 17.351 25.1294V26.8829H16.7974Z" fill="#2F80ED"/>
<path d="M23.2817 26.8829C23.1622 26.8829 23.0576 26.7972 23.0576 26.6589V23.4035H23.8352V26.8829L23.2817 26.8829Z" fill="#2F80ED"/>
<path d="M26.1153 23.3245C25.2901 23.3245 24.4415 23.9857 24.4415 25.1432C24.4415 26.2014 25.1876 26.9488 26.1153 26.9488C26.8811 26.9488 27.2224 26.4348 27.2224 26.4348V26.6589C27.2224 26.7648 27.3226 26.8829 27.4465 26.8829H28V21.6638H27.2224V23.845C27.2224 23.845 26.8783 23.3244 26.1153 23.3244V23.3245ZM26.2539 24.0359C26.9332 24.0359 27.2896 24.6334 27.2896 25.143C27.2896 25.7106 26.8665 26.2497 26.2553 26.2497C25.7444 26.2497 25.2326 25.8359 25.2326 25.1355C25.2326 24.5033 25.673 24.0359 26.2539 24.0359Z" fill="#2F80ED"/>
<path d="M23.441 22.6532C23.725 22.6532 23.9552 22.423 23.9552 22.139C23.9552 21.8551 23.725 21.6249 23.441 21.6249C23.1571 21.6249 22.9269 21.8551 22.9269 22.139C22.9269 22.423 23.1571 22.6532 23.441 22.6532Z" fill="#2F80ED"/>
<path d="M20.6142 23.3233C19.7499 23.3233 18.8004 23.9684 18.8004 25.1371C18.8004 26.202 19.6092 26.949 20.6123 26.949C21.8485 26.949 22.4522 25.9552 22.4522 25.1438C22.4522 24.1482 21.6749 23.3233 20.6142 23.3233V23.3233ZM20.617 24.0495C21.2147 24.0495 21.6605 24.5312 21.6605 25.1393C21.6605 25.7579 21.1872 26.2353 20.6188 26.2353C20.0911 26.2353 19.5782 25.8059 19.5782 25.1497C19.5782 24.4825 20.066 24.0495 20.617 24.0495V24.0495Z" fill="#2F80ED"/>
<path d="M21.8569 10.0523L23.8465 6.60584C23.9588 6.41263 23.8909 6.1672 23.7003 6.05493C23.5097 5.94266 23.2616 6.00793 23.152 6.20114L21.1363 9.69196C19.5985 8.98962 17.8674 8.59797 16.0058 8.59797C14.1442 8.59797 12.4132 8.98961 10.8753 9.69196L8.85969 6.20114C8.74742 6.00793 8.50199 5.94266 8.30878 6.05493C8.11557 6.1672 8.0503 6.41263 8.16257 6.60584L10.1521 10.0523C6.72133 11.9113 4.39759 15.3838 4.01379 19.449H27.9979C27.6141 15.3838 25.2903 11.9112 21.857 10.0523H21.8569ZM10.4994 16.0809C9.94323 16.0809 9.49415 15.6292 9.49415 15.0757C9.49415 14.5196 9.94584 14.0705 10.4994 14.0705C11.0555 14.0705 11.5046 14.5222 11.5046 15.0757C11.5072 15.6292 11.0555 16.0809 10.4994 16.0809ZM21.5097 16.0809C20.9536 16.0809 20.5045 15.6292 20.5045 15.0757C20.5045 14.5196 20.9562 14.0705 21.5097 14.0705C22.0658 14.0705 22.5149 14.5222 22.5149 15.0757C22.5175 15.6292 22.0658 16.0809 21.5097 16.0809Z" fill="#2F80ED"/>
</svg>
