<svg width="32" height="32" viewBox="0 0 32 32" fill="none" xmlns="http://www.w3.org/2000/svg">
<path d="M4 24H28" stroke="#2F80ED" stroke-width="2" stroke-miterlimit="10" stroke-linecap="round" stroke-linejoin="round"/>
<path d="M16 2L10 5L16 8L22 5L16 2Z" stroke="#2F80ED" stroke-width="2" stroke-miterlimit="10" stroke-linecap="round" stroke-linejoin="round"/>
<path d="M10 5V12L16 15L22 12V5" stroke="#2F80ED" stroke-width="2" stroke-miterlimit="10" stroke-linecap="round" stroke-linejoin="round"/>
<path d="M16 8V15" stroke="#2F80ED" stroke-width="2" stroke-miterlimit="10" stroke-linecap="round" stroke-linejoin="round"/>
<path d="M28.5 23.4L24.6 18.7C24.2 18.2 23.7 18 23.1 18H8.9C8.3 18 7.7 18.3 7.4 18.7L3.5 23.4C3.2 23.8 3 24.3 3 24.7V27C3 28.1 3.9 29 5 29H27C28.1 29 29 28.1 29 27V24.7C29 24.3 28.8 23.8 28.5 23.4Z" stroke="#2F80ED" stroke-width="2" stroke-miterlimit="10" stroke-linecap="round" stroke-linejoin="round"/>
</svg>
