<svg width="32" height="32" viewBox="0 0 32 32" fill="none" xmlns="http://www.w3.org/2000/svg">
<g clip-path="url(#clip0_109_2269)">
<path d="M10.7986 16.2237C10.7986 15.8998 11.0612 15.6372 11.3851 15.6372H14.694C15.018 15.6372 15.2805 15.8998 15.2805 16.2237C15.2805 16.5476 15.018 16.8102 14.694 16.8102H11.3851C11.0612 16.8102 10.7986 16.5476 10.7986 16.2237ZM11.3851 19.4399H14.694C15.018 19.4399 15.2805 19.1773 15.2805 18.8534C15.2805 18.5295 15.018 18.2669 14.694 18.2669H11.3851C11.0612 18.2669 10.7986 18.5295 10.7986 18.8534C10.7986 19.1773 11.0612 19.4399 11.3851 19.4399ZM13.2735 10.0834C13.2735 8.95453 14.4712 8.07023 16.0001 8.07023C17.5289 8.07023 18.7265 8.95453 18.7265 10.0834C18.7265 11.2122 17.5289 12.0965 16.0001 12.0965C14.4712 12.0965 13.2735 11.2122 13.2735 10.0834ZM14.4465 10.0834C14.4465 10.48 15.1109 10.9236 16.0001 10.9236C16.8892 10.9236 17.5535 10.48 17.5535 10.0834C17.5535 9.68675 16.8892 9.24319 16.0001 9.24319C15.1109 9.24319 14.4465 9.6868 14.4465 10.0834ZM11.3851 14.8442H14.694C15.018 14.8442 15.2805 14.5816 15.2805 14.2577C15.2805 13.9338 15.018 13.6712 14.694 13.6712H11.3851C11.0612 13.6712 10.7986 13.9338 10.7986 14.2577C10.7986 14.5816 11.0612 14.8442 11.3851 14.8442ZM20.6152 23.9736H18.6904C18.3666 23.9736 18.104 24.2362 18.104 24.5601C18.104 24.884 18.3666 25.1466 18.6904 25.1466H20.6152C20.939 25.1466 21.2016 24.884 21.2016 24.5601C21.2016 24.2362 20.939 23.9736 20.6152 23.9736ZM24.1122 4.58648V27.4135C24.1122 27.7374 23.8495 28 23.5257 28H8.47442C8.15051 28 7.88794 27.7374 7.88794 27.4135V4.58648C7.88794 4.26257 8.15051 4 8.47442 4H10.6246C10.9485 4 11.2111 4.26257 11.2111 4.58648V5.42673H12.1882V4.58648C12.1882 4.26257 12.4508 4 12.7747 4H14.9249C15.2489 4 15.5114 4.26257 15.5114 4.58648V5.42673H16.4887V4.58648C16.4887 4.26257 16.7513 4 17.0752 4H19.2253C19.5492 4 19.8118 4.26257 19.8118 4.58648V5.42673H20.789V4.58648C20.789 4.26257 21.0517 4 21.3755 4H23.5256C23.8495 4 24.1122 4.26257 24.1122 4.58648ZM22.9392 5.17296H21.9621V6.01321C21.9621 6.33712 21.6994 6.59969 21.3756 6.59969H19.2254C18.9015 6.59969 18.6389 6.33712 18.6389 6.01321V5.17296H17.6617V6.01321C17.6617 6.33712 17.3991 6.59969 17.0752 6.59969H14.925C14.6011 6.59969 14.3385 6.33712 14.3385 6.01321V5.17296H13.3613V6.01321C13.3613 6.33712 13.0987 6.59969 12.7748 6.59969H10.6246C10.3007 6.59969 10.0382 6.33712 10.0382 6.01321V5.17296H9.0609V26.827H22.9392V5.17296ZM20.6152 15.6372H18.6904C18.3666 15.6372 18.104 15.8998 18.104 16.2237C18.104 16.5476 18.3666 16.8102 18.6904 16.8102H20.6152C20.939 16.8102 21.2016 16.5476 21.2016 16.2237C21.2016 15.8998 20.939 15.6372 20.6152 15.6372ZM20.6152 18.2669H18.6904C18.3666 18.2669 18.104 18.5295 18.104 18.8534C18.104 19.1773 18.3666 19.4399 18.6904 19.4399H20.6152C20.939 19.4399 21.2016 19.1773 21.2016 18.8534C21.2016 18.5295 20.939 18.2669 20.6152 18.2669ZM20.6152 21.1203H11.3851C11.0612 21.1203 10.7986 21.3829 10.7986 21.7068C10.7986 22.0307 11.0612 22.2933 11.3851 22.2933H20.6152C20.939 22.2933 21.2016 22.0307 21.2016 21.7068C21.2016 21.3829 20.939 21.1203 20.6152 21.1203Z" fill="#2F80ED"/>
</g>
<defs>
<clipPath id="clip0_109_2269">
<rect width="24" height="24" fill="white" transform="translate(4 4)"/>
</clipPath>
</defs>
</svg>
