<svg width="32" height="32" viewBox="0 0 32 32" fill="none" xmlns="http://www.w3.org/2000/svg">
<path d="M9.94434 23.8809H22.0469C23.9541 23.8809 24.9473 22.8965 24.9473 21.0156V10.3193C24.9473 8.43848 23.9541 7.4541 22.0469 7.4541H9.94434C8.0459 7.4541 7.05273 8.42969 7.05273 10.3193V21.0156C7.05273 22.8965 8.0459 23.8809 9.94434 23.8809ZM9.93555 22.1318C9.20605 22.1318 8.80176 21.7539 8.80176 20.9805V12.8945C8.80176 12.1211 9.20605 11.7432 9.93555 11.7432H22.0557C22.7852 11.7432 23.1895 12.1211 23.1895 12.8945V20.9805C23.1895 21.7539 22.7852 22.1318 22.0557 22.1318H9.93555ZM14.3037 14.7754H14.8223C15.1387 14.7754 15.2441 14.6787 15.2441 14.3711V13.8525C15.2441 13.5361 15.1387 13.4395 14.8223 13.4395H14.3037C13.9873 13.4395 13.8818 13.5361 13.8818 13.8525V14.3711C13.8818 14.6787 13.9873 14.7754 14.3037 14.7754ZM17.1777 14.7754H17.6963C18.0039 14.7754 18.1094 14.6787 18.1094 14.3711V13.8525C18.1094 13.5361 18.0039 13.4395 17.6963 13.4395H17.1777C16.8613 13.4395 16.7559 13.5361 16.7559 13.8525V14.3711C16.7559 14.6787 16.8613 14.7754 17.1777 14.7754ZM20.043 14.7754H20.5615C20.8779 14.7754 20.9834 14.6787 20.9834 14.3711V13.8525C20.9834 13.5361 20.8779 13.4395 20.5615 13.4395H20.043C19.7354 13.4395 19.6299 13.5361 19.6299 13.8525V14.3711C19.6299 14.6787 19.7354 14.7754 20.043 14.7754ZM11.4385 17.6055H11.9482C12.2646 17.6055 12.3701 17.5088 12.3701 17.1924V16.6738C12.3701 16.3662 12.2646 16.2695 11.9482 16.2695H11.4385C11.1221 16.2695 11.0166 16.3662 11.0166 16.6738V17.1924C11.0166 17.5088 11.1221 17.6055 11.4385 17.6055ZM14.3037 17.6055H14.8223C15.1387 17.6055 15.2441 17.5088 15.2441 17.1924V16.6738C15.2441 16.3662 15.1387 16.2695 14.8223 16.2695H14.3037C13.9873 16.2695 13.8818 16.3662 13.8818 16.6738V17.1924C13.8818 17.5088 13.9873 17.6055 14.3037 17.6055ZM17.1777 17.6055H17.6963C18.0039 17.6055 18.1094 17.5088 18.1094 17.1924V16.6738C18.1094 16.3662 18.0039 16.2695 17.6963 16.2695H17.1777C16.8613 16.2695 16.7559 16.3662 16.7559 16.6738V17.1924C16.7559 17.5088 16.8613 17.6055 17.1777 17.6055ZM20.043 17.6055H20.5615C20.8779 17.6055 20.9834 17.5088 20.9834 17.1924V16.6738C20.9834 16.3662 20.8779 16.2695 20.5615 16.2695H20.043C19.7354 16.2695 19.6299 16.3662 19.6299 16.6738V17.1924C19.6299 17.5088 19.7354 17.6055 20.043 17.6055ZM11.4385 20.4268H11.9482C12.2646 20.4268 12.3701 20.3301 12.3701 20.0225V19.5039C12.3701 19.1875 12.2646 19.0908 11.9482 19.0908H11.4385C11.1221 19.0908 11.0166 19.1875 11.0166 19.5039V20.0225C11.0166 20.3301 11.1221 20.4268 11.4385 20.4268ZM14.3037 20.4268H14.8223C15.1387 20.4268 15.2441 20.3301 15.2441 20.0225V19.5039C15.2441 19.1875 15.1387 19.0908 14.8223 19.0908H14.3037C13.9873 19.0908 13.8818 19.1875 13.8818 19.5039V20.0225C13.8818 20.3301 13.9873 20.4268 14.3037 20.4268ZM17.1777 20.4268H17.6963C18.0039 20.4268 18.1094 20.3301 18.1094 20.0225V19.5039C18.1094 19.1875 18.0039 19.0908 17.6963 19.0908H17.1777C16.8613 19.0908 16.7559 19.1875 16.7559 19.5039V20.0225C16.7559 20.3301 16.8613 20.4268 17.1777 20.4268Z" fill="#2F80ED"/>
</svg>
