<svg width="32" height="32" viewBox="0 0 32 32" fill="none" xmlns="http://www.w3.org/2000/svg">
<path d="M22.5199 15.32C22.6399 15.32 22.7999 15.28 22.8799 15.2C23.1999 15 23.2799 14.56 23.0799 14.24L20.5599 10.4C20.5199 10.32 20.4799 10.28 20.3999 10.24C20.1199 10 19.6799 10.08 19.4399 10.36L16.7199 13.88L13.5199 9.12001C13.4799 9.04001 13.3999 9.00001 13.3199 8.92001C12.9999 8.72001 12.5599 8.80001 12.3599 9.12001L8.91993 14.24C8.83993 14.36 8.79993 14.48 8.79993 14.64C8.79993 15 9.11993 15.32 9.47993 15.32H22.5199Z" fill="#2F80ED"/>
<path d="M9.27998 17.56H22.84C23.2 17.56 23.52 17.88 23.52 18.24C23.52 18.6 23.2 18.92 22.84 18.92H9.27998C8.91998 18.92 8.59998 18.6 8.59998 18.24C8.59998 17.84 8.91998 17.56 9.27998 17.56Z" fill="#2F80ED"/>
<path d="M10.6799 20.96H21.4799C21.8399 20.96 22.1599 21.28 22.1599 21.64C22.1599 22 21.8399 22.32 21.4799 22.32H10.6799C10.3199 22.32 9.99988 22 9.99988 21.64C9.99988 21.28 10.2799 20.96 10.6799 20.96Z" fill="#2F80ED"/>
<path d="M26.08 9.52C26.4 9.08 26.6 8.56 26.6 7.96C26.6 6.52 25.44 5.4 24.04 5.4C23.44 5.4 22.92 5.6 22.48 5.92C20.6 4.72 18.4 4 16 4C9.36 4 4 9.36 4 16C4 19 5.08 21.72 6.88 23.8C6.76 24.04 6.72 24.32 6.72 24.6C6.72 25.64 7.56 26.48 8.6 26.48C9 26.48 9.32 26.36 9.64 26.16C11.48 27.32 13.68 28 16 28C22.64 28 28 22.64 28 16C28 13.6 27.28 11.4 26.08 9.52ZM24.04 6.72C24.72 6.72 25.28 7.28 25.28 7.96C25.28 8.64 24.72 9.16 24.04 9.16C23.36 9.16 22.8 8.64 22.8 7.96C22.8 7.28 23.36 6.72 24.04 6.72ZM16 26.64C13.96 26.64 12.04 26.08 10.44 25.04C10.48 24.88 10.52 24.72 10.52 24.56C10.52 23.52 9.68 22.68 8.64 22.68C8.36 22.68 8.12 22.72 7.92 22.84C6.36 21 5.4 18.6 5.4 16C5.4 10.12 10.16 5.36 16.04 5.36C18.12 5.36 20.08 5.96 21.72 7C21.6 7.28 21.52 7.6 21.52 7.96C21.52 9.4 22.68 10.52 24.08 10.52C24.4 10.52 24.72 10.44 25.04 10.32C26.08 11.96 26.68 13.92 26.68 16C26.64 21.88 21.84 26.64 16 26.64Z" fill="#2F80ED"/>
</svg>
