<svg width="32" height="32" viewBox="0 0 32 32" fill="none" xmlns="http://www.w3.org/2000/svg">
<path d="M28.1587 5.74112H3.84133C2.82605 5.74112 2 6.56717 2 7.58245V24.4175C2 25.4328 2.82605 26.2588 3.84133 26.2588H28.1587C29.174 26.2588 30 25.4328 30 24.4175V7.58245C30 6.56717 29.1739 5.74112 28.1587 5.74112ZM8.54697 25.382H3.84133C3.30949 25.382 2.8768 24.9493 2.8768 24.4175V7.58245C2.8768 7.05061 3.30949 6.61792 3.84133 6.61792H8.54697V25.382ZM29.1232 24.4176C29.1232 24.9494 28.6905 25.3821 28.1587 25.3821H9.42383V6.61798H28.1587C28.6905 6.61798 29.1232 7.05067 29.1232 7.5825V24.4176Z" fill="#2F80ED"/>
<path d="M12.7265 7.61169H10.8559C10.6138 7.61169 10.4175 7.80797 10.4175 8.05012C10.4175 8.29228 10.6138 8.48855 10.8559 8.48855H12.7265C12.9686 8.48855 13.1649 8.29228 13.1649 8.05012C13.1649 7.80797 12.9686 7.61169 12.7265 7.61169Z" fill="#2F80ED"/>
<path d="M7.11477 7.61169H4.30891C4.06681 7.61169 3.87048 7.80797 3.87048 8.05012C3.87048 8.29228 4.06676 8.48855 4.30891 8.48855H7.11477C7.35687 8.48855 7.5532 8.29228 7.5532 8.05012C7.5532 7.80797 7.35693 7.61169 7.11477 7.61169Z" fill="#2F80ED"/>
<path d="M7.11477 12.2881H4.30891C4.06681 12.2881 3.87048 12.4844 3.87048 12.7265C3.87048 12.9687 4.06676 13.1649 4.30891 13.1649H7.11477C7.35687 13.1649 7.5532 12.9687 7.5532 12.7265C7.5532 12.4844 7.35693 12.2881 7.11477 12.2881Z" fill="#2F80ED"/>
<path d="M7.11477 16.0292H4.30891C4.06681 16.0292 3.87048 16.2255 3.87048 16.4676C3.87048 16.7098 4.06676 16.9061 4.30891 16.9061H7.11477C7.35687 16.9061 7.5532 16.7098 7.5532 16.4676C7.5532 16.2255 7.35693 16.0292 7.11477 16.0292Z" fill="#2F80ED"/>
<path d="M7.11477 19.7704H4.30891C4.06681 19.7704 3.87048 19.9667 3.87048 20.2088C3.87048 20.451 4.06676 20.6472 4.30891 20.6472H7.11477C7.35687 20.6472 7.5532 20.451 7.5532 20.2088C7.5532 19.9667 7.35693 19.7704 7.11477 19.7704Z" fill="#2F80ED"/>
<path d="M7.11477 14.1587H4.30891C4.06681 14.1587 3.87048 14.3549 3.87048 14.5971C3.87048 14.8392 4.06676 15.0355 4.30891 15.0355H7.11477C7.35687 15.0355 7.5532 14.8392 7.5532 14.5971C7.5532 14.3549 7.35693 14.1587 7.11477 14.1587Z" fill="#2F80ED"/>
<path d="M7.11477 17.8998H4.30891C4.06681 17.8998 3.87048 18.0961 3.87048 18.3382C3.87048 18.5804 4.06676 18.7766 4.30891 18.7766H7.11477C7.35687 18.7766 7.5532 18.5804 7.5532 18.3382C7.5532 18.0961 7.35693 17.8998 7.11477 17.8998Z" fill="#2F80ED"/>
<path d="M6.1795 22.5762H4.30891C4.06681 22.5762 3.87048 22.7725 3.87048 23.0147C3.87048 23.2568 4.06676 23.4531 4.30891 23.4531H6.1795C6.4216 23.4531 6.61793 23.2568 6.61793 23.0147C6.61793 22.7725 6.4216 22.5762 6.1795 22.5762Z" fill="#2F80ED"/>
<path d="M6.1795 9.48224H4.30891C4.06681 9.48224 3.87048 9.67851 3.87048 9.92067C3.87048 10.1628 4.06676 10.3591 4.30891 10.3591H6.1795C6.4216 10.3591 6.61793 10.1628 6.61793 9.92067C6.61793 9.67851 6.4216 9.48224 6.1795 9.48224Z" fill="#2F80ED"/>
<path d="M16.4676 7.61169H14.597C14.3549 7.61169 14.1586 7.80797 14.1586 8.05012C14.1586 8.29228 14.3548 8.48855 14.597 8.48855H16.4676C16.7097 8.48855 16.906 8.29228 16.906 8.05012C16.906 7.80797 16.7097 7.61169 16.4676 7.61169Z" fill="#2F80ED"/>
<path d="M20.2088 7.61169H18.3382C18.0961 7.61169 17.8998 7.80797 17.8998 8.05012C17.8998 8.29228 18.0961 8.48855 18.3382 8.48855H20.2088C20.4509 8.48855 20.6472 8.29228 20.6472 8.05012C20.6472 7.80797 20.451 7.61169 20.2088 7.61169Z" fill="#2F80ED"/>
<path d="M23.9499 7.61169H22.0793C21.8372 7.61169 21.6409 7.80797 21.6409 8.05012C21.6409 8.29228 21.8371 8.48855 22.0793 8.48855H23.9499C24.192 8.48855 24.3883 8.29228 24.3883 8.05012C24.3883 7.80797 24.192 7.61169 23.9499 7.61169Z" fill="#2F80ED"/>
<path d="M27.6911 7.61169H25.8205C25.5784 7.61169 25.3821 7.80797 25.3821 8.05012C25.3821 8.29228 25.5784 8.48855 25.8205 8.48855H27.6911C27.9332 8.48855 28.1295 8.29228 28.1295 8.05012C28.1295 7.80797 27.9332 7.61169 27.6911 7.61169Z" fill="#2F80ED"/>
<path d="M15.7958 17.5202C15.6022 17.3747 15.3273 17.4138 15.182 17.6074C14.8191 18.0904 14.265 18.3675 13.6618 18.3675C12.6142 18.3675 11.762 17.5152 11.762 16.4677C11.762 15.4202 12.6142 14.5679 13.6618 14.5679C14.2654 14.5679 14.8198 14.8453 15.1826 15.329C15.3279 15.5226 15.6027 15.562 15.7964 15.4166C15.99 15.2712 16.0292 14.9965 15.884 14.8028C15.3539 14.0963 14.544 13.6911 13.6617 13.6911C12.1307 13.6911 10.8851 14.9367 10.8851 16.4677C10.8851 17.9987 12.1307 19.2443 13.6617 19.2443C14.5433 19.2443 15.3529 18.8396 15.883 18.134C16.0285 17.9404 15.9894 17.6656 15.7958 17.5202Z" fill="#2F80ED"/>
<path d="M20.1207 17.3342C20.9545 17.1587 21.5825 16.4176 21.5825 15.5323C21.5825 14.517 20.7564 13.691 19.7411 13.691H17.4029C17.1608 13.691 16.9645 13.8873 16.9645 14.1294V18.8058C16.9645 19.0479 17.1608 19.2442 17.4029 19.2442C17.6451 19.2442 17.8413 19.0479 17.8413 18.8058V17.3736H19.0543L20.3257 19.0688C20.4119 19.1837 20.5435 19.2442 20.6768 19.2442C20.7683 19.2442 20.8606 19.2156 20.9395 19.1566C21.1331 19.0113 21.1725 18.7364 21.0272 18.5428L20.1207 17.3342ZM17.8413 16.4969V14.5679H19.7411C20.2729 14.5679 20.7056 15.0006 20.7056 15.5324C20.7056 16.0643 20.2729 16.4969 19.7411 16.4969H17.8413V16.4969Z" fill="#2F80ED"/>
<path d="M27.6596 18.7622L27.192 14.0858C27.1719 13.8849 27.0171 13.7236 26.8171 13.6954C26.6173 13.667 26.4237 13.7791 26.3487 13.9667L24.8852 17.6254L23.4216 13.9667C23.3466 13.7791 23.1532 13.6673 22.9532 13.6954C22.7532 13.7236 22.5985 13.8849 22.5784 14.0858L22.1107 18.7622C22.0867 19.0032 22.2624 19.218 22.5034 19.2421C22.7441 19.2662 22.9591 19.0904 22.9833 18.8494L23.2727 15.955L24.4782 18.9687C24.5448 19.1351 24.7059 19.2442 24.8852 19.2442C25.0645 19.2442 25.2257 19.1351 25.2923 18.9687L26.4977 15.955L26.7872 18.8494C26.8098 19.0755 27.0004 19.2442 27.2229 19.2442C27.2376 19.2442 27.2523 19.2435 27.2671 19.242C27.5079 19.218 27.6837 19.0031 27.6596 18.7622Z" fill="#2F80ED"/>
</svg>
