<svg width="32" height="32" viewBox="0 0 32 32" fill="none" xmlns="http://www.w3.org/2000/svg">
<path d="M4 15.7668C4 16.2236 4.37027 16.5939 4.82709 16.5939H20.5802L17.5075 19.6618C17.1853 19.984 17.1853 20.5081 17.5075 20.8303C17.6662 20.989 17.8778 21.0707 18.0894 21.0707C18.3009 21.0707 18.5125 20.989 18.6712 20.8303L23.1481 16.3534C23.4702 16.0313 23.4702 15.5071 23.1481 15.1849L18.6712 10.7081C18.349 10.3859 17.8249 10.3859 17.5027 10.7081C17.1805 11.0302 17.1805 11.5544 17.5027 11.8766L20.5706 14.9445H4.82709C4.37027 14.9445 4 15.31 4 15.7668Z" fill="#2F80ED"/>
<path d="M23.0615 27.5288C25.788 27.5288 28 25.312 28 22.5855V8.9433C28 6.21679 25.7832 4 23.0615 4H9.41932C6.69282 4 4.48083 6.21679 4.48083 8.9433V11.7467C4.48083 12.2036 4.8511 12.569 5.30312 12.569C5.75994 12.569 6.1302 12.1988 6.1302 11.7467V8.9433C6.1302 7.13044 7.60646 5.64937 9.41932 5.64937H23.0615C24.8743 5.64937 26.3506 7.12563 26.3506 8.9433V22.5855C26.3506 24.3983 24.8743 25.8794 23.0615 25.8794H9.41932C7.60646 25.8794 6.1302 24.4031 6.1302 22.5855V19.8157C6.1302 19.3588 5.75994 18.9886 5.30312 18.9886C4.84629 18.9886 4.48083 19.3588 4.48083 19.8157V22.5855C4.48083 25.312 6.69762 27.5288 9.41932 27.5288H23.0615Z" fill="#2F80ED"/>
</svg>
