<svg width="32" height="32" viewBox="0 0 32 32" fill="none" xmlns="http://www.w3.org/2000/svg">
<path d="M27.6051 6.90037L19.9239 5.54189C19.8696 5.53223 19.8116 5.53228 19.7574 5.54189L12.1594 6.88565L4.56137 5.54189C4.42215 5.51727 4.2792 5.55551 4.17092 5.64635C4.06263 5.73719 4 5.87129 4 6.01266V24.6289C4 24.8608 4.16642 25.0592 4.3948 25.0996L12.0761 26.4581C12.1306 26.4679 12.188 26.4679 12.2426 26.4581L19.8406 25.1144L27.4387 26.4581C27.4664 26.463 27.4942 26.4654 27.5219 26.4654C27.6334 26.4654 27.7424 26.4264 27.8291 26.3537C27.9375 26.2628 28 26.1287 28 25.9873V7.37115C28 7.13923 27.8336 6.94077 27.6051 6.90037ZM11.6813 25.4173L4.95618 24.2279V6.58273L11.6813 7.77212V9.28584C11.0921 8.87755 10.378 8.63746 9.60849 8.63746C7.5968 8.63746 5.96016 10.2741 5.96016 12.2858C5.96016 14.145 8.89437 18.0299 9.22894 18.4668C9.31939 18.5849 9.45971 18.6542 9.60849 18.6542C9.75728 18.6542 9.89759 18.5849 9.98805 18.4668C10.1505 18.2546 10.9263 17.229 11.6813 16.0172V25.4173ZM9.60845 17.3747C8.61135 16 6.91633 13.4254 6.91633 12.2858C6.91633 10.8013 8.12403 9.59363 9.60849 9.59363C11.093 9.59363 12.3007 10.8013 12.3007 12.2858C12.3007 13.4244 10.6055 15.9996 9.60845 17.3747ZM19.3625 24.2279L12.6374 25.4173V14.4701C12.6375 14.4268 12.6312 14.385 12.6204 14.3451C12.9957 13.5753 13.2568 12.8404 13.2568 12.2858C13.2568 11.5344 13.0284 10.8355 12.6374 10.2544V7.77212L19.3625 6.58273V24.2279ZM27.0438 25.4173L20.3187 24.2279V6.58273L27.0438 7.77212V25.4173Z" fill="#2F80ED"/>
<path d="M9.60845 10.6212C8.69057 10.6212 7.94385 11.3679 7.94385 12.2858C7.94385 13.2037 8.69057 13.9504 9.60845 13.9504C10.5263 13.9504 11.2731 13.2036 11.2731 12.2858C11.2731 11.368 10.5263 10.6212 9.60845 10.6212ZM9.60845 12.9942C9.21786 12.9942 8.90002 12.6764 8.90002 12.2858C8.90002 11.8952 9.21781 11.5774 9.60845 11.5774C9.9991 11.5774 10.3169 11.8951 10.3169 12.2858C10.3169 12.6764 9.9991 12.9942 9.60845 12.9942Z" fill="#2F80ED"/>
<path d="M25.8964 18.247C26.1604 18.247 26.3745 18.033 26.3745 17.7689V8.87649C26.3745 8.61245 26.1604 8.39841 25.8964 8.39841C25.6324 8.39841 25.4183 8.61245 25.4183 8.87649V17.7689C25.4183 18.033 25.6324 18.247 25.8964 18.247Z" fill="#2F80ED"/>
<path d="M25.8964 21.5936C26.1604 21.5936 26.3745 21.3796 26.3745 21.1156V19.7769C26.3745 19.5129 26.1604 19.2988 25.8964 19.2988C25.6324 19.2988 25.4183 19.5129 25.4183 19.7769V21.1156C25.4183 21.3796 25.6324 21.5936 25.8964 21.5936Z" fill="#2F80ED"/>
</svg>
