<svg width="32" height="32" viewBox="0 0 32 32" fill="none" xmlns="http://www.w3.org/2000/svg">
<path d="M5 25.4621C5 27.6317 6.125 28.7667 8.27455 28.7667H18.9821C21.1417 28.7667 22.2567 27.6317 22.2567 25.4621V10.3147C22.2567 8.13504 21.1417 7 18.9821 7H8.27455C6.125 7 5 8.13504 5 10.3147V25.4621ZM6.99888 25.3315V10.4353C6.99888 9.51116 7.48103 9.00893 8.45536 9.00893H18.8013C19.7757 9.00893 20.2578 9.51116 20.2578 10.4353V25.3315C20.2578 26.2556 19.7757 26.7578 18.8013 26.7578H8.45536C7.48103 26.7578 6.99888 26.2556 6.99888 25.3315Z" fill="#2F80ED"/>
<path opacity="0.8" d="M9 21.4621C9 23.6317 10.125 24.7667 12.2746 24.7667H22.9821C25.1417 24.7667 26.2567 23.6317 26.2567 21.4621V6.31473C26.2567 4.13504 25.1417 3 22.9821 3H12.2746C10.125 3 9 4.13504 9 6.31473V21.4621ZM10.9989 21.3315V6.43527C10.9989 5.51116 11.481 5.00893 12.4554 5.00893H22.8013C23.7757 5.00893 24.2578 5.51116 24.2578 6.43527V21.3315C24.2578 22.2556 23.7757 22.7578 22.8013 22.7578H12.4554C11.481 22.7578 10.9989 22.2556 10.9989 21.3315Z" fill="#2F80ED"/>
</svg>
