<svg width="32" height="32" viewBox="0 0 32 32" fill="none" xmlns="http://www.w3.org/2000/svg">
<g clip-path="url(#clip0_109_1291)">
<path d="M9.21567 21.0594L8.8171 18.7356L10.5055 17.0899C10.6545 16.9446 10.7082 16.7273 10.6439 16.5293C10.5796 16.3313 10.4084 16.187 10.2024 16.157L7.86915 15.8181L6.82572 13.7038C6.73357 13.5172 6.54348 13.399 6.33534 13.399C6.1272 13.399 5.93705 13.5172 5.84496 13.7038L4.80152 15.8181L2.46829 16.157C2.26228 16.187 2.09116 16.3313 2.0268 16.5293C1.96243 16.7273 2.01613 16.9446 2.16521 17.0899L3.85352 18.7356L3.45496 21.0594C3.41974 21.2645 3.50412 21.4719 3.6725 21.5942C3.76777 21.6634 3.88064 21.6987 3.99401 21.6987C4.08107 21.6987 4.16841 21.6779 4.24841 21.6359L6.33528 20.5387L8.42215 21.6359C8.60639 21.7327 8.82963 21.7165 8.99807 21.5942C9.1665 21.4719 9.25083 21.2645 9.21567 21.0594ZM7.84766 18.153C7.71876 18.2787 7.65992 18.4596 7.69038 18.6371L7.9502 20.1521L6.58963 19.4368C6.43033 19.3531 6.23996 19.3531 6.08066 19.4368L4.72026 20.1521L4.98008 18.6371C5.01054 18.4597 4.95169 18.2787 4.8228 18.153L3.7221 17.0801L5.24323 16.8591C5.42135 16.8332 5.57535 16.7213 5.65497 16.5599L6.33523 15.1815L7.01549 16.5599C7.09516 16.7213 7.24911 16.8332 7.42723 16.8591L8.94835 17.0801L7.84766 18.153Z" fill="#2F80ED"/>
<path d="M29.9732 16.5293C29.9089 16.3313 29.7377 16.187 29.5317 16.157L27.1985 15.8181L26.1551 13.7038C26.0629 13.5172 25.8728 13.399 25.6647 13.399C25.4565 13.399 25.2664 13.5172 25.1743 13.7038L24.1309 15.8181L21.7976 16.157C21.5916 16.187 21.4205 16.3313 21.3561 16.5293C21.2918 16.7273 21.3455 16.9446 21.4946 17.0899L23.1829 18.7356L22.7844 21.0594C22.7491 21.2646 22.8335 21.4719 23.0019 21.5942C23.1703 21.7166 23.3937 21.7326 23.5778 21.6359L25.6647 20.5387L27.7515 21.6359C27.8316 21.678 27.9189 21.6987 28.006 21.6987C28.1193 21.6987 28.2322 21.6634 28.3275 21.5942C28.4958 21.4719 28.5802 21.2646 28.545 21.0594L28.1464 18.7356L29.8348 17.0899C29.9839 16.9446 30.0376 16.7273 29.9732 16.5293ZM27.1772 18.1531C27.0483 18.2787 26.9895 18.4597 27.0199 18.6372L27.2798 20.1522L25.9192 19.4369C25.8395 19.395 25.7521 19.3741 25.6647 19.3741C25.5773 19.3741 25.4899 19.395 25.4103 19.4369L24.0497 20.1522L24.3095 18.6372C24.34 18.4598 24.2811 18.2787 24.1522 18.1531L23.0516 17.0802L24.5727 16.8592C24.7508 16.8332 24.9048 16.7214 24.9844 16.56L25.6647 15.1816L26.3449 16.56C26.4246 16.7214 26.5786 16.8332 26.7567 16.8592L28.2778 17.0802L27.1772 18.1531Z" fill="#2F80ED"/>
<path d="M19.9549 19.2164L19.3432 15.6499L21.9343 13.1242C22.0834 12.9789 22.1371 12.7616 22.0727 12.5636C22.0084 12.3656 21.8373 12.2213 21.6313 12.1913L18.0504 11.671L16.4489 8.4261C16.3568 8.23945 16.1667 8.12127 15.9585 8.12127C15.7503 8.12127 15.5602 8.23945 15.4681 8.4261L13.8667 11.671L10.2858 12.1913C10.0798 12.2213 9.90867 12.3656 9.8443 12.5636C9.77993 12.7616 9.83364 12.9789 9.98272 13.1242L12.5739 15.6499L11.9622 19.2164C11.927 19.4216 12.0113 19.6289 12.1797 19.7513C12.3481 19.8736 12.5715 19.8897 12.7556 19.7929L15.9585 18.1091L19.1614 19.7929C19.2414 19.8351 19.3288 19.8557 19.4158 19.8557C19.5292 19.8557 19.6421 19.8205 19.7373 19.7513C19.9057 19.6289 19.99 19.4216 19.9549 19.2164ZM18.2165 15.5515L18.6894 18.3092L16.2129 17.0072C16.1332 16.9653 16.0458 16.9444 15.9584 16.9444C15.8711 16.9443 15.7837 16.9653 15.704 17.0072L13.2274 18.3092L13.7004 15.5515C13.7309 15.3741 13.672 15.1931 13.5431 15.0674L11.5396 13.1145L14.3084 12.7122C14.4866 12.6863 14.6406 12.5744 14.7202 12.413L15.9585 9.90392L17.1968 12.413C17.2764 12.5744 17.4304 12.6863 17.6085 12.7122L20.3773 13.1145L18.3738 15.0674C18.2449 15.1931 18.1861 15.374 18.2165 15.5515Z" fill="#2F80ED"/>
<path d="M17.2031 22.785H9.60156C9.29952 22.785 9.05469 23.0299 9.05469 23.3319C9.05469 23.6339 9.29952 23.8788 9.60156 23.8788H17.2031C17.5051 23.8788 17.75 23.6339 17.75 23.3319C17.75 23.0299 17.5051 22.785 17.2031 22.785Z" fill="#2F80ED"/>
<path d="M22.3984 22.785H20.0469C19.7448 22.785 19.5 23.0299 19.5 23.3319C19.5 23.6339 19.7448 23.8788 20.0469 23.8788H22.3984C22.7005 23.8788 22.9453 23.6339 22.9453 23.3319C22.9453 23.0299 22.7005 22.785 22.3984 22.785Z" fill="#2F80ED"/>
</g>
<defs>
<clipPath id="clip0_109_1291">
<rect width="28" height="28" fill="white" transform="translate(2 2)"/>
</clipPath>
</defs>
</svg>
