<svg width="32" height="32" viewBox="0 0 32 32" fill="none" xmlns="http://www.w3.org/2000/svg">
<path d="M16.5 27C22.7899 27 28 21.8011 28 15.5C28 9.21007 22.7899 4 16.4889 4C10.1989 4 5 9.21007 5 15.5C5 21.8011 10.2101 27 16.5 27ZM16.5 24.7401C11.379 24.7401 7.27106 20.621 7.27106 15.5C7.27106 10.379 11.3679 6.27106 16.4889 6.27106C21.6099 6.27106 25.7289 10.379 25.7401 15.5C25.7401 20.621 21.621 24.7401 16.5 24.7401ZM21.2759 16.3795C21.5319 16.6244 21.8214 16.6467 22.0774 16.4017L23.6583 14.8209C23.9032 14.5871 23.8921 14.2754 23.636 14.0305L23.2575 13.6409C23.0349 13.4182 22.8901 13.3848 22.6452 13.4071L22.0663 13.4739L21.6655 13.0954L21.8437 12.3829C21.9327 11.9821 21.7991 11.5925 21.3872 11.1917L20.3296 10.1341C18.8156 8.6423 16.0213 8.48645 14.485 10.0227C14.2178 10.2899 14.2512 10.6016 14.4071 10.802C14.5518 10.9468 14.7856 11.0358 15.0082 10.9579C16.0213 10.6573 16.9119 10.6016 17.6467 11.047L17.2682 12.0489C17.09 12.5276 17.1791 12.8727 17.4797 13.1844L18.6375 14.3311C18.8935 14.5983 19.1607 14.6651 19.5392 14.5871L20.3296 14.4313L20.7193 14.8209L20.6636 15.3998C20.6302 15.6447 20.6636 15.8117 20.8863 16.0121L21.2759 16.3795ZM11.7018 21.0663C12.2139 21.5673 12.7928 21.5339 13.2938 20.955L18.2701 15.2773L16.6002 13.6186L10.9114 18.5615C10.3325 19.0736 10.2991 19.6525 10.8001 20.1534L11.7018 21.0663Z" fill="#2F80ED"/>
</svg>
