<svg width="32" height="32" viewBox="0 0 32 32" fill="none" xmlns="http://www.w3.org/2000/svg">
<path d="M19.75 6.25H12.25C8.5 6.25 5.5 9.25 5.5 13V25.75C5.5 26.05 5.65 26.275 5.95 26.425C6.025 26.5 6.175 26.5 6.25 26.5C6.4 26.5 6.625 26.425 6.775 26.35C9.4 24.025 12.775 22.75 16.225 22.75H19.75C23.5 22.75 26.5 19.75 26.5 16V13C26.5 9.25 23.5 6.25 19.75 6.25ZM14.5 16.75H11.5C11.05 16.75 10.75 16.45 10.75 16C10.75 15.55 11.05 15.25 11.5 15.25H14.5C14.95 15.25 15.25 15.55 15.25 16C15.25 16.45 14.95 16.75 14.5 16.75ZM18.25 13.75H11.5C11.05 13.75 10.75 13.45 10.75 13C10.75 12.55 11.05 12.25 11.5 12.25H18.25C18.7 12.25 19 12.55 19 13C19 13.45 18.7 13.75 18.25 13.75Z" fill="#2F80ED"/>
</svg>
