<svg width="32" height="32" viewBox="0 0 32 32" fill="none" xmlns="http://www.w3.org/2000/svg">
<path d="M13.75 24.001C13.7494 23.3961 13.9483 22.8078 14.316 22.3274C14.6836 21.8471 15.1995 21.5013 15.7835 21.3439C16.3676 21.1865 16.9873 21.2261 17.5466 21.4566C18.1059 21.6871 18.5735 22.0957 18.877 22.619C20.967 21.697 21.75 20.25 21.75 17.5V14.5C21.75 10.508 19.499 7.75 16 7.75C12.501 7.75 10.25 10.509 10.25 14.5V18C10.2497 18.1988 10.1706 18.3894 10.03 18.53C9.88944 18.6706 9.69883 18.7497 9.5 18.75H8.5C7.77107 18.7492 7.07221 18.4594 6.55669 17.944C6.04116 17.4287 5.75106 16.7299 5.75 16.001V15.001C5.75079 14.2718 6.04075 13.5727 6.55627 13.057C7.0718 12.5413 7.77081 12.2511 8.5 12.25H8.978C9.735 8.679 12.326 6.25 16 6.25C19.674 6.25 22.264 8.679 23.021 12.25H23.499C24.228 12.2511 24.9269 12.5411 25.4424 13.0566C25.9579 13.5721 26.2479 14.271 26.249 15V16C26.2482 16.7291 25.9582 17.4281 25.4427 17.9437C24.9271 18.4592 24.2281 18.7492 23.499 18.75H23.19C23.1514 19.9344 22.754 21.0792 22.0505 22.0327C21.3469 22.9863 20.3703 23.7037 19.25 24.09C19.2382 24.8193 18.9371 25.5141 18.4131 26.0215C17.889 26.5289 17.1848 26.8073 16.4555 26.7955C15.7262 26.7837 15.0314 26.4826 14.524 25.9586C14.0166 25.4345 13.7382 24.7303 13.75 24.001ZM15.25 24.001C15.25 24.2482 15.3233 24.4899 15.4607 24.6955C15.598 24.901 15.7932 25.0612 16.0216 25.1558C16.2501 25.2505 16.5014 25.2752 16.7439 25.227C16.9863 25.1788 17.2091 25.0597 17.3839 24.8849C17.5587 24.7101 17.6778 24.4873 17.726 24.2449C17.7742 24.0024 17.7495 23.7511 17.6548 23.5226C17.5602 23.2942 17.4 23.099 17.1945 22.9617C16.9889 22.8243 16.7472 22.751 16.5 22.751C16.1686 22.7513 15.8508 22.883 15.6164 23.1174C15.382 23.3518 15.2503 23.6696 15.25 24.001ZM23.25 17.251H23.499C23.8306 17.251 24.1487 17.1193 24.3832 16.8849C24.6178 16.6506 24.7497 16.3326 24.75 16.001V15.001C24.75 14.6694 24.6183 14.3513 24.3839 14.1168C24.1496 13.8822 23.8316 13.7503 23.5 13.75H23.25V17.251ZM7.25 15.001V16.001C7.25053 16.3323 7.38243 16.6498 7.61676 16.8839C7.8511 17.1181 8.16873 17.2497 8.5 17.25H8.75V13.75H8.5C8.16839 13.7503 7.85045 13.8822 7.61606 14.1168C7.38166 14.3513 7.25 14.6694 7.25 15.001Z" fill="#2F80ED"/>
</svg>
