<svg width="21" height="21" viewBox="0 0 21 21" fill="none" xmlns="http://www.w3.org/2000/svg">
<path d="M0.171875 8.40576C0.171875 4.63453 0.171875 2.74891 1.34345 1.57733C2.51502 0.405762 4.40064 0.405762 8.17188 0.405762H12.1719C15.9431 0.405762 17.8287 0.405762 19.0003 1.57733C20.1719 2.74891 20.1719 4.63453 20.1719 8.40576V12.4058C20.1719 16.177 20.1719 18.0626 19.0003 19.2342C17.8287 20.4058 15.9431 20.4058 12.1719 20.4058H8.17187C4.40064 20.4058 2.51502 20.4058 1.34345 19.2342C0.171875 18.0626 0.171875 16.177 0.171875 12.4058V8.40576Z" fill="white"/>
<path d="M15.4459 9.02322C15.4157 8.99928 15.1344 8.78687 14.5412 8.78687C14.3845 8.78756 14.2282 8.80099 14.0737 8.82705C13.9589 8.04004 13.3082 7.65632 13.279 7.63911L13.1197 7.54724L13.0149 7.69843C12.8837 7.90153 12.788 8.12542 12.7317 8.36058C12.6255 8.80984 12.6901 9.2318 12.9183 9.59255C12.6427 9.74612 12.2007 9.78392 12.1112 9.78727H4.79214C4.60097 9.78753 4.44584 9.94202 4.4448 10.1332C4.43627 10.7744 4.5449 11.4117 4.76535 12.0139C5.01748 12.6751 5.39257 13.1621 5.88058 13.4602C6.42743 13.7951 7.31588 13.9865 8.32297 13.9865C8.77793 13.9879 9.23204 13.9467 9.67934 13.8635C10.3011 13.7493 10.8994 13.532 11.4495 13.2205C11.9028 12.958 12.3107 12.6241 12.6576 12.2316C13.2374 11.5752 13.5829 10.8441 13.8398 10.1944H13.9422C14.577 10.1944 14.9675 9.94035 15.1827 9.72746C15.3258 9.59168 15.4375 9.42627 15.51 9.24281L15.5554 9.10981L15.4459 9.02322Z" fill="#2496ED"/>
<path d="M5.4704 9.57297H6.45119C6.49849 9.57297 6.53682 9.53462 6.53682 9.48733V8.6137C6.53708 8.5664 6.49896 8.52785 6.45167 8.52759C6.45151 8.52759 6.45134 8.52759 6.45119 8.52759H5.4704C5.4231 8.52759 5.38477 8.56593 5.38477 8.61322V8.6137V9.48732C5.38477 9.53462 5.4231 9.57297 5.4704 9.57297Z" fill="#2496ED"/>
<path d="M6.82197 9.57297H7.80276C7.85006 9.57297 7.88839 9.53462 7.88839 9.48733V8.6137C7.88866 8.5664 7.85053 8.52785 7.80323 8.52759C7.80307 8.52759 7.8029 8.52759 7.80274 8.52759H6.82196C6.77439 8.52759 6.73584 8.56614 6.73584 8.6137V9.48732C6.73612 9.5347 6.77459 9.57297 6.82197 9.57297Z" fill="#2496ED"/>
<path d="M8.19405 9.57297H9.17484C9.22214 9.57297 9.26047 9.53462 9.26047 9.48733V8.6137C9.26074 8.5664 9.22261 8.52785 9.1753 8.52759C9.17515 8.52759 9.17498 8.52759 9.17482 8.52759H8.19403C8.14673 8.52759 8.1084 8.56593 8.1084 8.61322V8.6137V9.48732C8.10841 9.53462 8.14676 9.57297 8.19405 9.57297Z" fill="#2496ED"/>
<path d="M9.54999 9.57297H10.5308C10.5782 9.57297 10.6166 9.53471 10.6169 9.48733V8.6137C10.6169 8.56614 10.5783 8.52759 10.5308 8.52759H9.54999C9.50269 8.52759 9.46436 8.56593 9.46436 8.61322V8.6137V9.48732C9.46436 9.53462 9.5027 9.57297 9.54999 9.57297Z" fill="#2496ED"/>
<path d="M6.82196 8.31611H7.80274C7.85011 8.31585 7.88838 8.27736 7.88838 8.23V7.35639C7.88838 7.30908 7.85003 7.27075 7.80274 7.27075H6.82196C6.77459 7.27075 6.7361 7.309 6.73584 7.35639V8.23C6.7361 8.27745 6.7745 8.31585 6.82196 8.31611Z" fill="#2496ED"/>
<path d="M8.19403 8.31611H9.17481C9.22218 8.31585 9.26045 8.27736 9.26045 8.23V7.35639C9.26045 7.30908 9.2221 7.27075 9.17481 7.27075H8.19403C8.14673 7.27075 8.1084 7.3091 8.1084 7.35639V8.23C8.1084 8.27736 8.14667 8.31585 8.19403 8.31611Z" fill="#2496ED"/>
<path d="M9.54999 8.31611H10.5308C10.5782 8.31585 10.6166 8.27745 10.6169 8.23V7.35639C10.6166 7.309 10.5782 7.27075 10.5308 7.27075H9.54999C9.50269 7.27075 9.46436 7.3091 9.46436 7.35639V8.23C9.46436 8.27736 9.50262 8.31585 9.54999 8.31611Z" fill="#2496ED"/>
<path d="M9.54999 7.05881H10.5308C10.5782 7.05881 10.6166 7.02054 10.6169 6.97317V6.09906C10.6166 6.05168 10.5782 6.01343 10.5308 6.01343H9.54999C9.50269 6.01343 9.46436 6.05176 9.46436 6.09906V6.97316C9.46436 7.02046 9.5027 7.05881 9.54999 7.05881Z" fill="#2496ED"/>
<path d="M10.9182 9.57297H11.8989C11.9463 9.57297 11.9848 9.53471 11.9851 9.48733V8.6137C11.9851 8.56614 11.9465 8.52759 11.8989 8.52759H10.9182C10.8709 8.52759 10.8325 8.56593 10.8325 8.61322V8.6137V9.48732C10.8325 9.53462 10.8709 9.57297 10.9182 9.57297Z" fill="#2496ED"/>
</svg>
