<svg width="20" height="20" viewBox="0 0 20 20" fill="none" xmlns="http://www.w3.org/2000/svg">
<path d="M0 8C0 4.22876 0 2.34315 1.17157 1.17157C2.34315 0 4.22876 0 8 0H12C15.7712 0 17.6569 0 18.8284 1.17157C20 2.34315 20 4.22876 20 8V12C20 15.7712 20 17.6569 18.8284 18.8284C17.6569 20 15.7712 20 12 20H8C4.22876 20 2.34315 20 1.17157 18.8284C0 17.6569 0 15.7712 0 12V8Z" fill="white"/>
<path d="M5.99185 14.4482L5.10059 4.44446H14.8991L14.0078 14.4428L9.99174 15.5556" fill="#E44D26"/>
<path d="M10 14.7049V5.26562H14.0053L13.241 13.8002" fill="#F16529"/>
<path d="M6.9209 6.48901H9.99981V7.71518H8.2659L8.37933 8.97106H9.99981V10.1945H7.2558L6.9209 6.48901ZM7.30981 10.8103H8.54138L8.6278 11.7907L9.99981 12.158V13.4382L7.48267 12.736" fill="#EBEBEB"/>
<path d="M13.0677 6.48901H9.99414V7.71518H12.9542L13.0677 6.48901ZM12.8435 8.97105H9.99414V10.1972H11.5066L11.3634 11.7907L9.99414 12.158V13.4328L12.5059 12.736" fill="white"/>
</svg>
