<svg width="21" height="21" viewBox="0 0 21 21" fill="none" xmlns="http://www.w3.org/2000/svg">
<path d="M0.171875 8.40576C0.171875 4.63453 0.171875 2.74891 1.34345 1.57733C2.51502 0.405762 4.40064 0.405762 8.17188 0.405762H12.1719C15.9431 0.405762 17.8287 0.405762 19.0003 1.57733C20.1719 2.74891 20.1719 4.63453 20.1719 8.40576V12.4058C20.1719 16.177 20.1719 18.0626 19.0003 19.2342C17.8287 20.4058 15.9431 20.4058 12.1719 20.4058H8.17187C4.40064 20.4058 2.51502 20.4058 1.34345 19.2342C0.171875 18.0626 0.171875 16.177 0.171875 12.4058V8.40576Z" fill="white"/>
<path d="M15.5554 4.44446H4.44434V15.5556H15.5554V4.44446Z" fill="#F7DF1E"/>
<path d="M11.9084 13.125C12.1322 13.4904 12.4234 13.7591 12.9384 13.7591C13.371 13.7591 13.6474 13.5428 13.6474 13.2441C13.6474 12.886 13.3634 12.7592 12.8872 12.5509L12.6262 12.4389C11.8728 12.118 11.3722 11.7158 11.3722 10.8658C11.3722 10.0827 11.9689 9.48657 12.9013 9.48657C13.5652 9.48657 14.0424 9.71761 14.3864 10.3225L13.5733 10.8446C13.3943 10.5236 13.2012 10.3972 12.9013 10.3972C12.5955 10.3972 12.4017 10.5912 12.4017 10.8446C12.4017 11.1578 12.5957 11.2846 13.0437 11.4786L13.3047 11.5904C14.1918 11.9709 14.6927 12.3587 14.6927 13.2307C14.6927 14.1707 13.9543 14.6857 12.9625 14.6857C11.9929 14.6857 11.3664 14.2236 11.0599 13.618L11.9084 13.125ZM8.22003 13.2155C8.38405 13.5065 8.53326 13.7525 8.89199 13.7525C9.23502 13.7525 9.45142 13.6183 9.45142 13.0964V9.54618H10.4955V13.1106C10.4955 14.1917 9.86165 14.6837 8.93643 14.6837C8.10045 14.6837 7.61633 14.2511 7.37012 13.73L8.22003 13.2155Z" fill="black"/>
</svg>
