<svg width="21" height="21" viewBox="0 0 21 21" fill="none" xmlns="http://www.w3.org/2000/svg">
<path d="M0.988281 8.96704C0.988281 5.1958 0.988281 3.31019 2.15985 2.13861C3.33143 0.967041 5.21705 0.967041 8.98828 0.967041H12.9883C16.7595 0.967041 18.6451 0.967041 19.8167 2.13861C20.9883 3.31019 20.9883 5.19581 20.9883 8.96704V12.967C20.9883 16.7383 20.9883 18.6239 19.8167 19.7955C18.6451 20.967 16.7595 20.967 12.9883 20.967H8.98828C5.21704 20.967 3.33143 20.967 2.15985 19.7955C0.988281 18.6239 0.988281 16.7383 0.988281 12.967V8.96704Z" fill="white"/>
<path d="M10.545 5.563C10.8205 5.4053 11.1793 5.40459 11.4546 5.563C12.8395 6.34551 14.2247 7.12679 15.6093 7.90977C15.8698 8.05647 16.044 8.3463 16.0413 8.64638V13.3543C16.0433 13.6668 15.8518 13.9635 15.5771 14.1069C14.1968 14.8851 12.8172 15.6642 11.4372 16.4424C11.156 16.6032 10.7899 16.5908 10.5175 16.4169C10.1037 16.177 9.68916 15.9383 9.27531 15.6986C9.19074 15.6482 9.09541 15.6081 9.0357 15.5261C9.08849 15.4549 9.18287 15.4461 9.25956 15.415C9.4323 15.3601 9.59094 15.2719 9.74963 15.1863C9.78976 15.1589 9.83875 15.1694 9.87721 15.194C10.2311 15.3969 10.5818 15.6057 10.9368 15.8066C11.0126 15.8503 11.0893 15.7923 11.154 15.7562C12.5085 14.9907 13.8647 14.228 15.2189 13.4622C15.2691 13.4381 15.2968 13.3848 15.2928 13.3299C15.2937 11.7768 15.293 10.2235 15.2932 8.67052C15.299 8.60815 15.2629 8.55081 15.2065 8.52528C13.831 7.75065 12.4562 6.97483 11.0809 6.2C11.0571 6.18362 11.0289 6.17483 11 6.17479C10.971 6.17474 10.9428 6.18345 10.9189 6.19976C9.54365 6.97483 8.1691 7.75136 6.79383 8.52596C6.73764 8.55152 6.69992 8.60791 6.70661 8.67052C6.70685 10.2235 6.70661 11.7768 6.70661 13.3301C6.70423 13.3569 6.71012 13.3838 6.72349 13.4072C6.73686 13.4306 6.75707 13.4493 6.7814 13.4608C7.1484 13.6689 7.51587 13.8756 7.88311 14.083C8.08999 14.1943 8.34401 14.2605 8.57195 14.1752C8.77309 14.103 8.91409 13.8978 8.91025 13.6842C8.91215 12.1402 8.9093 10.596 8.91168 9.05231C8.90665 8.98377 8.97167 8.92714 9.03831 8.93359C9.21465 8.93241 9.39122 8.93122 9.56756 8.93407C9.64116 8.93241 9.69181 9.00621 9.68271 9.07526C9.682 10.629 9.68461 12.1828 9.68152 13.7365C9.682 14.1506 9.51188 14.6012 9.12885 14.8038C8.65699 15.0482 8.07377 14.9964 7.6076 14.762C7.20404 14.5606 6.81892 14.3229 6.42252 14.1071C6.14705 13.9645 5.95659 13.6666 5.95853 13.3543V8.64638C5.95564 8.34009 6.13677 8.04499 6.40531 7.90043C7.78536 7.1216 9.16518 6.34218 10.545 5.563Z" fill="#8CC84B"/>
<path d="M11.749 8.82418C12.3509 8.78544 12.9953 8.80123 13.5369 9.09775C13.9562 9.32497 14.1887 9.80186 14.1961 10.2678C14.1844 10.3306 14.1187 10.3653 14.0587 10.3609C13.8841 10.3607 13.7094 10.3633 13.5348 10.3598C13.4607 10.3626 13.4177 10.2943 13.4084 10.2288C13.3582 10.0059 13.2366 9.78512 13.0268 9.67761C12.7047 9.51635 12.3313 9.52446 11.9801 9.52782C11.7237 9.54144 11.448 9.56364 11.2308 9.71441C11.064 9.82861 11.0133 10.0592 11.0729 10.2448C11.129 10.3782 11.2829 10.4212 11.4088 10.4608C12.1342 10.6505 12.9028 10.6317 13.6143 10.8813C13.9089 10.9831 14.1971 11.181 14.2979 11.4894C14.4298 11.9028 14.372 12.3969 14.0779 12.7287C13.8394 13.0018 13.492 13.1505 13.1456 13.2312C12.6847 13.334 12.2063 13.3366 11.7383 13.2909C11.2982 13.2408 10.8401 13.1251 10.5004 12.8252C10.2098 12.573 10.0679 12.1799 10.082 11.8005C10.0854 11.7364 10.1492 11.6918 10.2105 11.697C10.3864 11.6956 10.5623 11.6951 10.7381 11.6973C10.8084 11.6922 10.8604 11.7529 10.864 11.8192C10.8965 12.0315 10.9763 12.2545 11.1615 12.3804C11.5189 12.611 11.9674 12.5952 12.3767 12.6016C12.7157 12.5866 13.0963 12.582 13.373 12.3579C13.519 12.2301 13.5623 12.0163 13.5228 11.8323C13.4801 11.677 13.3176 11.6046 13.178 11.5573C12.462 11.3307 11.6847 11.4129 10.9756 11.1568C10.6877 11.055 10.4093 10.8627 10.2987 10.5669C10.1444 10.1483 10.2151 9.63055 10.54 9.3099C10.8568 8.99094 11.3142 8.86811 11.749 8.82414V8.82418Z" fill="#8CC84B"/>
</svg>
