<svg width="21" height="21" viewBox="0 0 21 21" fill="none" xmlns="http://www.w3.org/2000/svg">
<path d="M0.619629 8.40576C0.619629 4.63453 0.619629 2.74891 1.7912 1.57733C2.96277 0.405762 4.84839 0.405762 8.61963 0.405762H12.6196C16.3909 0.405762 18.2765 0.405762 19.4481 1.57733C20.6196 2.74891 20.6196 4.63453 20.6196 8.40576V12.4058C20.6196 16.177 20.6196 18.0626 19.4481 19.2342C18.2765 20.4058 16.3909 20.4058 12.6196 20.4058H8.61963C4.84839 20.4058 2.96277 20.4058 1.7912 19.2342C0.619629 18.0626 0.619629 16.177 0.619629 12.4058V8.40576Z" fill="white"/>
<path d="M10.6282 11.4506C11.4133 11.4506 12.0498 10.8164 12.0498 10.034C12.0498 9.25166 11.4133 8.61743 10.6282 8.61743C9.84302 8.61743 9.20654 9.25166 9.20654 10.034C9.20654 10.8164 9.84302 11.4506 10.6282 11.4506Z" fill="#61DAFB"/>
<path d="M10.6282 12.9362C14.8411 12.9362 18.2563 11.6368 18.2563 10.0339C18.2563 8.43099 14.8411 7.13159 10.6282 7.13159C6.41525 7.13159 3 8.43099 3 10.0339C3 11.6368 6.41525 12.9362 10.6282 12.9362Z" stroke="#61DAFB"/>
<path d="M8.10578 11.4852C10.2122 15.1208 13.0492 17.4183 14.4422 16.6169C15.8353 15.8154 15.257 12.2185 13.1505 8.58287C11.044 4.94725 8.20713 2.6497 6.81406 3.45115C5.421 4.25259 5.99932 7.84955 8.10578 11.4852Z" stroke="#61DAFB"/>
<path d="M8.10603 8.58292C5.99957 12.2185 5.42125 15.8155 6.81431 16.6169C8.20737 17.4184 11.0443 15.1208 13.1508 11.4852C15.2572 7.84959 15.8355 4.25264 14.4425 3.4512C13.0494 2.64975 10.2125 4.9473 8.10603 8.58292Z" stroke="#61DAFB"/>
</svg>
