<svg width="21" height="21" viewBox="0 0 21 21" fill="none" xmlns="http://www.w3.org/2000/svg">
<path d="M0.895508 8.40576C0.895508 4.63453 0.895508 2.74891 2.06708 1.57733C3.23865 0.405762 5.12427 0.405762 8.89551 0.405762H12.8955C16.6667 0.405762 18.5524 0.405762 19.7239 1.57733C20.8955 2.74891 20.8955 4.63453 20.8955 8.40576V12.4058C20.8955 16.177 20.8955 18.0626 19.7239 19.2342C18.5524 20.4058 16.6667 20.4058 12.8955 20.4058H8.89551C5.12427 20.4058 3.23865 20.4058 2.06708 19.2342C0.895508 18.0626 0.895508 16.177 0.895508 12.4058V8.40576Z" fill="white"/>
<path d="M13.1432 12.0927C13.5532 12.0503 13.8643 11.6968 13.8501 11.2726C13.836 10.8484 13.4825 10.509 13.0583 10.509H13.0301C12.5917 10.5232 12.2524 10.8908 12.2665 11.3291C12.2807 11.5412 12.3655 11.725 12.4927 11.8523C12.012 12.7997 11.2768 13.4925 10.1739 14.0723C9.42451 14.4682 8.64686 14.6096 7.86921 14.5106C7.23292 14.4258 6.73804 14.143 6.42693 13.6763C5.9745 12.9835 5.9321 12.2341 6.31387 11.4847C6.58253 10.9474 7.00666 10.5514 7.27533 10.3535C7.21877 10.1697 7.13392 9.8586 7.09152 9.63238C5.0413 11.1171 5.25341 13.1249 5.87554 14.0723C6.34212 14.7793 7.28948 15.2176 8.33579 15.2176C8.61856 15.2176 8.90133 15.1893 9.18414 15.1187C10.994 14.7651 12.3655 13.6905 13.1432 12.0927ZM15.6317 10.3394C14.5571 9.08091 12.9735 8.38807 11.1637 8.38807H10.9374C10.8102 8.13355 10.5415 7.96385 10.2446 7.96385H10.2163C9.77802 7.978 9.4387 8.34562 9.45281 8.78399C9.46695 9.20816 9.82043 9.54753 10.2446 9.54753H10.2729C10.5839 9.53338 10.8526 9.33542 10.9657 9.06676H11.2202C12.2948 9.06676 13.3128 9.37782 14.2319 9.98585C14.9389 10.4525 15.4479 11.0605 15.7307 11.7957C15.971 12.3896 15.9569 12.9694 15.7024 13.4643C15.3065 14.2137 14.642 14.6237 13.7653 14.6237C13.1997 14.6237 12.6624 14.454 12.3796 14.3268C12.2241 14.4682 11.9413 14.6944 11.7433 14.8359C12.3514 15.1186 12.9735 15.2742 13.5674 15.2742C14.9247 15.2742 15.9286 14.5247 16.3104 13.7753C16.7204 12.9552 16.6921 11.5412 15.6317 10.3394ZM8.4489 12.333C8.46305 12.7573 8.81652 13.0966 9.2407 13.0966H9.26899C9.70732 13.0825 10.0466 12.7148 10.0325 12.2765C10.0184 11.8523 9.66487 11.5129 9.2407 11.5129H9.21244C9.18414 11.5129 9.14169 11.5129 9.11348 11.527C8.53375 10.5655 8.29338 9.51923 8.37824 8.38802C8.43475 7.53963 8.71756 6.80434 9.21244 6.19632C9.62247 5.67314 10.4143 5.41862 10.9516 5.40452C12.4503 5.37622 13.0866 7.24267 13.129 7.9921C13.3128 8.03451 13.6239 8.13351 13.836 8.20421C13.6663 5.91359 12.2524 4.72583 10.895 4.72583C9.62247 4.72583 8.4489 5.64493 7.98227 7.00235C7.33188 8.81224 7.75606 10.5514 8.54786 11.923C8.4772 12.022 8.43475 12.1775 8.4489 12.3331V12.333Z" fill="#764ABC"/>
</svg>
