<svg width="21" height="21" viewBox="0 0 21 21" fill="none" xmlns="http://www.w3.org/2000/svg">
<path d="M0.171875 8.40576C0.171875 4.63453 0.171875 2.74891 1.34345 1.57733C2.51502 0.405762 4.40064 0.405762 8.17188 0.405762H12.1719C15.9431 0.405762 17.8287 0.405762 19.0003 1.57733C20.1719 2.74891 20.1719 4.63453 20.1719 8.40576V12.4058C20.1719 16.177 20.1719 18.0626 19.0003 19.2342C17.8287 20.4058 15.9431 20.4058 12.1719 20.4058H8.17187C4.40064 20.4058 2.51502 20.4058 1.34345 19.2342C0.171875 18.0626 0.171875 16.177 0.171875 12.4058V8.40576Z" fill="white"/>
<path d="M15.4795 9.86373L15.0131 9.57497C15.0091 9.52964 15.0047 9.48436 14.9998 9.43912L15.4007 9.06521C15.4207 9.04658 15.4357 9.02313 15.444 8.99709C15.4524 8.97105 15.454 8.94329 15.4486 8.91647C15.4434 8.88962 15.4313 8.86458 15.4136 8.84373C15.3959 8.82288 15.3731 8.80692 15.3475 8.79737L14.835 8.60575C14.8222 8.56149 14.8088 8.51739 14.7949 8.47345L15.1146 8.02949C15.1306 8.00729 15.1406 7.98137 15.1438 7.95419C15.147 7.92701 15.1432 7.89947 15.1327 7.87418C15.1222 7.8489 15.1055 7.82671 15.084 7.80972C15.0625 7.79274 15.0371 7.78152 15.0101 7.77714L14.4697 7.68925C14.4487 7.64828 14.4268 7.60792 14.4048 7.5679L14.6318 7.0695C14.6433 7.04464 14.6481 7.01725 14.6459 6.98996C14.6437 6.96268 14.6346 6.93642 14.6193 6.91369C14.6042 6.89089 14.5835 6.87236 14.5591 6.85988C14.5348 6.8474 14.5076 6.84139 14.4803 6.84242L13.9318 6.86152C13.9035 6.82604 13.8746 6.79101 13.8452 6.75644L13.9712 6.22224C13.9775 6.1956 13.9769 6.16778 13.9694 6.14145C13.9619 6.11512 13.9478 6.09114 13.9284 6.07181C13.9091 6.05245 13.8851 6.03836 13.8588 6.03087C13.8325 6.02338 13.8047 6.02274 13.7781 6.02901L13.244 6.15492C13.2094 6.12553 13.1743 6.09665 13.1387 6.06829L13.1579 5.5199C13.1589 5.49256 13.1529 5.46541 13.1405 5.44106C13.128 5.4167 13.1095 5.39595 13.0867 5.38079C13.064 5.36557 13.0377 5.35642 13.0105 5.35421C12.9832 5.35201 12.9558 5.35683 12.9309 5.3682L12.4327 5.59537C12.3925 5.57319 12.352 5.55149 12.3113 5.53027L12.2232 4.98982C12.2188 4.96283 12.2076 4.93742 12.1906 4.91598C12.1736 4.89455 12.1514 4.87781 12.1262 4.86735C12.1009 4.85689 12.0734 4.85305 12.0462 4.8562C12.019 4.85935 11.9931 4.86938 11.9709 4.88535L11.5267 5.20501C11.483 5.19112 11.439 5.17771 11.3946 5.16499L11.203 4.65245C11.1935 4.62677 11.1775 4.60397 11.1567 4.58622C11.1358 4.56847 11.1107 4.55636 11.0839 4.55106C11.0571 4.54578 11.0294 4.54742 11.0034 4.55582C10.9774 4.56422 10.9539 4.5791 10.9353 4.59906L10.5613 5.00023C10.5161 4.99517 10.4708 4.99074 10.4255 4.98695L10.1367 4.52037C10.1224 4.49712 10.1023 4.47794 10.0784 4.46463C10.0545 4.45132 10.0276 4.44434 10.0003 4.44434C9.97292 4.44434 9.94603 4.45132 9.92214 4.46463C9.89826 4.47794 9.87817 4.49712 9.86378 4.52037L9.57502 4.98695C9.52963 4.99073 9.4843 4.99516 9.43904 5.00023L9.06504 4.59906C9.0464 4.57903 9.02294 4.56409 8.9969 4.55568C8.97086 4.54728 8.9431 4.54567 8.91626 4.55102C8.88942 4.55637 8.8644 4.5685 8.84358 4.58625C8.82275 4.60401 8.80682 4.6268 8.79729 4.65245L8.60571 5.16499C8.56131 5.17771 8.51738 5.19121 8.47355 5.20501L8.02936 4.88535C8.00717 4.86931 7.98124 4.85923 7.95404 4.85607C7.92684 4.85292 7.89929 4.8568 7.87402 4.86733C7.84878 4.87782 7.82662 4.89457 7.80964 4.916C7.79267 4.93743 7.78144 4.96284 7.77702 4.98982L7.68891 5.53027C7.64811 5.55141 7.60779 5.57315 7.56756 5.59537L7.06925 5.36816C7.04438 5.35678 7.017 5.35196 6.98974 5.35417C6.96247 5.35638 6.93623 5.36555 6.91352 5.38079C6.89073 5.39594 6.87221 5.41669 6.85973 5.44104C6.84725 5.4654 6.84123 5.49255 6.84225 5.5199L6.86135 6.06829C6.82587 6.0967 6.79077 6.12558 6.75605 6.15492L6.22198 6.02905C6.19534 6.02281 6.16755 6.02346 6.14123 6.03094C6.11491 6.03842 6.09093 6.05248 6.07155 6.07181C6.05217 6.09114 6.03806 6.11512 6.03056 6.14145C6.02307 6.16778 6.02245 6.1956 6.02875 6.22224L6.15458 6.75644C6.12537 6.79103 6.09651 6.82606 6.06816 6.86152L5.51973 6.84242C5.49241 6.84156 5.46533 6.84764 5.44101 6.8601C5.41669 6.87255 5.39593 6.89098 5.38066 6.91365C5.36544 6.93638 5.35629 6.96264 5.35408 6.98991C5.35187 7.01718 5.35668 7.04457 5.36803 7.06946L5.5952 7.5679C5.57311 7.60792 5.55128 7.64828 5.5301 7.68925L4.98978 7.77714C4.96278 7.78155 4.93735 7.79277 4.9159 7.80976C4.89446 7.82675 4.87771 7.84893 4.86725 7.87421C4.85678 7.89949 4.85295 7.92702 4.85611 7.9542C4.85927 7.98137 4.86932 8.00729 4.88531 8.02949L5.20497 8.4735C5.19108 8.51733 5.17758 8.56134 5.16482 8.60575L4.65232 8.79737C4.62673 8.80698 4.60401 8.82297 4.58632 8.84382C4.56863 8.86466 4.55655 8.88968 4.55123 8.9165C4.5459 8.94331 4.54751 8.97105 4.5559 8.99707C4.56428 9.02309 4.57917 9.04654 4.59915 9.06521L5.00007 9.43908C4.99507 9.48422 4.99065 9.52966 4.98683 9.57497L4.52029 9.86373C4.49704 9.87812 4.47786 9.89822 4.46457 9.92211C4.45128 9.946 4.44431 9.97289 4.44434 10.0002C4.44434 10.056 4.47311 10.1076 4.52033 10.1366L4.98683 10.4254C4.99065 10.4708 4.99507 10.5162 5.00007 10.5613L4.59911 10.9353C4.57909 10.9539 4.56417 10.9774 4.55577 11.0034C4.54736 11.0294 4.54575 11.0572 4.55108 11.084C4.55641 11.1108 4.56851 11.1359 4.58623 11.1567C4.60395 11.1775 4.6267 11.1935 4.65232 11.2031L5.16482 11.3947C5.17758 11.439 5.19108 11.4831 5.20497 11.5269L4.88531 11.971C4.86929 11.9932 4.85922 12.0191 4.85605 12.0463C4.85288 12.0735 4.85672 12.101 4.86721 12.1263C4.87769 12.1516 4.89447 12.1738 4.91595 12.1907C4.93742 12.2077 4.96289 12.2189 4.98991 12.2232L5.53014 12.3111C5.55128 12.3521 5.57294 12.3925 5.59525 12.4327L5.36803 12.9309C5.35666 12.9558 5.35184 12.9832 5.35405 13.0105C5.35626 13.0377 5.36543 13.064 5.38066 13.0867C5.39582 13.1095 5.41656 13.128 5.4409 13.1405C5.46525 13.153 5.49239 13.159 5.51973 13.158L6.0679 13.1388C6.09651 13.1744 6.12528 13.2093 6.15458 13.2441L6.02875 13.7784C6.02245 13.805 6.02308 13.8327 6.03057 13.859C6.03806 13.8853 6.05217 13.9092 6.07155 13.9285C6.09087 13.9479 6.11485 13.962 6.14119 13.9695C6.16753 13.9769 6.19535 13.9775 6.22198 13.9712L6.75605 13.8454C6.79078 13.8749 6.82593 13.9035 6.86139 13.9317L6.8423 14.4803C6.84131 14.5076 6.84733 14.5348 6.85979 14.5591C6.87225 14.5835 6.89073 14.6042 6.91348 14.6194C6.93623 14.6346 6.96248 14.6437 6.98974 14.6459C7.01701 14.6481 7.04438 14.6433 7.06925 14.6319L7.56756 14.4048C7.60768 14.4271 7.64813 14.4488 7.68891 14.4699L7.77702 15.01C7.78137 15.0371 7.79257 15.0625 7.80955 15.084C7.82653 15.1054 7.84873 15.1222 7.87402 15.1327C7.8993 15.1431 7.92683 15.147 7.95402 15.1438C7.9812 15.1407 8.00713 15.1307 8.02936 15.1147L8.47333 14.7949C8.51717 14.8087 8.56122 14.8223 8.60558 14.8351L8.7972 15.3474C8.80674 15.3731 8.8227 15.3958 8.84355 15.4135C8.8644 15.4312 8.88945 15.4433 8.9163 15.4486C8.94311 15.454 8.97087 15.4524 8.9969 15.444C9.02293 15.4356 9.04636 15.4207 9.06495 15.4006L9.43895 14.9996C9.48409 15.0048 9.52949 15.0092 9.57493 15.0132L9.86369 15.4797C9.8781 15.5029 9.89818 15.5221 9.92205 15.5354C9.94592 15.5487 9.97279 15.5556 10.0001 15.5557C10.0274 15.5556 10.0543 15.5487 10.0782 15.5354C10.1021 15.5221 10.1222 15.5029 10.1366 15.4797L10.4254 15.0132C10.4708 15.0092 10.5162 15.0048 10.5613 14.9996L10.9352 15.4006C10.9538 15.4206 10.9772 15.4356 11.0032 15.444C11.0292 15.4524 11.057 15.454 11.0838 15.4486C11.1106 15.4433 11.1357 15.4312 11.1565 15.4135C11.1774 15.3958 11.1933 15.373 11.2029 15.3474L11.3945 14.8351C11.4389 14.8223 11.483 14.8087 11.5268 14.7949L11.9709 15.1147C11.9931 15.1307 12.019 15.1407 12.0462 15.1439C12.0733 15.147 12.1009 15.1431 12.1261 15.1327C12.1514 15.1222 12.1736 15.1054 12.1906 15.0839C12.2075 15.0625 12.2187 15.037 12.2231 15.01L12.3112 14.4699C12.352 14.4488 12.3923 14.4268 12.4325 14.4048L12.9308 14.6319C12.9557 14.6433 12.9831 14.6482 13.0104 14.646C13.0376 14.6438 13.0639 14.6347 13.0867 14.6195C13.1094 14.6043 13.1279 14.5835 13.1404 14.5592C13.1528 14.5348 13.1588 14.5077 13.1578 14.4803L13.1387 13.9318C13.1742 13.9035 13.2093 13.8747 13.2439 13.8454L13.778 13.9712C13.8323 13.9839 13.8891 13.9681 13.9283 13.9285C13.9477 13.9092 13.9618 13.8853 13.9693 13.859C13.9768 13.8327 13.9774 13.805 13.9711 13.7784L13.8453 13.2441C13.8746 13.2093 13.9035 13.1744 13.9317 13.1388L14.4801 13.158C14.5075 13.159 14.5346 13.153 14.559 13.1405C14.5833 13.1281 14.6041 13.1096 14.6192 13.0868C14.6345 13.064 14.6436 13.0378 14.6458 13.0105C14.648 12.9832 14.6432 12.9558 14.6317 12.9309L14.4047 12.4327C14.4268 12.3925 14.4486 12.3521 14.4696 12.3112L15.01 12.2232C15.037 12.2189 15.0625 12.2077 15.0839 12.1907C15.1054 12.1737 15.1221 12.1515 15.1325 12.1262C15.143 12.1009 15.1468 12.0734 15.1437 12.0462C15.1405 12.0191 15.1305 11.9932 15.1145 11.971L14.7948 11.527C14.8086 11.4831 14.8221 11.439 14.835 11.3947L15.3474 11.2031C15.373 11.1935 15.3958 11.1775 15.4135 11.1567C15.4312 11.1358 15.4433 11.1108 15.4485 11.0839C15.4539 11.0571 15.4524 11.0294 15.444 11.0033C15.4356 10.9773 15.4206 10.9539 15.4005 10.9353L14.9997 10.5613C15.0046 10.5162 15.009 10.4708 15.013 10.4255L15.4794 10.1366C15.5027 10.1223 15.5219 10.1022 15.5352 10.0783C15.5485 10.0545 15.5555 10.0276 15.5554 10.0002C15.5554 9.94463 15.5268 9.89294 15.4795 9.86373ZM12.3575 13.7333C12.1794 13.6949 12.0661 13.5194 12.1043 13.3407C12.1424 13.1622 12.3179 13.0486 12.4959 13.087C12.6741 13.1252 12.7875 13.3011 12.7493 13.4794C12.7111 13.6578 12.5355 13.7715 12.3575 13.7333ZM12.199 12.6613C12.1603 12.6531 12.1204 12.6525 12.0815 12.6596C12.0427 12.6668 12.0056 12.6815 11.9724 12.703C11.9392 12.7245 11.9106 12.7523 11.8882 12.7849C11.8658 12.8174 11.85 12.8541 11.8418 12.8928L11.6761 13.6656C11.1651 13.8976 10.5976 14.0264 9.99989 14.0264C9.38852 14.0264 8.80866 13.8912 8.28852 13.6494L8.12298 12.8765C8.08817 12.7139 7.92828 12.6103 7.76586 12.6452L7.08357 12.7917C6.95677 12.6612 6.83891 12.5223 6.73079 12.3759H10.0507C10.0882 12.3759 10.1133 12.3691 10.1133 12.3349V11.1606C10.1133 11.1264 10.0882 11.1196 10.0506 11.1196H9.07975V10.3752H10.1299C10.2257 10.3752 10.6424 10.4026 10.7756 10.9352C10.8174 11.099 10.909 11.6318 10.9716 11.8024C11.034 11.9937 11.2882 12.3759 11.559 12.3759H13.2133C13.2321 12.3759 13.2521 12.3738 13.2733 12.3699C13.1585 12.5258 13.0328 12.6733 12.897 12.8113L12.199 12.6613H12.199ZM7.6074 13.7172C7.42923 13.7557 7.25384 13.6421 7.21552 13.4636C7.17741 13.2848 7.29069 13.1093 7.46881 13.0709C7.64698 13.0328 7.82246 13.1464 7.86065 13.3248C7.89876 13.5032 7.78539 13.679 7.60736 13.7172H7.6074ZM6.34798 8.61043C6.4219 8.77719 6.34668 8.97263 6.18014 9.04641C6.01361 9.12042 5.81868 9.04511 5.74481 8.87823C5.6709 8.71134 5.74607 8.51625 5.91265 8.44225C5.95227 8.42467 5.99497 8.41508 6.0383 8.41403C6.08163 8.41297 6.12474 8.42046 6.16517 8.43608C6.2056 8.45169 6.24256 8.47513 6.27393 8.50504C6.3053 8.53495 6.33046 8.57075 6.34798 8.61039V8.61043ZM5.96092 9.52797L6.67168 9.21213C6.74464 9.17967 6.80174 9.11957 6.83042 9.04504C6.8591 8.97051 6.85702 8.88764 6.82463 8.81464L6.67828 8.48365H7.25397V11.0786H6.09247C5.98951 10.7162 5.93742 10.3412 5.9377 9.96438C5.9377 9.8169 5.94564 9.67115 5.96092 9.52792V9.52797ZM9.07993 9.27593V8.51104H10.4508C10.5217 8.51104 10.9508 8.5929 10.9508 8.91382C10.9508 9.18027 10.6217 9.2758 10.351 9.2758H9.07993V9.27593ZM14.0622 9.96438C14.0622 10.0659 14.0585 10.1663 14.0511 10.2659H13.6343C13.5926 10.2659 13.5758 10.2934 13.5758 10.3342V10.5256C13.5758 10.9761 13.3217 11.0741 13.0991 11.0991C12.8871 11.123 12.6521 11.0103 12.6231 10.8806C12.498 10.1772 12.2896 10.027 11.9606 9.76742C12.369 9.50809 12.7939 9.12549 12.7939 8.61334C12.7939 8.06039 12.4148 7.71208 12.1564 7.54129C11.7939 7.30232 11.3925 7.2544 11.2842 7.2544H6.97381C7.55831 6.60206 8.3505 6.13995 9.24646 5.97181L9.75453 6.50479C9.78179 6.5334 9.81443 6.55635 9.85057 6.57233C9.88671 6.58831 9.92565 6.59701 9.96515 6.59792C10.0047 6.59883 10.044 6.59194 10.0808 6.57764C10.1176 6.56335 10.1513 6.54192 10.1798 6.5146L10.7483 5.97085C11.9395 6.19264 12.9481 6.93413 13.5293 7.95145L13.1401 8.83048C13.0729 8.98261 13.1415 9.16052 13.2932 9.22792L14.0425 9.56074C14.0554 9.69377 14.0622 9.82814 14.0622 9.96438ZM9.75475 5.51838C9.88639 5.39229 10.0952 5.39728 10.2212 5.5291C10.347 5.6613 10.3423 5.87033 10.2103 5.99633C10.0787 6.12246 9.86986 6.11755 9.74381 5.98548C9.68342 5.92204 9.65065 5.83723 9.6527 5.74967C9.65476 5.6621 9.69145 5.57892 9.75475 5.51838ZM13.6169 8.62645C13.6344 8.58681 13.6595 8.55101 13.6909 8.5211C13.7223 8.4912 13.7592 8.46777 13.7996 8.45216C13.8401 8.43655 13.8832 8.42907 13.9265 8.43014C13.9698 8.43121 14.0125 8.44081 14.0521 8.45839C14.2187 8.53226 14.2939 8.72762 14.2199 8.89437C14.2024 8.93403 14.1773 8.96985 14.1459 8.99977C14.1146 9.0297 14.0776 9.05314 14.0372 9.06876C13.9967 9.08439 13.9536 9.09188 13.9103 9.09081C13.8669 9.08975 13.8242 9.08015 13.7846 9.06256C13.6182 8.98864 13.5431 8.79346 13.6169 8.62645Z" fill="black"/>
</svg>
