<svg width="21" height="21" viewBox="0 0 21 21" fill="none" xmlns="http://www.w3.org/2000/svg">
<path d="M0.343262 8.40576C0.343262 4.63453 0.343262 2.74891 1.51483 1.57733C2.68641 0.405762 4.57203 0.405762 8.34326 0.405762H12.3433C16.1145 0.405762 18.0001 0.405762 19.1717 1.57733C20.3433 2.74891 20.3433 4.63453 20.3433 8.40576V12.4058C20.3433 16.177 20.3433 18.0626 19.1717 19.2342C18.0001 20.4058 16.1145 20.4058 12.3433 20.4058H8.34326C4.57203 20.4058 2.68641 20.4058 1.51483 19.2342C0.343262 18.0626 0.343262 16.177 0.343262 12.4058V8.40576Z" fill="white"/>
<path d="M4.44434 4.44446H15.5554V15.5556H4.44434V4.44446Z" fill="#017ACB"/>
<path d="M9.7793 8.55904H10.3123V9.47918H8.87132V13.5729L8.83312 13.5833C8.78104 13.5972 8.09527 13.5972 7.9477 13.5816L7.82965 13.5712V9.47918H6.38867V8.55904L6.84527 8.55383C7.09527 8.55036 7.73763 8.55036 8.27236 8.55383C8.80708 8.55731 9.48416 8.55904 9.7793 8.55904ZM13.847 13.1389C13.6352 13.3629 13.4078 13.4879 13.0293 13.5903C12.8644 13.6354 12.8366 13.6372 12.4651 13.6354C12.0935 13.6337 12.064 13.6337 11.8835 13.5868C11.4165 13.467 11.0397 13.2327 10.7828 12.9011C10.7099 12.8073 10.5901 12.6129 10.5901 12.5886C10.5901 12.5816 10.6074 12.566 10.63 12.5556C10.6526 12.5452 10.6994 12.5156 10.7376 12.4931C10.7758 12.4705 10.8453 12.4288 10.8922 12.4045C10.939 12.3802 11.0744 12.3004 11.1925 12.2292C11.3106 12.158 11.4182 12.1007 11.4303 12.1007C11.4425 12.1007 11.4651 12.125 11.4824 12.1545C11.5866 12.3299 11.8297 12.5538 12.0015 12.6302C12.1074 12.6754 12.3418 12.7257 12.4547 12.7257C12.5588 12.7257 12.7498 12.6806 12.8522 12.6337C12.9616 12.5833 13.0172 12.533 13.0831 12.4323C13.1283 12.3611 13.1335 12.342 13.1317 12.2066C13.1317 12.0816 13.1248 12.0469 13.0901 11.9896C12.9929 11.8299 12.8609 11.7465 12.3262 11.5104C11.7741 11.2656 11.5258 11.1198 11.3244 10.9236C11.1751 10.7778 11.1456 10.7379 11.0519 10.5556C10.9303 10.3212 10.9147 10.2448 10.913 9.89585C10.9112 9.65105 10.9165 9.57119 10.9425 9.48786C10.979 9.36286 11.097 9.12154 11.1508 9.06078C11.2619 8.93057 11.3019 8.89064 11.38 8.8264C11.6161 8.63196 11.9842 8.50349 12.3366 8.49133C12.3765 8.49133 12.5085 8.49828 12.6317 8.50696C12.9859 8.53647 13.2272 8.62328 13.4599 8.80904C13.6352 8.94793 13.9008 9.27432 13.8748 9.31772C13.8574 9.34376 13.1647 9.80557 13.1196 9.81946C13.0918 9.82814 13.0727 9.81772 13.0345 9.77258C12.7984 9.4896 12.7029 9.42883 12.4738 9.41494C12.3106 9.40453 12.2238 9.42362 12.1144 9.49654C11.9998 9.57293 11.9442 9.68925 11.9442 9.85071C11.946 10.0868 12.0363 10.1979 12.3696 10.3629C12.5849 10.4688 12.7689 10.5556 12.7828 10.5556C12.8036 10.5556 13.2498 10.7778 13.3661 10.8472C13.9078 11.1649 14.1283 11.4913 14.1856 12.0538C14.2272 12.4774 14.1074 12.8646 13.847 13.1389Z" fill="white"/>
</svg>
