<svg width="32" height="32" viewBox="0 0 32 32" fill="none" xmlns="http://www.w3.org/2000/svg">
<g clip-path="url(#clip0_151_494)">
<path d="M23.3421 27.96C21.926 29.3276 20.3635 29.1144 18.8742 28.4696C17.2908 27.8118 15.8433 27.7702 14.1711 28.4696C12.0887 29.364 10.9835 29.104 9.72932 27.96C2.64857 20.706 3.6937 9.656 11.7412 9.24C13.693 9.344 15.0595 10.3138 16.2091 10.3944C17.9179 10.0486 19.5535 9.058 21.3825 9.188C23.5799 9.3648 25.2234 10.228 26.3208 11.7802C21.8006 14.4842 22.8718 20.4122 27.0236 22.0762C26.1927 24.2472 25.1267 26.3922 23.3395 27.9782L23.3421 27.96ZM16.0524 9.162C15.8407 5.938 18.4666 3.286 21.487 3.026C21.9025 6.744 18.0904 9.526 16.0524 9.162Z" fill="#828282"/>
</g>
<defs>
<clipPath id="clip0_151_494">
<rect width="22" height="26" fill="white" transform="translate(5 3)"/>
</clipPath>
</defs>
</svg>
