<svg width="56" height="56" viewBox="0 0 56 56" fill="none" xmlns="http://www.w3.org/2000/svg">
<path d="M12.13 0.5H43.87C50.2931 0.5 55.5 5.70693 55.5 12.13V43.87C55.5 50.2931 50.2931 55.5 43.87 55.5H12.13C5.70693 55.5 0.5 50.2931 0.5 43.87V12.13C0.5 5.70693 5.70693 0.5 12.13 0.5Z" fill="white" stroke="#E0E0E0"/>
<g clip-path="url(#clip0_404_1178)">
<path opacity="0.902" fill-rule="evenodd" clip-rule="evenodd" d="M19.3671 9.94287C25.3296 9.94287 31.292 9.94287 37.2544 9.94287C38.1064 10.1652 38.8565 10.5843 39.5048 11.2C40.4232 12.6953 41.3273 14.2001 42.2167 15.7143C41.6308 15.7013 41.0538 15.606 40.4857 15.4286C39.8219 14.3807 39.1872 13.3141 38.5815 12.2286C38.2043 11.8419 37.7618 11.5562 37.2544 11.3714C31.292 11.2952 25.3296 11.2952 19.3671 11.3714C18.9734 11.5377 18.6079 11.7472 18.2708 12C17.4772 13.2097 16.7271 14.4478 16.0205 15.7143C15.516 15.8089 15.0159 15.7898 14.5203 15.6572C15.2796 14.2671 16.0682 12.8957 16.886 11.5429C17.5547 10.7435 18.3817 10.2101 19.3671 9.94287Z" fill="#221F1F"/>
<path opacity="0.981" fill-rule="evenodd" clip-rule="evenodd" d="M35.7542 16.6857C37.3746 16.6439 38.9902 16.7011 40.6011 16.8571C43.6498 17.2877 45.7462 18.9068 46.8905 21.7143C47.0689 22.312 47.1651 22.9215 47.179 23.5429C44.9094 23.5429 42.6399 23.5429 40.3703 23.5429C40.2221 22.6146 39.6835 22.0242 38.7547 21.7714C37.7157 21.5103 36.7348 21.6435 35.8119 22.1714C35.4107 22.7239 35.4299 23.2573 35.8696 23.7714C36.2796 24.1079 36.7412 24.3554 37.2544 24.5143C39.8176 25.0821 42.318 25.844 44.7556 26.8C46.7705 27.9701 47.8091 29.7225 47.8714 32.0571C47.6639 36.0348 45.5867 38.4347 41.6397 39.2571C38.7116 39.8694 35.8266 39.717 32.9846 38.8C30.0013 37.5413 28.3857 35.3127 28.1377 32.1143C30.4461 32.0952 32.7541 32.1143 35.0618 32.1714C35.2926 33.3143 35.985 34 37.139 34.2286C38.2141 34.3854 39.2527 34.2711 40.2549 33.8857C40.7703 33.5315 40.9434 33.0554 40.7742 32.4571C40.5108 32.1065 40.1838 31.8208 39.7933 31.6C37.969 30.9959 36.1226 30.4626 34.254 30C29.4057 28.7207 27.6555 25.6921 29.0032 20.9143C29.76 19.3649 30.9332 18.2411 32.523 17.5429C33.5865 17.1465 34.6636 16.8608 35.7542 16.6857Z" fill="#221F1F"/>
<path opacity="0.982" fill-rule="evenodd" clip-rule="evenodd" d="M9.90405 17.1428C15.4818 17.1428 21.0596 17.1428 26.6373 17.1428C26.6373 19.0095 26.6373 20.8762 26.6373 22.7428C23.4445 22.7428 20.2518 22.7428 17.059 22.7428C17.059 23.8476 17.059 24.9523 17.059 26.0571C19.5978 26.0571 22.1366 26.0571 24.6755 26.0571C24.6755 27.8476 24.6755 29.638 24.6755 31.4285C22.1366 31.4285 19.5978 31.4285 17.059 31.4285C17.059 33.9428 17.059 36.4571 17.059 38.9714C14.674 38.9714 12.289 38.9714 9.90405 38.9714C9.90405 31.6952 9.90405 24.4191 9.90405 17.1428Z" fill="#BD1E2C"/>
<path opacity="0.872" fill-rule="evenodd" clip-rule="evenodd" d="M48.6791 27.2C48.6791 27.6952 48.6791 28.1905 48.6791 28.6857C48.5756 28.8112 48.4795 28.8112 48.3906 28.6857C47.5157 27.5248 46.7271 26.3058 46.0249 25.0286C46.5635 24.8762 47.1019 24.8762 47.6405 25.0286C48.0855 25.719 48.4317 26.4427 48.6791 27.2Z" fill="#221F1F"/>
<path opacity="0.788" fill-rule="evenodd" clip-rule="evenodd" d="M7.94238 28.4571C7.94238 28.1142 7.94238 27.7714 7.94238 27.4285C8.03368 26.9881 8.20678 26.569 8.46169 26.1714C8.53863 27.3523 8.53863 28.5333 8.46169 29.7142C8.20678 29.3166 8.03368 28.8976 7.94238 28.4571Z" fill="#221F1F"/>
<path opacity="0.901" fill-rule="evenodd" clip-rule="evenodd" d="M36.9081 45.9429C31.1764 45.9429 25.4448 45.9429 19.7132 45.9429C18.6451 45.7658 17.7411 45.2706 17.0012 44.4572C16.2127 43.1238 15.4241 41.7905 14.6355 40.4572C15.174 40.3048 15.7126 40.3048 16.2511 40.4572C16.9008 41.8022 17.7086 43.0404 18.6746 44.1714C18.9304 44.3172 19.1997 44.4314 19.4824 44.5143C25.3679 44.5905 31.2534 44.5905 37.1389 44.5143C37.643 44.3695 38.0855 44.122 38.466 43.7714C39.0468 42.8338 39.6045 41.8815 40.1393 40.9143C40.6788 40.7999 41.2174 40.6856 41.7549 40.5714C41.8597 40.7189 41.8404 40.8712 41.6972 41.0286C41.0432 42.1334 40.3894 43.2381 39.7354 44.3429C39.0117 45.2815 38.0692 45.8148 36.9081 45.9429Z" fill="#221F1F"/>
</g>
<defs>
<clipPath id="clip0_404_1178">
<rect width="40.7368" height="36" fill="white" transform="translate(8 10)"/>
</clipPath>
</defs>
</svg>
