<svg width="56" height="56" viewBox="0 0 56 56" fill="none" xmlns="http://www.w3.org/2000/svg">
<path d="M0 12.13C0 5.43079 5.43079 0 12.13 0H43.87C50.5692 0 56 5.43079 56 12.13V43.87C56 50.5692 50.5692 56 43.87 56H12.13C5.43079 56 0 50.5692 0 43.87V12.13Z" fill="#13202F"/>
<g clip-path="url(#clip0_0_24)">
<path d="M16.8699 23.9913C16.1039 22.9641 14.5633 22.5336 13.4527 22.5336H9.01523C8.97262 22.5337 8.93065 22.5437 8.89285 22.563C8.85506 22.5823 8.82256 22.6102 8.79809 22.6444C8.77363 22.6786 8.75793 22.7181 8.75231 22.7595C8.7467 22.8009 8.75134 22.843 8.76584 22.8822C9.1473 23.9088 9.93295 25.965 9.93295 28.0103C9.93295 30.1441 9.15467 32.1401 8.77198 33.1432C8.75697 33.1825 8.75192 33.2248 8.75726 33.2664C8.7626 33.3081 8.77817 33.3479 8.80264 33.3823C8.8271 33.4168 8.85973 33.4449 8.89772 33.4643C8.93571 33.4837 8.97793 33.4937 9.02076 33.4936H13.3698C13.4123 33.4931 13.4541 33.4826 13.4916 33.463C13.5291 33.4433 13.5613 33.4152 13.5854 33.3808C13.6094 33.3465 13.6248 33.307 13.63 33.2656C13.6353 33.2242 13.6303 33.1823 13.6155 33.1432C13.3753 32.5152 12.9816 31.4988 12.7199 30.3031C13.868 30.3031 15.5947 30.2242 16.5118 29.3891C17.44 28.5462 17.647 27.6123 17.647 26.7567C17.647 25.9012 17.3896 24.6879 16.8699 23.9913ZM15.7372 27.1619C15.6045 28.8749 12.6861 28.6672 12.4816 28.6533C12.4668 28.4408 12.4588 28.2264 12.4588 28.0103C12.4666 27.2659 12.5537 26.5243 12.7187 25.7976C12.7592 25.6374 12.8053 25.4755 12.8575 25.3159C12.855 25.3141 15.8803 25.3141 15.7372 27.1619Z" fill="white"/>
<path d="M46.6388 26.3244V23.0129C46.6385 22.9764 46.628 22.9407 46.6084 22.9097C46.5888 22.8786 46.5608 22.8535 46.5276 22.8371C46.2076 22.6739 45.1308 22.2145 43.2106 22.3313C40.9279 22.471 39.4819 23.8221 39.4819 25.8283C39.4819 27.8344 41.216 28.454 41.9753 28.7466C42.6897 29.0218 44.7204 29.5528 44.6781 30.2115C44.6394 30.7919 43.5724 30.8738 42.4618 30.5517C41.7216 30.3374 41.3002 30.17 39.8818 29.5348C39.8395 29.516 39.793 29.5078 39.7466 29.5112C39.7002 29.5145 39.6554 29.5292 39.6163 29.5539C39.5772 29.5785 39.5451 29.6124 39.5228 29.6524C39.5005 29.6924 39.4888 29.7373 39.4887 29.7828V33.0835C39.4898 33.1447 39.5123 33.2037 39.5524 33.2506C39.5926 33.2975 39.6479 33.3295 39.7092 33.3412C40.9273 33.5808 42.166 33.7062 43.4084 33.7157C45.5141 33.7157 46.4453 32.6952 46.8704 32.0515C47.3415 31.3441 47.6333 29.4053 46.1241 28.5299C45.1332 27.9537 44.0343 27.6111 43.2284 27.31C42.6553 27.0957 41.982 26.6742 42.0465 26.2263C42.0969 25.8776 42.3973 25.5868 43.0226 25.5296C43.9176 25.4483 45.0792 25.8813 46.2328 26.5658C46.4109 26.6748 46.6388 26.5273 46.6388 26.3244Z" fill="white"/>
<path d="M21.9646 28.0103C21.9646 25.9632 22.7491 23.9088 23.1318 22.8822C23.1463 22.843 23.1509 22.8009 23.1453 22.7595C23.1397 22.7181 23.124 22.6786 23.0995 22.6444C23.075 22.6102 23.0425 22.5823 23.0047 22.563C22.967 22.5437 22.925 22.5337 22.8824 22.5336H18.5241C18.4814 22.5335 18.4394 22.5435 18.4015 22.5627C18.3636 22.582 18.3311 22.6099 18.3066 22.6441C18.2821 22.6784 18.2664 22.7179 18.2609 22.7594C18.2553 22.8008 18.2601 22.843 18.2747 22.8822C18.6556 23.9088 19.4418 25.965 19.4418 28.0103C19.4418 30.1441 18.6642 32.1401 18.2808 33.1432C18.266 33.1825 18.2611 33.2247 18.2665 33.2663C18.2719 33.3079 18.2875 33.3476 18.3119 33.3821C18.3363 33.4165 18.3689 33.4446 18.4068 33.464C18.4447 33.4834 18.4869 33.4936 18.5296 33.4936H22.8781C22.9209 33.4937 22.9631 33.4837 23.0011 33.4643C23.0391 33.4449 23.0717 33.4168 23.0962 33.3823C23.1207 33.3479 23.1362 33.3081 23.1416 33.2664C23.1469 33.2248 23.1419 33.1825 23.1268 33.1432C22.7429 32.1401 21.9646 30.1441 21.9646 28.0103Z" fill="white"/>
<path d="M37.1907 28.0103C37.1907 25.9632 37.9751 23.9082 38.3578 22.8822C38.3724 22.843 38.3772 22.8008 38.3716 22.7594C38.3661 22.7179 38.3504 22.6784 38.3259 22.6441C38.3014 22.6099 38.2689 22.582 38.231 22.5627C38.1931 22.5435 38.1511 22.5335 38.1084 22.5336H33.7507C33.7069 22.5335 33.6637 22.5441 33.6251 22.5645C33.5864 22.5849 33.5536 22.6145 33.5296 22.6504C33.5271 22.6539 33.5242 22.6571 33.521 22.6601L31.3293 25.8139L29.1339 22.6601L29.1253 22.6504C29.1012 22.6145 29.0684 22.5849 29.0298 22.5645C28.9912 22.5441 28.948 22.5335 28.9041 22.5336H24.5471C24.5045 22.5337 24.4625 22.5437 24.4247 22.563C24.3869 22.5823 24.3544 22.6102 24.33 22.6444C24.3055 22.6786 24.2898 22.7181 24.2842 22.7595C24.2786 22.8009 24.2832 22.843 24.2977 22.8822C24.6785 23.9058 25.4648 25.965 25.4648 28.0103C25.4648 30.1441 24.6865 32.1401 24.3038 33.1432C24.2888 33.1825 24.2838 33.2248 24.2891 33.2664C24.2945 33.3081 24.31 33.3479 24.3345 33.3823C24.359 33.4168 24.3916 33.4449 24.4296 33.4643C24.4676 33.4837 24.5098 33.4937 24.5526 33.4936H28.898C28.9405 33.4931 28.9823 33.4826 29.0198 33.463C29.0573 33.4433 29.0895 33.4152 29.1135 33.3808C29.1376 33.3465 29.1529 33.307 29.1582 33.2656C29.1634 33.2242 29.1585 33.1823 29.1437 33.1432C28.7604 32.1401 27.9827 30.1441 27.9827 28.0103C27.9936 27.544 28.0293 27.0785 28.0896 26.6158L31.0547 30.8197C31.0851 30.8613 31.1252 30.8952 31.1717 30.9187C31.2182 30.9421 31.2697 30.9543 31.3219 30.9543C31.3742 30.9543 31.4257 30.9421 31.4721 30.9187C31.5186 30.8952 31.5587 30.8613 31.5891 30.8197L34.5536 26.6158C34.6139 27.0785 34.6496 27.544 34.6605 28.0103C34.6605 30.1441 33.8822 32.1401 33.4995 33.1432C33.4845 33.1825 33.4795 33.2248 33.4848 33.2664C33.4901 33.3081 33.5057 33.3479 33.5302 33.3823C33.5546 33.4168 33.5873 33.4449 33.6252 33.4643C33.6632 33.4837 33.7055 33.4937 33.7483 33.4936H38.0973C38.1399 33.4931 38.1816 33.4826 38.2191 33.463C38.2567 33.4433 38.2888 33.4152 38.3129 33.3808C38.337 33.3465 38.3523 33.307 38.3575 33.2656C38.3628 33.2242 38.3578 33.1823 38.3431 33.1432C37.9683 32.1401 37.1907 30.1441 37.1907 28.0103Z" fill="white"/>
</g>
<defs>
<clipPath id="clip0_0_24">
<rect width="38.5" height="11.4032" fill="white" transform="translate(8.75 22.3125)"/>
</clipPath>
</defs>
</svg>
