<svg width="56" height="56" viewBox="0 0 56 56" fill="none" xmlns="http://www.w3.org/2000/svg">
<rect width="56" height="56" rx="12.13" fill="#06CFFB"/>
<g clip-path="url(#clip0_220_245)">
<circle cx="28.0547" cy="28.0547" r="17.3203" stroke="white" stroke-width="2"/>
<path d="M33.6614 28.0547C33.6614 33.0749 32.9824 37.5991 31.8984 40.851C31.3556 42.4795 30.7202 43.7614 30.039 44.6258C29.3533 45.4959 28.6789 45.875 28.0546 45.875C27.4303 45.875 26.756 45.4959 26.0703 44.6258C25.3891 43.7614 24.7537 42.4795 24.2108 40.851C23.1269 37.5991 22.4479 33.0749 22.4479 28.0547C22.4479 23.0345 23.1269 18.5102 24.2108 15.2584C24.7537 13.6298 25.3891 12.348 26.0703 11.4836C26.756 10.6135 27.4303 10.2344 28.0546 10.2344C28.6789 10.2344 29.3533 10.6135 30.039 11.4836C30.7202 12.348 31.3556 13.6298 31.8984 15.2584C32.9824 18.5102 33.6614 23.0345 33.6614 28.0547Z" stroke="white"/>
<path d="M39.7683 28.0547C39.7683 33.0288 38.4233 37.5093 36.275 40.7318C34.1244 43.9577 31.2082 45.875 28.0547 45.875C24.9012 45.875 21.9851 43.9577 19.8345 40.7318C17.6862 37.5093 16.3412 33.0288 16.3412 28.0547C16.3412 23.0806 17.6862 18.6001 19.8345 15.3776C21.9851 12.1517 24.9012 10.2344 28.0547 10.2344C31.2082 10.2344 34.1244 12.1517 36.275 15.3776C38.4233 18.6001 39.7683 23.0806 39.7683 28.0547Z" stroke="white"/>
<path d="M28.0547 22.4479C33.0749 22.4479 37.5991 23.1269 40.851 24.2109C42.4795 24.7537 43.7614 25.3891 44.6258 26.0704C45.4959 26.7561 45.875 27.4304 45.875 28.0547C45.875 28.679 45.4959 29.3533 44.6258 30.039C43.7614 30.7203 42.4795 31.3556 40.851 31.8985C37.5991 32.9824 33.0749 33.6615 28.0547 33.6615C23.0345 33.6615 18.5102 32.9824 15.2584 31.8985C13.6298 31.3556 12.348 30.7203 11.4836 30.039C10.6135 29.3533 10.2344 28.679 10.2344 28.0547C10.2344 27.4304 10.6135 26.7561 11.4836 26.0704C12.348 25.3891 13.6298 24.7537 15.2584 24.2109C18.5102 23.1269 23.0345 22.4479 28.0547 22.4479Z" stroke="white"/>
<path d="M28.0547 16.3411C33.0288 16.3411 37.5093 17.6861 40.7318 19.8344C43.9577 21.985 45.875 24.9012 45.875 28.0547C45.875 31.2082 43.9577 34.1243 40.7318 36.2749C37.5093 38.4232 33.0288 39.7682 28.0547 39.7682C23.0806 39.7682 18.6001 38.4232 15.3776 36.2749C12.1517 34.1243 10.2344 31.2082 10.2344 28.0547C10.2344 24.9012 12.1517 21.985 15.3776 19.8344C18.6001 17.6861 23.0806 16.3411 28.0547 16.3411Z" stroke="white"/>
</g>
<defs>
<clipPath id="clip0_220_245">
<rect width="36.6406" height="36.6406" fill="white" transform="translate(9.73438 9.73438)"/>
</clipPath>
</defs>
</svg>
