<svg width="58" height="58" viewBox="0 0 58 58" fill="none" xmlns="http://www.w3.org/2000/svg">
<rect x="1" y="1" width="56" height="56" rx="12.1333" fill="white"/>
<path fill-rule="evenodd" clip-rule="evenodd" d="M23.7829 12.9438C21.8064 13.6017 20.3692 14.3446 18.7015 15.5783C17.6458 16.394 16.8417 17.1616 15.9807 18.1752C16.1095 17.8418 16.2496 17.5129 16.4009 17.1884C17.0462 16.5086 17.7453 15.8805 18.4917 15.31C20.4938 13.8344 22.2186 13.0076 24.628 12.3475C26.5809 11.8676 28.1495 11.7166 30.1581 11.8279C28.1604 11.8231 26.6131 12.0519 24.7022 12.6267C24.3909 12.7249 24.0883 12.8291 23.7829 12.9438V12.9438ZM10.0409 29.9636C10.1331 31.2147 10.3106 32.2814 10.6252 33.4969C11.364 36.1165 12.2909 37.9934 13.9424 40.1703C15.5922 42.2195 17.1357 43.5559 19.4073 44.9073C21.7166 46.1959 23.6553 46.8663 26.2758 47.2785C29.0108 47.6293 31.1239 47.5051 33.8031 46.8549C35.1412 46.4884 36.2881 46.0748 37.379 45.5475C37.2663 45.4799 37.1562 45.4087 37.0488 45.3339C35.9361 45.8516 34.9251 46.2148 33.7182 46.5359C31.0871 47.174 29.0105 47.2968 26.324 46.9521C23.7499 46.5474 21.845 45.8883 19.5768 44.6227C17.3453 43.295 15.8288 41.9824 14.2076 39.9687C12.5853 37.8302 11.6751 35.9865 10.9493 33.4131C10.4832 31.5823 10.3069 30.087 10.3438 28.1999C10.2129 28.7823 10.1118 29.3708 10.0411 29.9632L10.0409 29.9636ZM12.6437 21.1381C11.8349 22.8708 11.3895 24.3216 11.0909 26.2067C10.7517 28.7736 10.8722 30.758 11.5004 33.272C11.8117 34.411 12.1654 35.3686 12.6725 36.437C12.1829 35.363 11.8448 34.4006 11.5512 33.2587C10.9654 30.7502 10.876 28.7759 11.2552 26.2301C11.6871 23.806 12.3551 22.018 13.6197 19.8963C14.3112 18.7912 14.986 17.9156 15.881 16.9632C16.5808 16.2099 17.3444 15.5168 18.1634 14.8911C20.2277 13.3696 22.0073 12.5163 24.4914 11.8357C26.7347 11.2875 28.5183 11.1471 30.8199 11.3532C28.5143 11.111 26.7248 11.2258 24.4666 11.7423C21.9511 12.3921 20.1434 13.2271 18.0374 14.7296C16.0421 16.2425 14.7355 17.6669 13.4024 19.7708C13.1271 20.2222 12.8812 20.6657 12.6434 21.1378L12.6437 21.1381ZM10.4812 27.8906C10.5589 27.3007 10.6581 26.7444 10.7896 26.1638C10.9798 25.3399 11.2266 24.5297 11.5283 23.7389C11.2922 24.5437 11.1113 25.3632 10.987 26.192C10.6457 28.7738 10.767 30.7695 11.3987 33.2981C11.7434 34.5559 12.1362 35.5919 12.7165 36.7625C13.2598 37.8511 13.8096 38.7408 14.5417 39.7161C16.1051 41.7066 17.5763 43.0097 19.7462 44.3362C21.9639 45.6085 23.8302 46.2779 26.3597 46.706C29.0127 47.0795 31.0666 46.9809 33.6757 46.3791C34.831 46.0863 35.809 45.7507 36.8972 45.2698C35.8134 45.7638 34.8388 46.1103 33.6856 46.4171C31.0723 47.0514 29.0094 47.1729 26.3412 46.8304C23.7839 46.4283 21.8922 45.7739 19.6392 44.5167C17.4228 43.1981 15.9163 41.8942 14.3066 39.8946C12.6958 37.7706 11.791 35.9389 11.0693 33.3831C10.5786 31.449 10.4073 29.8828 10.4802 27.8907L10.4812 27.8906ZM12.6301 29.7962C12.7091 30.8776 12.8632 31.799 13.1347 32.8498C13.7725 35.1115 14.5717 36.7312 15.9973 38.6107C17.4215 40.3798 18.7553 41.5341 20.7165 42.7007C22.7099 43.8124 24.3846 44.3921 26.6466 44.748C29.0078 45.0511 30.8314 44.9431 33.1441 44.3816C33.9704 44.1553 34.7121 43.9083 35.4122 43.6189C35.473 43.7159 35.5367 43.8111 35.6032 43.9046C34.8345 44.2294 34.0872 44.4805 33.2313 44.7088C30.8703 45.2818 29.008 45.3921 26.5973 45.0824C24.2872 44.7192 22.5777 44.1276 20.5425 42.9918C18.5402 41.8006 17.1788 40.6223 15.7245 38.8161C14.2687 36.8972 13.4529 35.2434 12.8016 32.9343C12.3836 31.291 12.2248 29.9496 12.2581 28.2559C12.3564 28.7747 12.4802 29.2878 12.6295 29.795L12.6301 29.7962ZM13.3341 21.4593C13.5475 20.9999 13.7698 20.5675 14.0203 20.1263C15.2429 18.0548 16.4634 16.6414 18.3444 15.1217C20.3561 13.588 22.0986 12.7198 24.5384 12.0113C26.7565 11.4336 28.5239 11.2674 30.8114 11.4353C28.5216 11.2305 26.7461 11.3703 24.5131 11.9158C22.0413 12.5931 20.2697 13.4425 18.2155 14.9567C17.4005 15.5794 16.6406 16.2692 15.9441 17.0187C15.0877 17.9916 14.4475 18.8807 13.7979 19.9982C12.6254 22.121 12.025 23.8962 11.6785 26.2899C11.3943 28.7699 11.5418 30.6793 12.187 33.0937C12.5038 34.1824 12.858 35.095 13.3623 36.1123C12.8762 35.0886 12.5378 34.1718 12.2393 33.0803C11.6376 30.6721 11.522 28.7727 11.8469 26.3138C12.133 24.5083 12.5596 23.1191 13.3343 21.4593H13.3341ZM12.1404 27.9669C12.074 29.7805 12.2301 31.2061 12.6774 32.9672C13.3337 35.2943 14.1558 36.9604 15.6228 38.8944C17.0885 40.7156 18.46 41.9018 20.478 43.1023C22.5292 44.247 24.2513 44.843 26.5797 45.2091C29.0091 45.5204 30.8854 45.4097 33.2648 44.8322C34.1321 44.602 34.8885 44.3465 35.6809 44.011L35.6854 44.0169C34.895 44.3634 34.1406 44.6291 33.2744 44.8707C30.891 45.481 29.0059 45.616 26.5606 45.3348C24.2036 44.9951 22.4564 44.4145 20.3691 43.2849C18.3043 42.0923 16.8965 40.9042 15.3845 39.0748C14.67 38.172 14.1304 37.3462 13.5915 36.3319C13.0422 35.2238 12.6709 34.2438 12.344 33.0529C11.7461 30.66 11.6312 28.7725 11.9539 26.3288C12.2197 24.6445 12.6096 23.3325 13.3062 21.7727C12.698 23.3572 12.3795 24.679 12.2058 26.3644C12.1584 26.9059 12.1373 27.4229 12.1397 27.9661L12.1404 27.9669ZM10.153 26.3792C10.0526 27.1515 10.0015 27.9292 10 28.7078C10.1113 28.1334 10.2512 27.5654 10.4196 27.0038C10.4488 26.709 10.4842 26.4191 10.5268 26.126C10.9374 23.5888 11.6059 21.7112 12.8899 19.4754C14.237 17.2759 15.5687 15.7812 17.6117 14.1832C19.3559 12.8913 20.8619 12.095 22.9177 11.372C20.8449 12.0646 19.3213 12.8393 17.5505 14.1066C15.4652 15.6851 14.0986 17.1721 12.7044 19.3677C11.3646 21.6156 10.657 23.5096 10.1992 26.078C10.1828 26.1782 10.1673 26.2782 10.1526 26.3781L10.153 26.3792ZM30.5263 10.9927C28.3014 10.8328 26.5719 10.9844 24.4066 11.5152C21.8758 12.2085 20.0621 13.0783 17.9591 14.6282C17.2635 15.1598 16.6067 15.7388 15.9935 16.3611C16.614 15.7469 17.2775 15.1765 17.9791 14.6539C20.093 13.1374 21.9091 12.2931 24.438 11.6332C26.9727 11.0504 28.968 10.9567 31.5443 11.3219C33.9997 11.7392 35.8119 12.3909 37.9636 13.628C38.6949 14.0649 39.3948 14.5509 40.0584 15.0824C41.2382 16.0252 42.1167 16.9045 43.0543 18.0828C44.5979 20.1176 45.4636 21.8715 46.1541 24.3199C45.4987 21.8541 44.6565 20.082 43.1407 18.0173C41.6144 16.0615 40.1767 14.7797 38.054 13.4731C35.8828 12.2178 34.053 11.555 31.5722 11.1272C31.2226 11.0724 30.8785 11.0282 30.5263 10.9924V10.9927ZM23.2714 11.386C21.0998 12.1088 19.5201 12.9249 17.6876 14.2811C16.5279 15.1771 15.6443 16.0209 14.6984 17.1342C15.0205 16.923 15.3493 16.7221 15.6846 16.5316C16.3669 15.813 17.1062 15.1491 17.8954 14.5462C20.0115 12.9869 21.835 12.1123 24.3805 11.4148C25.5166 11.1293 26.5203 10.9634 27.6889 10.8722C26.5032 10.8734 25.4824 10.964 24.3148 11.1679C23.9631 11.2324 23.62 11.3043 23.2725 11.3858L23.2714 11.386ZM12.7269 26.704C12.7365 26.6172 12.7471 26.5305 12.7585 26.444C13.0785 24.1982 13.6386 22.5309 14.7341 20.5373C15.8941 18.5605 17.0537 17.2105 18.8423 15.7578C20.3798 14.5727 21.7133 13.8375 23.5399 13.1584C21.6965 13.8067 20.3449 14.5204 18.781 15.68C16.9484 17.1132 15.7531 18.4551 14.5446 20.4288C13.3918 22.435 12.7917 24.1196 12.4234 26.3966C12.3827 26.6785 12.3494 26.957 12.3222 27.2401C12.3892 27.7472 12.4803 28.2505 12.5956 28.7499C12.5952 28.0662 12.6393 27.3831 12.7276 26.7048L12.7269 26.704ZM30.4611 11.7429C30.7995 11.7666 31.1305 11.7986 31.4672 11.8403C33.8734 12.18 35.6591 12.7676 37.7928 13.9139C39.9063 15.1262 41.3485 16.3364 42.899 18.2011C44.4642 20.1951 45.3499 21.9224 46.0727 24.342C45.3855 21.9054 44.5239 20.1595 42.9878 18.1346C42.0539 16.9618 41.1796 16.0869 40.005 15.148C39.3322 14.6369 38.6244 14.1721 37.8867 13.7569C35.7324 12.5918 33.9288 11.9929 31.4966 11.6428C28.9727 11.3533 27.0275 11.4929 24.5681 12.1232C22.1412 12.8216 20.4078 13.6797 18.4046 15.1992C17.7448 15.7175 17.1227 16.2809 16.5429 16.885C17.1302 16.2892 17.7592 15.7347 18.4253 15.2256C20.44 13.7407 22.176 12.9084 24.5998 12.2443C26.6746 11.7351 28.3299 11.5897 30.4614 11.7429H30.4611Z" fill="#48C57D"/>
<path fill-rule="evenodd" clip-rule="evenodd" d="M34.2171 12.0716C36.1936 12.7295 37.6308 13.4724 39.2985 14.7061C40.3542 15.5218 41.1583 16.2894 42.0193 17.303C41.8905 16.9696 41.7504 16.6407 41.5991 16.3162C40.9538 15.6364 40.2547 15.0083 39.5083 14.4378C37.5062 12.9622 35.7814 12.1354 33.372 11.4753C31.4191 10.9954 29.8505 10.8444 27.8419 10.9557C29.8396 10.9509 31.3869 11.1797 33.2978 11.7545C33.6091 11.8527 33.9117 11.9569 34.2171 12.0716V12.0716ZM47.9591 29.0914C47.8669 30.3425 47.6894 31.4092 47.3748 32.6247C46.636 35.2443 45.7091 37.1212 44.0576 39.2981C42.4078 41.3473 40.8643 42.6837 38.5927 44.0351C36.2834 45.3237 34.3447 45.9941 31.7242 46.4063C28.9892 46.7571 26.8761 46.6329 24.1969 45.9828C22.8588 45.6162 21.7119 45.2026 20.621 44.6753C20.7337 44.6077 20.8438 44.5365 20.9512 44.4617C22.0639 44.9794 23.0749 45.3426 24.2818 45.6637C26.9129 46.3018 28.9895 46.4246 31.676 46.0799C34.2501 45.6752 36.155 45.0162 38.4232 43.7505C40.6547 42.4228 42.1712 41.1102 43.7924 39.0965C45.4147 36.958 46.3249 35.1143 47.0507 32.5409C47.5168 30.7102 47.6931 29.2148 47.6562 27.3277C47.7871 27.9101 47.8882 28.4986 47.9589 29.0911L47.9591 29.0914ZM45.3563 20.2659C46.1651 21.9986 46.6105 23.4494 46.9091 25.3345C47.2483 27.9014 47.1278 29.8858 46.4996 32.3998C46.1883 33.5388 45.8346 34.4964 45.3275 35.5648C45.8171 34.4908 46.1552 33.5284 46.4488 32.3865C47.0346 29.878 47.124 27.9037 46.7448 25.3579C46.3129 22.9338 45.6449 21.1458 44.3803 19.0241C43.6888 17.919 43.014 17.0434 42.119 16.091C41.4192 15.3377 40.6556 14.6446 39.8366 14.0189C37.7723 12.4974 35.9927 11.6442 33.5086 10.9635C31.2653 10.4153 29.4817 10.2749 27.1801 10.481C29.4857 10.2388 31.2752 10.3536 33.5334 10.8701C36.0489 11.5199 37.8566 12.3549 39.9626 13.8574C41.9579 15.3703 43.2645 16.7947 44.5976 18.8986C44.8729 19.35 45.1188 19.7935 45.3566 20.2656L45.3563 20.2659ZM47.5188 27.0184C47.4411 26.4285 47.3419 25.8722 47.2104 25.2916C47.0202 24.4677 46.7734 23.6575 46.4717 22.8667C46.7078 23.6715 46.8887 24.491 47.013 25.3198C47.3543 27.9016 47.233 29.8973 46.6013 32.4259C46.2566 33.6837 45.8638 34.7198 45.2835 35.8903C44.7402 36.9789 44.1904 37.8686 43.4583 38.8439C41.8949 40.8344 40.4237 42.1375 38.2538 43.464C36.0361 44.7363 34.1698 45.4057 31.6403 45.8338C28.9873 46.2074 26.9334 46.1087 24.3243 45.5069C23.169 45.2141 22.191 44.8786 21.1028 44.3976C22.1866 44.8916 23.1612 45.2381 24.3144 45.5449C26.9277 46.1792 28.9906 46.3008 31.6588 45.9582C34.2161 45.5561 36.1078 44.9017 38.3608 43.6445C40.5772 42.3259 42.0837 41.022 43.6934 39.0225C45.3042 36.8984 46.209 35.0667 46.9307 32.5109C47.4214 30.5768 47.5927 29.0106 47.5198 27.0186L47.5188 27.0184ZM45.3699 28.924C45.2909 30.0054 45.1368 30.9268 44.8653 31.9776C44.2275 34.2393 43.4283 35.859 42.0027 37.7385C40.5785 39.5076 39.2447 40.6619 37.2835 41.8286C35.2901 42.9402 33.6154 43.5199 31.3534 43.8758C28.9922 44.1789 27.1686 44.0709 24.8559 43.5094C24.0296 43.2831 23.2879 43.0361 22.5878 42.7467C22.527 42.8437 22.4633 42.9389 22.3968 43.0324C23.1655 43.3572 23.9128 43.6083 24.7687 43.8366C27.1297 44.4096 28.992 44.5199 31.4027 44.2102C33.7128 43.847 35.4223 43.2554 37.4575 42.1196C39.4598 40.9284 40.8212 39.7501 42.2755 37.9439C43.7313 36.0251 44.5471 34.3713 45.1984 32.0622C45.6164 30.4188 45.7752 29.0774 45.7419 27.3837C45.6436 27.9026 45.5198 28.4156 45.3705 28.9228L45.3699 28.924ZM44.6659 20.5872C44.4525 20.1277 44.2302 19.6953 43.9797 19.2541C42.7571 17.1826 41.5366 15.7693 39.6556 14.2495C37.6439 12.7158 35.9014 11.8476 33.4616 11.1391C31.2435 10.5614 29.4761 10.3952 27.1886 10.5631C29.4784 10.3583 31.2539 10.4981 33.4869 11.0436C35.9587 11.7209 37.7303 12.5703 39.7845 14.0845C40.5995 14.7072 41.3594 15.397 42.0559 16.1466C42.9123 17.1194 43.5525 18.0085 44.2021 19.126C45.3746 21.2488 45.975 23.024 46.3215 25.4177C46.6057 27.8977 46.4582 29.8071 45.813 32.2215C45.4962 33.3102 45.142 34.2228 44.6377 35.2401C45.1238 34.2164 45.4622 33.2996 45.7607 32.2082C46.3624 29.7999 46.478 27.9005 46.1531 25.4416C45.867 23.6361 45.4404 22.2469 44.6657 20.5872H44.6659ZM45.8596 27.0947C45.926 28.9083 45.7699 30.3339 45.3226 32.095C44.6663 34.4221 43.8442 36.0883 42.3772 38.0222C40.9115 39.8434 39.54 41.0296 37.522 42.2301C35.4708 43.3748 33.7487 43.9708 31.4203 44.3369C28.9909 44.6482 27.1146 44.5375 24.7352 43.9601C23.8679 43.7298 23.1115 43.4743 22.3191 43.1388L22.3146 43.1447C23.105 43.4912 23.8594 43.7569 24.7256 43.9985C27.109 44.6088 28.9941 44.7438 31.4394 44.4627C33.7964 44.1229 35.5436 43.5423 37.6309 42.4127C39.6957 41.2201 41.1035 40.032 42.6155 38.2026C43.33 37.2998 43.8696 36.474 44.4085 35.4597C44.9578 34.3516 45.3291 33.3717 45.656 32.1808C46.2539 29.7878 46.3688 27.9003 46.0461 25.4566C45.7803 23.7723 45.3904 22.4603 44.6938 20.9005C45.302 22.485 45.6205 23.8068 45.7942 25.4922C45.8416 26.0337 45.8627 26.5507 45.8603 27.0939L45.8596 27.0947ZM47.847 25.507C47.9474 26.2793 47.9985 27.057 48 27.8356C47.8887 27.2612 47.7488 26.6932 47.5804 26.1316C47.5512 25.8368 47.5158 25.5469 47.4732 25.2538C47.0626 22.7166 46.3941 20.839 45.1101 18.6032C43.763 16.4037 42.4313 14.909 40.3883 13.311C38.6441 12.0191 37.1381 11.2228 35.0823 10.4998C37.1551 11.1925 38.6787 11.9671 40.4495 13.2345C42.5348 14.8129 43.9014 16.2999 45.2956 18.4955C46.6354 20.7434 47.343 22.6374 47.8008 25.2058C47.8172 25.306 47.8327 25.406 47.8474 25.5059L47.847 25.507ZM27.4737 10.1205C29.6986 9.96062 31.4281 10.1122 33.5934 10.643C36.1242 11.3363 37.9379 12.2061 40.0409 13.756C40.7365 14.2876 41.3933 14.8666 42.0065 15.4889C41.386 14.8748 40.7225 14.3043 40.0209 13.7817C37.907 12.2652 36.0909 11.4209 33.562 10.761C31.0273 10.1782 29.032 10.0845 26.4557 10.4497C24.0003 10.867 22.1881 11.5187 20.0364 12.7558C19.3051 13.1927 18.6052 13.6787 17.9416 14.2102C16.7618 15.153 15.8833 16.0323 14.9457 17.2106C13.4021 19.2454 12.5364 20.9993 11.8459 23.4477C12.5013 20.9819 13.3435 19.2098 14.8593 17.1451C16.3856 15.1893 17.8233 13.9075 19.946 12.6009C22.1172 11.3456 23.947 10.6828 26.4278 10.255C26.7774 10.2002 27.1215 10.156 27.4737 10.1202V10.1205ZM34.7286 10.5138C36.9002 11.2367 38.4799 12.0527 40.3124 13.4089C41.4721 14.3049 42.3557 15.1487 43.3016 16.262C42.9795 16.0508 42.6507 15.8499 42.3154 15.6594C41.6331 14.9408 40.8938 14.2769 40.1046 13.674C37.9885 12.1147 36.165 11.2401 33.6195 10.5426C32.4834 10.2571 31.4797 10.0912 30.3111 10C31.4968 10.0012 32.5176 10.0918 33.6852 10.2957C34.0369 10.3602 34.38 10.4321 34.7275 10.5137L34.7286 10.5138ZM45.2731 25.8319C45.2635 25.745 45.2529 25.6583 45.2415 25.5718C44.9215 23.326 44.3614 21.6587 43.2659 19.6651C42.1059 17.6883 40.9463 16.3383 39.1577 14.8856C37.6202 13.7005 36.2867 12.9653 34.4601 12.2862C36.3035 12.9345 37.6551 13.6482 39.219 14.8078C41.0516 16.241 42.2469 17.5829 43.4554 19.5566C44.6082 21.5628 45.2083 23.2474 45.5766 25.5244C45.6173 25.8063 45.6506 26.0848 45.6778 26.3679C45.6108 26.875 45.5197 27.3783 45.4044 27.8777C45.4048 27.194 45.3607 26.5109 45.2724 25.8326L45.2731 25.8319ZM27.5389 10.8707C27.2005 10.8944 26.8695 10.9264 26.5328 10.9682C24.1266 11.3078 22.3409 11.8954 20.2072 13.0418C18.0937 14.254 16.6515 15.4642 15.101 17.3289C13.5358 19.3229 12.6501 21.0502 11.9273 23.4698C12.6145 21.0333 13.4761 19.2873 15.0122 17.2624C15.9461 16.0896 16.8204 15.2147 17.995 14.2758C18.6678 13.7647 19.3756 13.2999 20.1133 12.8847C22.2676 11.7196 24.0712 11.1207 26.5034 10.7706C29.0273 10.4811 30.9725 10.6207 33.4319 11.251C35.8588 11.9494 37.5922 12.8075 39.5954 14.327C40.2552 14.8453 40.8773 15.4087 41.4571 16.0128C40.8698 15.417 40.2408 14.8625 39.5747 14.3534C37.56 12.8685 35.824 12.0362 33.4002 11.3721C31.3254 10.8629 29.6701 10.7176 27.5386 10.8707H27.5389Z" fill="#48C57D"/>
<path d="M45.4513 28.4674C45.4513 37.6441 38.0842 45.0833 28.9963 45.0833C19.9084 45.0833 12.5413 37.6441 12.5413 28.4674C12.5413 19.2907 19.9084 11.8516 28.9963 11.8516C38.0842 11.8516 45.4513 19.2907 45.4513 28.4674Z" fill="#48C57D"/>
<path d="M28.4849 19.3888C28.9157 19.5827 29.3398 19.7696 29.7571 19.9496C30.2417 20.185 30.585 20.5035 30.7869 20.9051C30.5312 21.1405 30.2889 21.7151 30.06 22.629C29.8446 23.446 29.7369 24.0899 29.7369 24.5607L29.9994 24.623L31.6956 24.3115C31.911 23.8961 32.2005 23.6884 32.5639 23.6884C32.5639 23.6884 32.6784 23.716 32.9072 23.7714C33.1495 23.716 33.2842 23.6884 33.3111 23.6884C33.3919 23.6884 33.5399 23.7437 33.7553 23.8545C33.9707 23.9515 34.1794 23.9861 34.3813 23.9584C34.6371 24.1661 34.8929 24.3738 35.1487 24.5815C35.4044 24.7892 35.5458 25.08 35.5727 25.4539C35.3439 25.7308 35.1419 25.8693 34.9669 25.8693C34.6977 25.8693 34.2804 25.807 33.7149 25.6823C33.163 25.5577 32.7457 25.4954 32.463 25.4954C31.211 25.4954 30.4369 25.5854 30.1408 25.7654C30.2754 26.3193 30.9014 27.1848 32.0187 28.3618C32.7053 29.1095 33.7755 30.0027 35.2294 31.0412C36.8179 32.2044 37.9084 33.0629 38.5007 33.6168V34.053H38.3594L38.2786 34.0945L38.1978 34.1776L38.2382 34.323H37.8747C37.6862 34.5584 37.0872 34.6761 36.0775 34.6761C35.4179 34.6761 34.8458 34.4614 34.3611 34.0322C34.0246 33.7414 33.6746 33.2983 33.3111 32.7029C32.7457 31.7751 32.4428 31.2835 32.4024 31.2281C31.7966 30.5081 30.935 29.3795 29.8177 27.8425L29.6359 28.4449C29.7033 28.8326 29.7369 29.0264 29.7369 29.0264C29.7369 29.0957 29.7167 29.2064 29.6763 29.3588C29.6494 29.4972 29.6359 29.6011 29.6359 29.6703C29.6359 30.3488 29.6898 30.7712 29.7975 30.9373L29.6359 31.7059C29.8244 32.3567 29.9186 33.5822 29.9186 35.3823C29.9186 35.4515 29.9254 35.5623 29.9388 35.7146C29.9658 35.8669 29.9792 35.9846 29.9792 36.0677C29.9792 36.857 29.7369 37.5355 29.2523 38.1032L28.8888 38.0617C28.5657 37.7294 28.3436 37.2586 28.2224 36.6493C28.1147 36.1231 28.007 35.6038 27.8993 35.0915C28.1282 34.5791 28.2426 33.9837 28.2426 33.3052C28.2426 33.236 28.2494 33.1321 28.2628 32.9936C28.2897 32.8413 28.3032 32.7305 28.3032 32.6613C28.3032 31.8305 28.3099 30.9997 28.3234 30.1688C28.3099 28.6872 28.2426 27.8633 28.1215 27.6971C27.2195 28.9295 26.3108 30.1481 25.3954 31.3528C24.305 32.7513 23.1472 33.6999 21.9222 34.1983L21.6395 34.0945C21.0472 34.1499 20.7308 34.1776 20.6904 34.1776C20.5962 34.1776 20.4548 34.1499 20.2664 34.0945C20.0914 34.0253 19.9635 33.9906 19.8827 33.9906C19.8827 33.9906 19.7548 34.0183 19.499 34.0737C20.7779 33.3952 22.1914 32.3151 23.7396 30.8335C25.3416 29.2826 26.4387 27.884 27.031 26.6378C26.3041 26.6655 25.4492 26.9424 24.4665 27.4686L24.0021 28.1333C23.9617 28.1471 23.928 28.1471 23.9011 28.1333C23.753 28.0779 23.5309 27.9948 23.2347 27.884C23.1674 27.6071 22.979 27.3025 22.6693 26.9701C22.3732 26.6378 22.2184 26.4024 22.2049 26.2639L22.4068 25.5785L23.3963 25.9939C24.4463 25.7585 26.0281 25.3639 28.1417 24.81C28.209 22.359 28.2426 21.2651 28.2426 21.5282C28.2426 21.002 27.8993 20.5727 27.2128 20.2404C27.3339 20.1573 27.3945 20.0466 27.3945 19.9081L27.3339 19.8458C27.7647 19.5273 28.0878 19.368 28.3032 19.368L28.4849 19.3888Z" fill="white"/>
<rect x="1" y="1" width="56" height="56" rx="12.1333" stroke="#E0E0E0"/>
</svg>
