<svg viewBox="0 0 345 97" fill="none" xmlns="http://www.w3.org/2000/svg">
<path d="M70.5 84.9865V11H92.0744C97.4776 11 102.12 11.9122 106.001 13.7365C109.958 15.5608 113.002 18.1284 115.133 21.4392C117.34 24.75 118.443 28.6689 118.443 33.1959V62.6892C118.443 67.2162 117.34 71.1689 115.133 74.5473C113.002 77.8581 109.958 80.4257 106.001 82.25C102.12 84.0743 97.4776 84.9865 92.0744 84.9865H70.5ZM80.7735 76.8784H92.0744C97.0971 76.8784 101.016 75.6284 103.832 73.1284C106.724 70.6284 108.17 67.1486 108.17 62.6892V33.1959C108.17 28.8041 106.724 25.3581 103.832 22.8581C101.016 20.3581 97.0971 19.1081 92.0744 19.1081H80.7735V76.8784Z" fill="#040404"/>
<path d="M156.981 86C149.219 86 143.283 84.1081 139.174 80.3243C135.065 76.473 133.01 71.2703 133.01 64.7162V11H143.283V64.7162C143.283 68.7703 144.387 71.9797 146.594 74.3446C148.877 76.7095 152.339 77.8919 156.981 77.8919C161.548 77.8919 164.972 76.7095 167.255 74.3446C169.538 71.9797 170.68 68.7703 170.68 64.7162V11H180.953V64.7162C180.953 71.3378 178.898 76.5405 174.789 80.3243C170.756 84.1081 164.82 86 156.981 86Z" fill="#040404"/>
<path d="M195.976 84.9865V11H222.802C227.977 11 232.466 11.9122 236.272 13.7365C240.077 15.4932 243.006 17.9932 245.061 21.2365C247.192 24.4797 248.257 28.3311 248.257 32.7905C248.257 37.1824 247.192 41.0338 245.061 44.3446C243.006 47.5878 240.077 50.1216 236.272 51.9459C232.466 53.7027 227.977 54.5811 222.802 54.5811H206.25V84.9865H195.976ZM206.25 46.3716H222.802C227.292 46.3716 230.868 45.1554 233.532 42.723C236.272 40.223 237.641 36.9122 237.641 32.7905C237.641 28.6013 236.272 25.2905 233.532 22.8581C230.868 20.4257 227.292 19.2095 222.802 19.2095H206.25V46.3716Z" fill="#040404"/>
<path d="M211.617 84.9865V81.959H217.813V61.0618H211.617V58.0343H227.834V61.0618H221.638V81.959H227.834V84.9865H211.617Z" fill="#040404"/>
<path d="M233.931 84.9865V64.68H237.673V68.5567H238.463L237.673 69.332C237.673 67.7321 238.214 66.5014 239.295 65.64C240.376 64.7539 241.873 64.3108 243.786 64.3108C246.087 64.3108 247.917 64.9385 249.275 66.1938C250.634 67.4491 251.313 69.1597 251.313 71.3258V84.9865H247.57V71.695C247.57 70.2428 247.127 69.1351 246.24 68.3721C245.38 67.5845 244.202 67.1906 242.705 67.1906C241.153 67.1906 239.919 67.6091 239.004 68.4459C238.117 69.2828 237.673 70.4889 237.673 72.0642V84.9865H233.931Z" fill="#040404"/>
<path d="M265.601 85.3557C263.771 85.3557 262.164 85.048 260.777 84.4327C259.419 83.8173 258.366 82.9312 257.617 81.7744C256.869 80.5929 256.494 79.2022 256.494 77.6023V72.0642C256.494 70.4397 256.869 69.049 257.617 67.8921C258.366 66.7353 259.419 65.8492 260.777 65.2338C262.164 64.6185 263.771 64.3108 265.601 64.3108C268.235 64.3108 270.356 64.9385 271.963 66.1938C273.571 67.4491 274.417 69.1597 274.5 71.3258H270.758C270.674 70.0212 270.175 69.0244 269.261 68.3352C268.373 67.6214 267.154 67.2645 265.601 67.2645C263.966 67.2645 262.663 67.6829 261.692 68.5198C260.722 69.332 260.237 70.5012 260.237 72.0273V77.6023C260.237 79.1284 260.722 80.3098 261.692 81.1467C262.663 81.9836 263.966 82.402 265.601 82.402C267.154 82.402 268.373 82.0451 269.261 81.3313C270.175 80.6175 270.674 79.6207 270.758 78.3407H274.5C274.417 80.5068 273.571 82.2174 271.963 83.4727C270.356 84.728 268.235 85.3557 265.601 85.3557Z" fill="#040404"/>
<!-- <rect width="345" height="97" rx="1" stroke="#040404" stroke-width="4" stroke-linejoin="round" mask="url(#path-1-inside-1_169_222)"/> -->
</svg>
