<svg width="29" height="28" viewBox="0 0 29 28" fill="none" xmlns="http://www.w3.org/2000/svg">
<path d="M14.2588 5.25781C9.27539 5.25781 5.16211 9.37109 5.16211 14.3457C5.16211 19.3203 9.28418 23.4336 14.2676 23.4336C19.2422 23.4336 23.3467 19.3203 23.3467 14.3457C23.3467 9.37109 19.2334 5.25781 14.2588 5.25781ZM14.2588 12.8428C14.7773 12.8428 15.0762 13.1328 15.0938 13.6602L15.2168 18.0459C15.2344 18.5908 14.8477 18.9688 14.2676 18.9688C13.7051 18.9688 13.292 18.582 13.3096 18.0371L13.4502 13.6602C13.4678 13.124 13.7578 12.8428 14.2588 12.8428ZM14.2588 9.80176C14.8564 9.80176 15.3486 10.2324 15.3486 10.8125C15.3486 11.3926 14.8652 11.8232 14.2588 11.8232C13.6611 11.8232 13.1777 11.3926 13.1777 10.8125C13.1777 10.2236 13.6699 9.80176 14.2588 9.80176Z" fill="#828282"/>
</svg>
