<svg width="29" height="28" viewBox="0 0 29 28" fill="none" xmlns="http://www.w3.org/2000/svg">
<path d="M15.4707 14.0059L20.4541 6.63184C20.5859 6.43848 20.6475 6.27148 20.6475 6.06934C20.6475 5.65625 20.2959 5.34863 19.874 5.34863C19.5049 5.34863 19.3115 5.47168 19.0391 5.86719L14.0732 13.2676L9.05469 20.668C8.92285 20.8525 8.85254 21.0195 8.85254 21.248C8.85254 21.6875 9.22168 21.9688 9.66113 21.9688C10.0039 21.9688 10.1973 21.8369 10.4521 21.459L15.4707 14.0059ZM6.33887 9.76953C6.33887 10.1738 6.66406 10.4902 7.05957 10.4902H8.74707V12.1777C8.74707 12.5908 9.08105 12.9072 9.46777 12.8984C9.88086 12.8984 10.1973 12.582 10.1973 12.1777V10.4902H11.8848C12.2891 10.4902 12.6055 10.1738 12.6055 9.76953C12.6055 9.37402 12.2891 9.04883 11.8848 9.04883H10.1973V7.35254C10.1973 6.95703 9.87207 6.63184 9.46777 6.63184C9.07227 6.63184 8.74707 6.95703 8.74707 7.35254V9.04883H7.05957C6.66406 9.04883 6.33887 9.37402 6.33887 9.76953ZM16.8857 18.1367C16.8857 18.541 17.2109 18.8662 17.6064 18.8662H22.4316C22.8359 18.8662 23.1611 18.541 23.1611 18.1367C23.1611 17.7412 22.8359 17.416 22.4316 17.416H17.6064C17.2109 17.416 16.8857 17.7412 16.8857 18.1367Z" fill="#828282"/>
</svg>
