<svg width="29" height="28" viewBox="0 0 29 28" fill="none" xmlns="http://www.w3.org/2000/svg">
<path d="M14.2412 22.7422C19.2246 22.7422 23.3379 18.6289 23.3379 13.6543C23.3379 8.67969 19.2158 4.56641 14.2324 4.56641C9.25781 4.56641 5.15332 8.67969 5.15332 13.6543C5.15332 18.6289 9.2666 22.7422 14.2412 22.7422ZM14.2324 15.0869C12.5098 15.0781 11.1738 13.6367 11.1738 11.7295C11.1562 9.93652 12.5186 8.44238 14.2324 8.44238C15.9463 8.44238 17.291 9.93652 17.291 11.7295C17.291 13.6367 15.9551 15.1045 14.2324 15.0869ZM14.2324 21.2393C12.2637 21.2393 10.1719 20.4219 8.84473 18.998C9.85547 17.4863 11.8594 16.6074 14.2324 16.6074C16.5791 16.6074 18.6006 17.4688 19.6201 18.998C18.293 20.4219 16.2012 21.2393 14.2324 21.2393Z" fill="#2F80ED"/>
</svg>
