<svg width="29" height="28" viewBox="0 0 29 28" fill="none" xmlns="http://www.w3.org/2000/svg">
<path d="M15.9365 23.3662L22.7744 19.4023C23.5127 18.9717 23.8379 18.6025 23.8379 18.0488C23.8379 17.4863 23.5127 17.126 22.7744 16.6865L21.5791 15.9922L22.7744 15.2979C23.5127 14.8672 23.8379 14.498 23.8379 13.9443C23.8379 13.3906 23.5127 13.0215 22.7744 12.5908L21.3594 11.7646L22.7744 10.9473C23.5127 10.5166 23.8379 10.1475 23.8379 9.59375C23.8379 9.03125 23.5127 8.6709 22.7744 8.23145L15.9365 4.26758C15.4795 4.00391 15.1191 3.87207 14.75 3.87207C14.3721 3.87207 14.0117 4.00391 13.5547 4.26758L6.7168 8.23145C5.97852 8.6709 5.65332 9.03125 5.65332 9.59375C5.65332 10.1475 5.97852 10.5166 6.7168 10.9473L8.13184 11.7734L6.7168 12.5908C5.97852 13.0215 5.65332 13.3906 5.65332 13.9443C5.65332 14.498 5.97852 14.8672 6.7168 15.2979L7.9209 15.9922L6.7168 16.6865C5.97852 17.126 5.65332 17.4863 5.65332 18.0488C5.65332 18.6025 5.97852 18.9717 6.7168 19.4023L13.5547 23.3662C14.0117 23.6299 14.3721 23.7617 14.75 23.7617C15.1191 23.7617 15.4795 23.6299 15.9365 23.3662ZM14.75 15.3066C15.1191 15.3066 15.4795 15.1836 15.9365 14.9111L19.6455 12.7666L21.5791 13.8564C21.6143 13.8828 21.6406 13.9004 21.6406 13.9443C21.6406 13.9883 21.6143 14.0059 21.5791 14.0322L15.1016 17.7148C14.9697 17.7939 14.8643 17.8291 14.75 17.8291C14.627 17.8291 14.5215 17.7939 14.3896 17.7148L7.9209 14.0322C7.87695 14.0059 7.85938 13.9883 7.85938 13.9443C7.85938 13.9004 7.87695 13.8828 7.9209 13.8564L9.8457 12.7578L13.5547 14.9111C14.0117 15.1836 14.3721 15.3066 14.75 15.3066ZM14.3896 21.8193L7.9209 18.1279C7.87695 18.1104 7.85938 18.084 7.85938 18.0488C7.85938 18.0049 7.87695 17.9873 7.9209 17.9609L9.63477 16.9854L13.5547 19.2617C14.0117 19.5342 14.3721 19.666 14.75 19.666C15.1191 19.666 15.4795 19.5342 15.9365 19.2617L19.8652 16.9854L21.5791 17.9609C21.6143 17.9873 21.6406 18.0049 21.6406 18.0488C21.6406 18.084 21.6143 18.1104 21.5791 18.1279L15.1016 21.8193C14.9697 21.8896 14.8643 21.9336 14.75 21.9336C14.627 21.9336 14.5215 21.8896 14.3896 21.8193Z" fill="#2F80ED"/>
</svg>
