<svg width="181" height="182" viewBox="0 0 181 182" fill="none" xmlns="http://www.w3.org/2000/svg">
<path d="M0.104614 49.188C0.104614 26.5606 0.104614 15.2469 7.13405 8.21743C14.1635 1.18799 25.4772 1.18799 48.1046 1.18799H132.105C154.732 1.18799 166.046 1.18799 173.075 8.21743C180.105 15.2469 180.105 26.5606 180.105 49.188V133.188C180.105 155.815 180.105 167.129 173.075 174.159C166.046 181.188 154.732 181.188 132.105 181.188H48.1046C25.4772 181.188 14.1635 181.188 7.13405 174.159C0.104614 167.129 0.104614 155.815 0.104614 133.188V49.188Z" fill="white"/>
<path d="M76.8021 62.2758C63.7339 59.8957 53.4012 62.3874 49.2832 69.5192C46.2103 74.8412 47.0875 81.8985 51.4122 89.4419C51.4997 89.5947 51.6165 89.7288 51.7558 89.8364C51.8951 89.9441 52.0543 90.0232 52.2243 90.0693C52.3942 90.1154 52.5716 90.1276 52.7462 90.1051C52.9208 90.0826 53.0893 90.0259 53.2421 89.9383C53.5505 89.7613 53.776 89.4692 53.8691 89.126C53.9622 88.7828 53.9152 88.4167 53.7385 88.1082C49.8424 81.3138 49.0831 75.2234 51.6045 70.8592C55.0249 64.9345 64.2403 62.712 76.3209 64.9127C76.5393 64.9559 76.765 64.944 76.9776 64.8781C77.1903 64.8122 77.3832 64.6945 77.5389 64.5354C77.6946 64.3764 77.8083 64.181 77.8697 63.9671C77.9311 63.7531 77.9382 63.5272 77.8905 63.3098C77.8328 63.0484 77.6982 62.8102 77.504 62.626C77.3098 62.4417 77.0649 62.3199 76.8008 62.276L76.8021 62.2758ZM58.2079 98.61C63.4915 104.417 70.3565 109.864 78.1857 114.384C97.1416 125.329 117.322 128.254 127.267 121.472C127.554 121.269 127.749 120.962 127.811 120.616C127.873 120.27 127.797 119.914 127.6 119.624C127.402 119.334 127.098 119.133 126.754 119.064C126.409 118.996 126.052 119.065 125.758 119.258C116.856 125.327 97.6866 122.548 79.526 112.063C71.93 107.677 65.283 102.404 60.1906 96.807C60.0135 96.6061 59.7804 96.4628 59.5211 96.3955C59.2619 96.3282 58.9885 96.3401 58.7361 96.4295C58.5263 96.5041 58.3383 96.6298 58.1892 96.7952C58.0402 96.9606 57.9347 97.1605 57.8822 97.3769C57.8298 97.5933 57.8321 97.8194 57.889 98.0347C57.9458 98.25 58.0555 98.4477 58.2079 98.61V98.61Z" fill="#2DD0ED"/>
<path d="M124.096 96.9799C132.652 86.8718 135.641 76.7046 131.531 69.5869C128.508 64.3498 122.115 61.5847 113.62 61.4744C113.264 61.4698 112.922 61.6065 112.667 61.8544C112.412 62.1023 112.266 62.4411 112.261 62.7965C112.258 63.0616 112.333 63.3219 112.477 63.5444C112.621 63.7668 112.829 63.9413 113.072 64.0456C113.234 64.1152 113.408 64.1523 113.584 64.1546C121.225 64.2534 126.733 66.6361 129.21 70.9272C132.623 76.8393 129.959 85.9061 122.051 95.2488C121.933 95.3825 121.843 95.5384 121.786 95.7072C121.729 95.8761 121.707 96.0546 121.72 96.2323C121.733 96.41 121.781 96.5833 121.862 96.742C121.943 96.9007 122.055 97.0417 122.191 97.1567C122.327 97.2715 122.485 97.3581 122.655 97.4114C122.824 97.4648 123.003 97.4838 123.181 97.4673C123.358 97.4509 123.53 97.3993 123.687 97.3156C123.844 97.2319 123.983 97.1178 124.096 96.9799V96.9799ZM102.106 62.7222C94.3688 64.3803 86.1344 67.621 78.2267 72.1866C58.6568 83.485 45.8912 100.144 47.6648 112.224C47.6869 112.401 47.7441 112.572 47.8331 112.727C47.9221 112.882 48.0411 113.017 48.1831 113.125C48.3251 113.233 48.4873 113.312 48.6601 113.356C48.8329 113.401 49.0129 113.41 49.1895 113.384C49.366 113.359 49.5356 113.298 49.6883 113.205C49.841 113.113 49.9737 112.991 50.0786 112.846C50.1835 112.702 50.2585 112.538 50.2992 112.364C50.3399 112.191 50.3455 112.011 50.3157 111.835C48.7422 101.109 60.842 85.3175 79.5656 74.5078C87.2372 70.0783 95.2114 66.9413 102.668 65.3421C103.005 65.2574 103.295 65.0452 103.479 64.7502C103.663 64.4553 103.724 64.1006 103.652 63.7609C103.579 63.4212 103.377 63.123 103.089 62.9293C102.8 62.7355 102.448 62.6613 102.106 62.7222Z" fill="#2DD0ED"/>
<path d="M70.4025 120.599C74.8782 133.09 82.196 140.782 90.4268 140.782C96.4285 140.782 101.982 136.691 106.312 129.488C106.409 129.337 106.475 129.168 106.506 128.991C106.537 128.814 106.531 128.633 106.491 128.458C106.44 128.239 106.335 128.037 106.185 127.869C106.036 127.701 105.846 127.574 105.635 127.499C105.423 127.423 105.195 127.403 104.973 127.438C104.751 127.474 104.542 127.565 104.365 127.703C104.223 127.813 104.105 127.95 104.017 128.106C100.124 134.58 95.3435 138.103 90.4268 138.103C83.5912 138.103 77.0624 131.242 72.9265 119.695C72.8697 119.526 72.7799 119.37 72.6621 119.236C72.5444 119.102 72.4011 118.992 72.2407 118.914C72.0802 118.837 71.9059 118.791 71.7278 118.782C71.5497 118.772 71.3715 118.799 71.2037 118.859C71.0358 118.919 70.8817 119.012 70.7502 119.133C70.6188 119.253 70.5127 119.399 70.4382 119.561C70.3636 119.723 70.3221 119.898 70.3161 120.076C70.3103 120.255 70.3401 120.432 70.4038 120.599H70.4025ZM111.269 118.155C113.585 110.755 114.828 102.216 114.828 93.3188C114.828 71.1195 107.059 51.9816 95.9912 47.0673C95.6677 46.9312 95.3038 46.9274 94.9776 47.0567C94.6514 47.186 94.3889 47.4381 94.2465 47.7588C94.1041 48.0795 94.0931 48.4432 94.216 48.7719C94.3389 49.1006 94.5857 49.368 94.9036 49.5167C104.775 53.9002 112.149 72.0622 112.149 93.3188C112.149 101.95 110.943 110.219 108.712 117.355C108.654 117.524 108.631 117.703 108.643 117.881C108.656 118.059 108.704 118.233 108.785 118.393C108.907 118.633 109.099 118.831 109.335 118.96C109.571 119.09 109.84 119.146 110.108 119.12C110.376 119.094 110.63 118.988 110.838 118.816C111.045 118.644 111.195 118.413 111.269 118.155V118.155ZM136.506 116.843C136.512 115.997 136.35 115.159 136.03 114.376C135.71 113.593 135.238 112.881 134.642 112.281C134.046 111.681 133.337 111.205 132.557 110.88C131.776 110.555 130.938 110.388 130.093 110.388C129.247 110.388 128.41 110.555 127.629 110.88C126.848 111.205 126.139 111.681 125.543 112.281C124.947 112.881 124.476 113.593 124.156 114.376C123.836 115.159 123.674 115.997 123.679 116.843C123.69 118.537 124.371 120.157 125.572 121.351C126.774 122.545 128.399 123.215 130.093 123.215C131.787 123.215 133.412 122.545 134.613 121.351C135.815 120.157 136.495 118.536 136.506 116.843ZM133.826 116.843C133.826 117.833 133.432 118.782 132.732 119.482C132.032 120.182 131.083 120.576 130.093 120.576C129.354 120.576 128.633 120.357 128.019 119.947C127.405 119.536 126.927 118.953 126.644 118.271C126.362 117.589 126.288 116.839 126.432 116.115C126.576 115.39 126.931 114.725 127.453 114.203C127.975 113.681 128.641 113.326 129.365 113.182C130.089 113.038 130.839 113.111 131.521 113.394C132.203 113.677 132.786 114.155 133.197 114.769C133.607 115.383 133.826 116.104 133.826 116.843V116.843ZM50.6684 123.256C51.5107 123.256 52.3447 123.09 53.1229 122.768C53.9011 122.446 54.6081 121.973 55.2037 121.378C55.7993 120.782 56.2717 120.075 56.5939 119.297C56.9162 118.519 57.082 117.685 57.0819 116.843C57.082 116 56.9162 115.166 56.5939 114.388C56.2716 113.61 55.7991 112.903 55.2035 112.307C54.6079 111.712 53.9009 111.239 53.1227 110.917C52.3445 110.595 51.5104 110.429 50.6682 110.429C49.8259 110.429 48.9919 110.595 48.2138 110.917C47.4357 111.24 46.7287 111.712 46.1331 112.308C45.5376 112.903 45.0652 113.61 44.7429 114.388C44.4207 115.166 44.2548 116 44.2549 116.843C44.2548 117.685 44.4207 118.519 44.743 119.297C45.0652 120.075 45.5377 120.782 46.1332 121.378C46.7288 121.973 47.4358 122.446 48.214 122.768C48.9921 123.09 49.8262 123.256 50.6684 123.256V123.256ZM50.6684 120.576C49.6781 120.576 48.7283 120.182 48.0281 119.482C47.3278 118.782 46.9344 117.832 46.9344 116.842C46.9344 115.851 47.3278 114.902 48.0281 114.201C48.7283 113.501 49.6781 113.108 50.6684 113.108C51.6587 113.108 52.6085 113.501 53.3088 114.201C54.009 114.902 54.4024 115.851 54.4024 116.842C54.4024 117.832 54.009 118.782 53.3088 119.482C52.6085 120.182 51.6587 120.576 50.6684 120.576V120.576Z" fill="#2DD0ED"/>
<path d="M90.4268 53.6092C91.6953 53.6094 92.9354 53.2332 93.9901 52.5285C95.0448 51.8237 95.8668 50.8219 96.3521 49.6499C96.7555 48.6755 96.9124 47.6166 96.8089 46.5671C96.7054 45.5176 96.3447 44.5098 95.7588 43.6329C95.1729 42.756 94.3798 42.0372 93.4498 41.5399C92.5197 41.0427 91.4814 40.7824 90.4268 40.7822C89.1583 40.782 87.9182 41.158 86.8633 41.8627C85.8085 42.5674 84.9864 43.569 84.5009 44.741C84.0155 45.913 83.8885 47.2026 84.1361 48.4468C84.3836 49.6909 84.9946 50.8337 85.8917 51.7306C86.4873 52.3261 87.1943 52.7985 87.9725 53.1208C88.7506 53.4431 89.5846 53.609 90.4268 53.609V53.6092ZM90.4268 50.9287C89.6885 50.9286 88.9668 50.7096 88.3529 50.2995C87.739 49.8893 87.2604 49.3063 86.9778 48.6243C86.79 48.1714 86.6933 47.6859 86.6933 47.1956C86.6933 46.7053 86.79 46.2198 86.9778 45.767C87.1653 45.314 87.4402 44.9024 87.7869 44.5558C88.1335 44.2092 88.5451 43.9342 88.998 43.7467C89.5081 43.5354 90.0587 43.4399 90.6101 43.467C91.1615 43.4941 91.7001 43.6432 92.1869 43.9034C92.6738 44.1637 93.0969 44.5287 93.4258 44.9721C93.7547 45.4155 93.9811 45.9264 94.0888 46.4679C94.1965 47.0094 94.1828 47.568 94.0487 48.1035C93.9145 48.639 93.6633 49.1382 93.313 49.5649C92.9628 49.9917 92.5223 50.3355 92.0232 50.5715C91.5241 50.8076 90.9789 50.93 90.4268 50.93V50.9287ZM91.4065 97.8559C90.2033 98.1155 88.9463 97.8868 87.9117 97.22C87.1401 96.7227 86.5333 96.0077 86.168 95.1654C85.8028 94.3232 85.6956 93.3915 85.8599 92.4883C86.0242 91.5851 86.4527 90.7509 87.0912 90.0913C87.7297 89.4317 88.5495 88.9762 89.4469 88.7826C90.6418 88.5438 91.8827 88.7845 92.9017 89.4526C93.9207 90.1207 94.6362 91.1627 94.8936 92.3537C95.1507 93.5448 94.9291 94.7892 94.2767 95.8184C93.6243 96.8475 92.5934 97.5788 91.4065 97.8546V97.8559Z" fill="#2DD0ED"/>
</svg>
