<svg width="181" height="182" viewBox="0 0 181 182" fill="none" xmlns="http://www.w3.org/2000/svg">
<path d="M0.723999 49.2969C0.723999 26.6695 0.723999 15.3557 7.75344 8.32631C14.7829 1.29688 26.0966 1.29688 48.724 1.29688H132.724C155.351 1.29688 166.665 1.29688 173.695 8.32631C180.724 15.3557 180.724 26.6695 180.724 49.2969V133.297C180.724 155.924 180.724 167.238 173.695 174.267C166.665 181.297 155.351 181.297 132.724 181.297H48.724C26.0966 181.297 14.7829 181.297 7.75344 174.267C0.723999 167.238 0.723999 155.924 0.723999 133.297V49.2969Z" fill="white"/>
<path d="M139.869 89.6647L135.671 87.0659C135.636 86.6579 135.596 86.2503 135.551 85.8432L139.159 82.478C139.34 82.3104 139.474 82.0993 139.55 81.865C139.625 81.6306 139.639 81.3808 139.591 81.1393C139.544 80.8977 139.435 80.6724 139.276 80.4847C139.116 80.297 138.911 80.1534 138.681 80.0675L134.069 78.3428C133.953 77.9446 133.832 77.5477 133.707 77.1522L136.584 73.1565C136.728 72.9568 136.819 72.7235 136.848 72.4789C136.876 72.2342 136.842 71.9863 136.747 71.7588C136.653 71.5312 136.502 71.3315 136.309 71.1786C136.116 71.0258 135.887 70.9248 135.644 70.8854L130.781 70.0944C130.592 69.7257 130.395 69.3624 130.196 69.0022L132.24 64.5167C132.343 64.2928 132.386 64.0464 132.367 63.8008C132.347 63.5553 132.264 63.3189 132.127 63.1143C131.991 62.9091 131.804 62.7423 131.585 62.63C131.366 62.5177 131.122 62.4636 130.876 62.4729L125.94 62.6448C125.685 62.3255 125.425 62.0102 125.16 61.6991L126.294 56.8913C126.351 56.6515 126.346 56.4012 126.278 56.1642C126.211 55.9272 126.084 55.7114 125.909 55.5374C125.735 55.3632 125.52 55.2363 125.283 55.1689C125.046 55.1015 124.796 55.0958 124.556 55.1522L119.749 56.2854C119.437 56.0209 119.122 55.7609 118.802 55.5057L118.975 50.5702C118.984 50.3241 118.93 50.0798 118.818 49.8606C118.705 49.6414 118.539 49.4547 118.334 49.3182C118.129 49.1812 117.893 49.0989 117.647 49.079C117.402 49.0592 117.156 49.1026 116.932 49.2049L112.447 51.2495C112.085 51.0498 111.721 50.8545 111.355 50.6635L110.562 45.7995C110.522 45.5566 110.421 45.3279 110.268 45.135C110.116 44.9421 109.916 44.7914 109.689 44.6972C109.461 44.6031 109.214 44.5685 108.969 44.5969C108.725 44.6252 108.491 44.7155 108.292 44.8592L104.293 47.7362C103.9 47.6112 103.504 47.4905 103.105 47.376L101.38 42.7631C101.295 42.532 101.151 42.3268 100.963 42.1671C100.775 42.0073 100.55 41.8984 100.308 41.8506C100.067 41.8032 99.8174 41.8179 99.5834 41.8935C99.3494 41.9691 99.1385 42.103 98.9706 42.2827L95.6054 45.8932C95.1984 45.8476 94.7908 45.8078 94.3827 45.7737L91.7839 41.5745C91.6544 41.3652 91.4736 41.1925 91.2586 41.0728C91.0436 40.953 90.8016 40.8901 90.5556 40.8901C90.3095 40.8901 90.0675 40.953 89.8525 41.0728C89.6375 41.1925 89.4567 41.3652 89.3272 41.5745L86.7284 45.7737C86.3199 45.8077 85.9119 45.8476 85.5046 45.8932L82.1386 42.2827C81.9708 42.1024 81.7597 41.968 81.5253 41.8923C81.291 41.8166 81.0411 41.8021 80.7996 41.8503C80.558 41.8985 80.3329 42.0076 80.1454 42.1674C79.958 42.3272 79.8146 42.5323 79.7288 42.7631L78.0046 47.376C77.605 47.4905 77.2097 47.612 76.8151 47.7362L72.8175 44.8592C72.6178 44.7149 72.3844 44.6242 72.1396 44.5958C71.8948 44.5674 71.6469 44.6023 71.4194 44.6971C71.1922 44.7915 70.9928 44.9423 70.84 45.1351C70.6873 45.328 70.5862 45.5567 70.5464 45.7995L69.7534 50.6635C69.3862 50.8538 69.0233 51.0495 68.6612 51.2495L64.1765 49.2046C63.9526 49.1021 63.7062 49.0588 63.4609 49.0787C63.2155 49.0986 62.9793 49.181 62.7749 49.3182C62.5698 49.4546 62.4031 49.6413 62.2908 49.8605C62.1785 50.0797 62.1243 50.3241 62.1335 50.5702L62.3054 55.5057C61.986 55.7614 61.6701 56.0213 61.3577 56.2854L56.5511 55.1526C56.3113 55.0964 56.0612 55.1023 55.8243 55.1696C55.5874 55.2369 55.3716 55.3635 55.1972 55.5374C55.0227 55.7114 54.8957 55.9272 54.8283 56.1642C54.7609 56.4012 54.7553 56.6515 54.812 56.8913L55.9444 61.6991C55.6815 62.0104 55.4218 62.3257 55.1667 62.6448L50.2308 62.4729C49.985 62.4652 49.7412 62.5199 49.5223 62.632C49.3034 62.7441 49.1165 62.9099 48.9792 63.1139C48.8422 63.3186 48.7599 63.5549 48.74 63.8003C48.7201 64.0458 48.7633 64.2922 48.8655 64.5163L50.9101 69.0022C50.7112 69.3624 50.5147 69.7257 50.3241 70.0944L45.4612 70.8854C45.2182 70.925 44.9894 71.0261 44.7964 71.179C44.6034 71.3319 44.4526 71.5315 44.3584 71.759C44.2643 71.9865 44.2298 72.2343 44.2582 72.4789C44.2866 72.7235 44.3771 72.9567 44.521 73.1565L47.3979 77.1526C47.2729 77.5471 47.1515 77.9432 47.0366 78.3428L42.4241 80.0675C42.1938 80.154 41.9893 80.2979 41.8301 80.4855C41.6709 80.6731 41.5622 80.8982 41.5143 81.1396C41.4663 81.381 41.4808 81.6306 41.5563 81.8648C41.6318 82.099 41.7658 82.31 41.9456 82.478L45.5538 85.8428C45.5089 86.2491 45.469 86.6581 45.4347 87.0659L41.2358 89.6647C41.0266 89.7942 40.854 89.9751 40.7344 90.1901C40.6147 90.4051 40.552 90.6472 40.5522 90.8932C40.5522 91.3948 40.8112 91.8593 41.2362 92.121L45.4347 94.7198C45.469 95.1288 45.5089 95.537 45.5538 95.9429L41.9452 99.3089C41.7651 99.4766 41.6308 99.6876 41.5551 99.9219C41.4795 100.156 41.4649 100.406 41.5129 100.647C41.5609 100.889 41.6698 101.114 41.8293 101.301C41.9888 101.489 42.1935 101.633 42.4241 101.719L47.0366 103.443C47.1515 103.842 47.2729 104.239 47.3979 104.633L44.521 108.63C44.3768 108.83 44.2862 109.063 44.2577 109.308C44.2292 109.552 44.2637 109.8 44.3581 110.028C44.4524 110.255 44.6034 110.455 44.7967 110.608C44.99 110.76 45.2192 110.861 45.4624 110.9L50.3245 111.691C50.5147 112.06 50.7097 112.423 50.9104 112.785L48.8655 117.269C48.7631 117.493 48.7198 117.74 48.7397 117.985C48.7596 118.231 48.8421 118.467 48.9792 118.672C49.1156 118.877 49.3022 119.043 49.5214 119.156C49.7405 119.268 49.9847 119.322 50.2308 119.313L55.1644 119.14C55.4218 119.461 55.6808 119.775 55.9444 120.088L54.812 124.896C54.7553 125.136 54.7609 125.386 54.8284 125.622C54.8958 125.859 55.0228 126.074 55.1972 126.248C55.3711 126.422 55.5869 126.549 55.824 126.616C56.061 126.684 56.3114 126.689 56.5511 126.632L61.3577 125.5C61.6702 125.765 61.9866 126.023 62.3058 126.277L62.1339 131.214C62.125 131.46 62.1792 131.704 62.2914 131.923C62.4035 132.142 62.5698 132.329 62.7745 132.466C62.9793 132.603 63.2155 132.685 63.4609 132.704C63.7063 132.724 63.9526 132.68 64.1765 132.578L68.6612 130.535C69.0223 130.735 69.3864 130.931 69.7534 131.12L70.5464 135.982C70.5856 136.225 70.6864 136.454 70.8392 136.647C70.992 136.84 71.1918 136.991 71.4194 137.085C71.6469 137.179 71.8947 137.214 72.1394 137.186C72.384 137.157 72.6174 137.067 72.8175 136.924L76.8132 134.045C77.2077 134.17 77.6042 134.292 78.0034 134.407L79.728 139.018C79.8139 139.249 79.9575 139.454 80.1452 139.613C80.3328 139.772 80.5583 139.881 80.7999 139.928C81.0412 139.977 81.291 139.963 81.5253 139.887C81.7596 139.812 81.9705 139.677 82.1378 139.496L85.5038 135.888C85.9101 135.935 86.3186 135.974 86.7276 136.01L89.3265 140.208C89.4561 140.417 89.6369 140.59 89.8517 140.709C90.0665 140.829 90.3083 140.892 90.5542 140.892C90.8002 140.892 91.0421 140.829 91.2571 140.71C91.4721 140.59 91.653 140.418 91.7827 140.208L94.3815 136.01C94.7905 135.974 95.1987 135.935 95.6046 135.888L98.9698 139.496C99.1371 139.677 99.348 139.811 99.5822 139.887C99.8164 139.963 100.066 139.977 100.307 139.928C100.549 139.881 100.774 139.772 100.962 139.613C101.149 139.453 101.293 139.249 101.379 139.018L103.104 134.407C103.503 134.292 103.9 134.17 104.294 134.045L108.291 136.924C108.491 137.067 108.724 137.158 108.969 137.186C109.213 137.214 109.461 137.179 109.689 137.085C109.916 136.991 110.115 136.84 110.268 136.647C110.421 136.454 110.522 136.225 110.561 135.982L111.354 131.12C111.721 130.93 112.084 130.732 112.446 130.534L116.931 132.578C117.155 132.681 117.401 132.725 117.647 132.705C117.892 132.686 118.129 132.604 118.333 132.467C118.538 132.33 118.705 132.143 118.817 131.924C118.929 131.704 118.983 131.46 118.974 131.214L118.802 126.277C119.121 126.023 119.437 125.764 119.748 125.5L124.555 126.632C125.044 126.746 125.555 126.604 125.908 126.248C126.082 126.074 126.209 125.859 126.277 125.622C126.344 125.386 126.35 125.136 126.293 124.896L125.161 120.088C125.425 119.775 125.685 119.461 125.939 119.14L130.875 119.313C131.121 119.322 131.365 119.268 131.584 119.156C131.803 119.044 131.99 118.877 132.126 118.672C132.263 118.468 132.346 118.231 132.366 117.985C132.385 117.74 132.342 117.493 132.239 117.269L130.195 112.785C130.395 112.423 130.591 112.06 130.78 111.692L135.643 110.9C135.886 110.861 136.115 110.76 136.308 110.607C136.501 110.455 136.652 110.255 136.746 110.027C136.84 109.799 136.874 109.552 136.846 109.307C136.818 109.063 136.727 108.83 136.583 108.63L133.707 104.634C133.831 104.239 133.952 103.842 134.068 103.443L138.68 101.719C138.91 101.633 139.115 101.489 139.275 101.301C139.434 101.114 139.543 100.888 139.59 100.646C139.639 100.405 139.625 100.155 139.549 99.9212C139.473 99.687 139.339 99.4761 139.158 99.3089L135.551 95.9429C135.594 95.5366 135.635 95.128 135.67 94.7202L139.868 92.121C140.078 91.9917 140.25 91.811 140.37 91.5961C140.49 91.3812 140.552 91.1392 140.552 90.8932C140.552 90.3929 140.294 89.9276 139.869 89.6647V89.6647ZM111.771 124.491C110.167 124.146 109.148 122.566 109.492 120.957C109.835 119.351 111.414 118.329 113.017 118.675C114.62 119.018 115.641 120.601 115.297 122.206C114.953 123.811 113.373 124.835 111.771 124.491ZM110.344 114.843C109.996 114.769 109.637 114.763 109.287 114.828C108.937 114.892 108.603 115.025 108.305 115.218C108.006 115.412 107.749 115.662 107.547 115.955C107.345 116.248 107.203 116.578 107.129 116.926L105.639 123.882C101.039 125.969 95.9315 127.129 90.5522 127.129C85.0499 127.129 79.8311 125.912 75.1499 123.735L73.6601 116.78C73.3468 115.316 71.9077 114.384 70.446 114.698L64.3054 116.017C63.1641 114.842 62.1034 113.592 61.1304 112.274H91.0093C91.3472 112.274 91.5726 112.213 91.5726 111.905V101.336C91.5726 101.029 91.3472 100.967 91.0089 100.967H82.271V94.2682H91.7222C92.5847 94.2682 96.3351 94.5143 97.5339 99.3081C97.9097 100.782 98.7339 105.578 99.2979 107.113C99.8597 108.835 102.147 112.274 104.584 112.274H119.473C119.642 112.274 119.823 112.255 120.013 112.221C118.98 113.624 117.848 114.951 116.626 116.193L110.344 114.843H110.344ZM69.0198 124.346C67.4163 124.692 65.8378 123.67 65.4929 122.064C65.1499 120.455 66.1694 118.875 67.7726 118.53C69.3761 118.187 70.9554 119.209 71.2991 120.815C71.6421 122.42 70.6218 124.002 69.0194 124.346H69.0198ZM57.6851 78.385C58.3503 79.8858 57.6733 81.6448 56.1745 82.3089C54.6757 82.9749 52.9214 82.2971 52.2565 80.7952C51.5913 79.2932 52.2679 77.5374 53.7671 76.8714C54.1237 76.7132 54.5079 76.6269 54.8979 76.6174C55.2879 76.6078 55.6759 76.6753 56.0398 76.8158C56.4037 76.9564 56.7363 77.1673 57.0186 77.4365C57.3009 77.7056 57.5274 78.0279 57.6851 78.3846V78.385ZM54.2015 86.6428L60.5983 83.8003C61.255 83.5081 61.7689 82.9673 62.027 82.2965C62.2851 81.6257 62.2664 80.8799 61.9749 80.2229L60.6577 77.244H65.839V100.599H55.3854C54.4588 97.3367 53.99 93.9617 53.9925 90.5706C53.9925 89.2432 54.064 87.9315 54.2015 86.6425V86.6428ZM82.2726 84.3745V77.4905H94.6108C95.2483 77.4905 99.1108 78.2272 99.1108 81.1155C99.1108 83.5135 96.1483 84.3733 93.712 84.3733H82.2726V84.3745ZM127.113 90.5706C127.113 91.4839 127.08 92.3878 127.013 93.2846H123.262C122.886 93.2846 122.735 93.5315 122.735 93.8991V95.6218C122.735 99.6764 120.449 100.558 118.445 100.783C116.537 100.998 114.422 99.9843 114.161 98.8167C113.035 92.4862 111.16 91.1343 108.198 88.7979C111.874 86.4639 115.698 83.0206 115.698 78.4112C115.698 73.4346 112.287 70.2999 109.961 68.7628C106.698 66.612 103.086 66.1807 102.111 66.1807H63.3175C68.578 60.3096 75.7077 56.1506 83.7714 54.6374L88.344 59.4342C88.5894 59.6917 88.8831 59.8983 89.2083 60.0421C89.5336 60.1859 89.884 60.2642 90.2396 60.2724C90.5951 60.2806 90.9488 60.2186 91.2804 60.0899C91.6119 59.9612 91.9148 59.7684 92.1718 59.5225L97.2882 54.6288C108.009 56.6249 117.086 63.2983 122.317 72.4542L118.814 80.3655C118.209 81.7346 118.826 83.3358 120.192 83.9425L126.935 86.9378C127.052 88.135 127.113 89.3444 127.113 90.5706ZM88.346 50.5565C89.5308 49.4217 91.4101 49.4667 92.5444 50.653C93.6765 51.8428 93.6335 53.7241 92.446 54.8581C91.2612 55.9932 89.3819 55.9491 88.2476 54.7604C87.704 54.1895 87.4091 53.4262 87.4276 52.6381C87.446 51.85 87.7763 51.1014 88.346 50.5565V50.5565ZM123.105 78.5292C123.263 78.1724 123.489 77.8502 123.771 77.5811C124.053 77.3119 124.386 77.1011 124.75 76.9606C125.114 76.8201 125.502 76.7527 125.892 76.7624C126.282 76.772 126.666 76.8584 127.022 77.0167C128.521 77.6815 129.198 79.4397 128.533 80.9405C128.375 81.2974 128.149 81.6198 127.867 81.8891C127.584 82.1584 127.252 82.3694 126.888 82.51C126.524 82.6506 126.136 82.7181 125.746 82.7085C125.356 82.6989 124.971 82.6125 124.615 82.4542C123.117 81.7889 122.441 80.0323 123.105 78.5292V78.5292Z" fill="black"/>
</svg>
