<svg width="181" height="181" viewBox="0 0 181 181" fill="none" xmlns="http://www.w3.org/2000/svg">
<rect x="0.723999" y="0.405762" width="180" height="180" rx="32" fill="white"/>
<path d="M131.948 45.2097C130.542 48.5699 128.757 51.7609 126.608 54.6913C117.205 45.2878 104.441 40 91.1433 40C63.6361 40 41 62.6622 41 90.2084C41 103.949 46.6265 117.103 56.577 126.585L58.4264 128.226C67.4652 135.845 78.9135 140.039 90.7265 140.039C116.879 140.039 138.864 119.539 140.726 93.4124C142.094 80.6226 138.343 64.4465 131.948 45.2097ZM63.7012 126.872C62.8937 127.874 61.6564 128.461 60.367 128.461C58.0096 128.461 56.0821 126.52 56.0821 124.163C56.0821 121.805 58.0227 119.865 60.367 119.865C61.3438 119.865 62.3076 120.203 63.063 120.828C64.8995 122.313 65.186 125.035 63.7012 126.872ZM131.74 111.842C119.367 128.343 92.9406 122.782 75.9961 123.576C75.9961 123.576 72.9875 123.759 69.9659 124.254C69.9659 124.254 71.099 123.772 72.5707 123.212C84.4618 119.07 90.0883 118.263 97.3167 114.551C110.927 107.622 124.381 92.4616 127.181 76.6892C121.998 91.8625 106.29 104.9 91.9768 110.201C82.1696 113.821 64.4566 117.338 64.4566 117.338L63.7403 116.96C51.6799 111.086 51.3152 84.9466 73.235 76.5069C82.8338 72.808 92.0159 74.8398 102.383 72.3652C113.454 69.7343 126.257 61.4249 131.466 50.5887C137.301 67.9239 144.321 95.0664 131.74 111.842V111.842Z" fill="#77BC1F"/>
</svg>
