<svg width="32" height="32" viewBox="0 0 32 32" fill="none" xmlns="http://www.w3.org/2000/svg">
<path d="M5 21.1041C5 22.0938 5.80518 22.899 6.7949 22.899C7.14137 22.899 7.46506 22.8001 7.73969 22.6293L13.8401 26.1527C13.8396 26.1702 13.8388 26.1876 13.8388 26.2051C13.8388 27.1948 14.6439 28 15.6337 28C16.6234 28 17.4286 27.1949 17.4286 26.2051C17.4286 26.1864 17.4277 26.168 17.4271 26.1494L23.5262 22.6295C23.8008 22.8001 24.1243 22.899 24.4707 22.899C25.4604 22.899 26.2656 22.0938 26.2656 21.1041C26.2656 20.4211 25.8821 19.8261 25.3192 19.5228L25.3204 12.4796C25.8827 12.1761 26.2657 11.5815 26.2657 10.899C26.2657 10.8985 26.2656 10.898 26.2656 10.8975C26.2656 10.897 26.2657 10.8965 26.2657 10.896C26.2657 9.90632 25.4604 9.10111 24.4707 9.10111C24.1239 9.10111 23.7999 9.20028 23.5251 9.37134L17.4279 5.84965C17.428 5.84012 17.4286 5.7993 17.4286 5.7949C17.4286 4.80518 16.6234 4 15.6337 4C14.644 4 13.8388 4.80518 13.8388 5.7949C13.8388 5.7993 13.8393 5.83969 13.8395 5.84906L7.73859 9.37001C7.46424 9.19969 7.14094 9.10103 6.79494 9.10103C5.80522 9.10103 5.00004 9.90621 5.00004 10.8959C5.00004 10.8964 5.00008 10.8969 5.00008 10.8974C5.00008 10.8979 5.00004 10.8984 5.00004 10.8989C5.00004 11.5812 5.38275 12.1757 5.94475 12.4792L5.94357 19.5243C5.38216 19.8281 5 20.4223 5 21.1041ZM23.5262 12.4244C23.5571 12.4435 23.5884 12.462 23.6204 12.4793L23.6192 19.5243C23.0579 19.8281 22.6757 20.4223 22.6757 21.1041C22.6757 21.1218 22.6766 21.1393 22.6771 21.1569L16.5757 24.6782C16.5455 24.6595 16.5149 24.6416 16.4836 24.6247V17.5805C17.0457 17.277 17.4286 16.6824 17.4286 16C17.4286 15.9813 17.4277 15.9628 17.4271 15.9443L23.5262 12.4244ZM14.6686 7.33322C14.9475 7.51185 15.2786 7.61597 15.6337 7.61597C15.9886 7.61597 16.3194 7.51201 16.5982 7.33353L22.6771 10.8445C22.6766 10.8617 22.6758 10.8787 22.6758 10.8959C22.6758 10.8964 22.6758 10.8969 22.6758 10.8974C22.6758 10.8979 22.6758 10.8984 22.6758 10.8989C22.6758 10.9166 22.6766 10.9341 22.6771 10.9517L16.5757 14.473C16.3017 14.3033 15.979 14.2051 15.6337 14.2051C15.2872 14.2051 14.9635 14.3041 14.6889 14.4748L8.58851 10.9514C8.58902 10.934 8.58985 10.9166 8.58985 10.899C8.58985 10.8985 8.58981 10.898 8.58981 10.8975C8.58981 10.897 8.58985 10.8966 8.58985 10.896C8.58985 10.878 8.58902 10.8602 8.58847 10.8423L14.6686 7.33322ZM7.64459 12.4796C7.67694 12.4621 7.70859 12.4435 7.73969 12.4242L13.8401 15.9477C13.8396 15.9651 13.8388 15.9825 13.8388 16.0001C13.8388 16.6825 14.2216 17.277 14.7837 17.5805V24.6247C14.7515 24.6421 14.7199 24.6607 14.6889 24.68L8.58847 21.1565C8.58898 21.1391 8.58981 21.1217 8.58981 21.1041C8.58981 20.4212 8.20628 19.8262 7.64337 19.5229L7.64459 12.4796Z" fill="#828282"/>
</svg>
