<svg width="32" height="32" viewBox="0 0 32 32" fill="none" xmlns="http://www.w3.org/2000/svg">
<path d="M5.67382 23.3245C4.84857 23.3245 4 23.9858 4 25.1433C4 26.2014 4.74609 26.9489 5.67382 26.9489C6.4396 26.9489 6.7809 26.4349 6.7809 26.4349V26.6589C6.7809 26.7648 6.88103 26.883 7.00496 26.883H7.5585V23.4036H6.7809V23.8451C6.7809 23.8451 6.43674 23.3245 5.67382 23.3245V23.3245ZM5.81233 24.036C6.49168 24.036 6.84804 24.6334 6.84804 25.143C6.84804 25.7106 6.42493 26.2497 5.81377 26.2497C5.30288 26.2497 4.79112 25.8359 4.79112 25.1355C4.79112 24.5033 5.23152 24.036 5.81233 24.036Z" fill="#828282"/>
<path d="M8.63934 26.8829C8.51987 26.8829 8.41528 26.7972 8.41528 26.6589V23.4035H9.19288V23.8341C9.36908 23.5692 9.71333 23.3234 10.2417 23.3234C11.1053 23.3234 11.5652 24.0118 11.5652 24.6556V26.8829H11.0249C10.8832 26.8829 10.7876 26.7643 10.7876 26.6457V24.8269C10.7876 24.4701 10.569 24.0367 10.0634 24.0367C9.51776 24.0367 9.19288 24.5523 9.19288 25.0378V26.8829L8.63934 26.8829Z" fill="#828282"/>
<path d="M13.832 23.3245C13.0068 23.3245 12.1582 23.9858 12.1582 25.1433C12.1582 26.2014 12.9043 26.9489 13.832 26.9489C14.5978 26.9489 14.9391 26.4349 14.9391 26.4349V26.6589C14.9391 26.7648 15.0392 26.883 15.1631 26.883H15.7167V21.6638H14.9391V23.8451C14.9391 23.8451 14.5949 23.3245 13.832 23.3245V23.3245ZM13.9705 24.036C14.6499 24.036 15.0062 24.6334 15.0062 25.143C15.0062 25.7106 14.5831 26.2497 13.972 26.2497C13.4611 26.2497 12.9493 25.8359 12.9493 25.1355C12.9493 24.5033 13.3897 24.036 13.9705 24.036Z" fill="#828282"/>
<path d="M16.7973 26.8829C16.6778 26.8829 16.5732 26.7972 16.5732 26.6589V23.4035H17.3508V23.9834C17.4847 23.6586 17.7735 23.364 18.2866 23.364C18.4296 23.364 18.5634 23.3903 18.5634 23.3903V24.1943C18.5634 24.1943 18.3964 24.1284 18.1943 24.1284C17.6487 24.1284 17.3508 24.644 17.3508 25.1295V26.8829H16.7973Z" fill="#828282"/>
<path d="M23.2817 26.8829C23.1622 26.8829 23.0576 26.7972 23.0576 26.6589V23.4035H23.8352V26.8829L23.2817 26.8829Z" fill="#828282"/>
<path d="M26.1152 23.3245C25.29 23.3245 24.4414 23.9858 24.4414 25.1433C24.4414 26.2014 25.1875 26.9489 26.1152 26.9489C26.881 26.9489 27.2223 26.4349 27.2223 26.4349V26.6589C27.2223 26.7648 27.3224 26.883 27.4464 26.883H27.9999V21.6638H27.2223V23.8451C27.2223 23.8451 26.8781 23.3245 26.1152 23.3245V23.3245ZM26.2537 24.036C26.9331 24.036 27.2894 24.6334 27.2894 25.143C27.2894 25.7106 26.8663 26.2497 26.2552 26.2497C25.7443 26.2497 25.2325 25.8359 25.2325 25.1355C25.2325 24.5033 25.6729 24.036 26.2537 24.036Z" fill="#828282"/>
<path d="M23.4409 22.6532C23.7249 22.6532 23.9551 22.423 23.9551 22.139C23.9551 21.8551 23.7249 21.6249 23.4409 21.6249C23.157 21.6249 22.9268 21.8551 22.9268 22.139C22.9268 22.423 23.157 22.6532 23.4409 22.6532Z" fill="#828282"/>
<path d="M20.6143 23.3233C19.75 23.3233 18.8005 23.9684 18.8005 25.1371C18.8005 26.202 19.6093 26.949 20.6124 26.949C21.8487 26.949 22.4523 25.9552 22.4523 25.1438C22.4523 24.1482 21.675 23.3233 20.6143 23.3233ZM20.6171 24.0495C21.2148 24.0495 21.6606 24.5311 21.6606 25.1392C21.6606 25.7579 21.1873 26.2353 20.6189 26.2353C20.0912 26.2353 19.5783 25.8058 19.5783 25.1496C19.5783 24.4825 20.0661 24.0495 20.6171 24.0495Z" fill="#828282"/>
<path d="M21.8571 10.0523L23.8466 6.60584C23.9589 6.41263 23.891 6.1672 23.7004 6.05493C23.5098 5.94266 23.2618 6.00793 23.1521 6.20114L21.1364 9.69196C19.5986 8.98962 17.8676 8.59797 16.006 8.59797C14.1444 8.59797 12.4133 8.98961 10.8755 9.69196L8.85981 6.20114C8.74754 6.00793 8.50212 5.94266 8.30891 6.05493C8.1157 6.1672 8.05042 6.41263 8.16269 6.60584L10.1522 10.0523C6.72145 11.9113 4.39772 15.3838 4.01392 19.449H27.998C27.6142 15.3838 25.2905 11.9112 21.8571 10.0523H21.8571ZM10.4995 16.0809C9.94335 16.0809 9.49427 15.6292 9.49427 15.0757C9.49427 14.5196 9.94597 14.0705 10.4995 14.0705C11.0556 14.0705 11.5047 14.5222 11.5047 15.0757C11.5073 15.6292 11.0556 16.0809 10.4995 16.0809ZM21.5098 16.0809C20.9537 16.0809 20.5046 15.6292 20.5046 15.0757C20.5046 14.5196 20.9563 14.0705 21.5098 14.0705C22.066 14.0705 22.515 14.5222 22.515 15.0757C22.5177 15.6292 22.066 16.0809 21.5098 16.0809Z" fill="#828282"/>
</svg>
