<svg width="32" height="32" viewBox="0 0 32 32" fill="none" xmlns="http://www.w3.org/2000/svg">
<path d="M6.33329 19.8467C5.71142 20.6915 5.42203 21.7356 5.52024 22.78C5.61845 23.8244 6.0974 24.7962 6.86585 25.5103C7.63431 26.2244 8.63859 26.6309 9.6874 26.6524C10.7362 26.6738 11.7563 26.3087 12.5533 25.6267C11.0674 25.371 9.688 24.6883 8.5835 23.6619C7.479 22.6356 6.69713 21.3099 6.33329 19.8467Z" fill="#828282"/>
<path d="M9.11992 13.6867C8.02726 14.8954 7.43675 16.4753 7.46877 18.1043C7.50079 19.7334 8.15293 21.2888 9.29223 22.4537C10.4315 23.6185 11.9722 24.3049 13.6001 24.373C15.2281 24.441 16.8207 23.8856 18.0532 22.82C15.6879 22.7018 13.4542 21.6956 11.7982 20.0026C10.1422 18.3095 9.18578 16.0541 9.11992 13.6867Z" fill="#828282"/>
<path d="M18.52 5.33334C20.1172 5.33335 21.6786 5.80673 23.0069 6.69369C24.3352 7.58065 25.3708 8.8414 25.983 10.3167C26.5951 11.7919 26.7563 13.4155 26.4461 14.9823C26.136 16.5492 25.3684 17.9889 24.2404 19.1197C23.1124 20.2505 21.6746 21.0216 20.1085 21.3356C18.5425 21.6497 16.9185 21.4925 15.4417 20.884C13.9649 20.2755 12.7016 19.243 11.8114 17.9169C10.9212 16.5908 10.4439 15.0306 10.44 13.4333C10.4373 12.3706 10.6444 11.3177 11.0493 10.3351C11.4542 9.3525 12.0489 8.4594 12.7995 7.70699C13.55 6.95457 14.4416 6.35761 15.4233 5.9503C16.4049 5.543 17.4572 5.33334 18.52 5.33334Z" fill="#828282"/>
</svg>
