<svg width="32" height="32" viewBox="0 0 32 32" fill="none" xmlns="http://www.w3.org/2000/svg">
<path d="M8.88805 19.4767C8.76429 19.4767 8.64559 19.5258 8.55807 19.6134C8.47055 19.7009 8.42139 19.8196 8.42139 19.9433V21.614C8.42139 21.7415 8.47203 21.8637 8.56217 21.9539C8.65231 22.044 8.77457 22.0947 8.90205 22.0947C9.02953 22.0947 9.15179 22.044 9.24194 21.9539C9.33208 21.8637 9.38272 21.7415 9.38272 21.614V19.9573C9.38479 19.8925 9.37329 19.8279 9.34898 19.7677C9.32466 19.7075 9.28806 19.653 9.2415 19.6078C9.19495 19.5626 9.13947 19.5275 9.07861 19.505C9.01775 19.4824 8.95285 19.4727 8.88805 19.4767Z" fill="#828282"/>
<path d="M9.36868 16.6207C9.36868 16.4932 9.31804 16.3709 9.2279 16.2808C9.13776 16.1906 9.0155 16.14 8.88802 16.14C8.76053 16.14 8.63828 16.1906 8.54813 16.2808C8.45799 16.3709 8.40735 16.4932 8.40735 16.6207V18.2913C8.40735 18.4188 8.45799 18.5411 8.54813 18.6312C8.63828 18.7214 8.76053 18.772 8.88802 18.772C9.0155 18.772 9.13776 18.7214 9.2279 18.6312C9.31804 18.5411 9.36868 18.4188 9.36868 18.2913V16.6207Z" fill="#828282"/>
<path d="M12.0427 16.9753H14.0213C14.1488 16.9753 14.2711 16.9247 14.3612 16.8346C14.4514 16.7444 14.502 16.6222 14.502 16.4947C14.502 16.3672 14.4514 16.2449 14.3612 16.1548C14.2711 16.0646 14.1488 16.014 14.0213 16.014H12.0427C11.9152 16.014 11.7929 16.0646 11.7028 16.1548C11.6127 16.2449 11.562 16.3672 11.562 16.4947C11.562 16.6222 11.6127 16.7444 11.7028 16.8346C11.7929 16.9247 11.9152 16.9753 12.0427 16.9753Z" fill="#828282"/>
<path d="M18.7673 19.9013C18.7673 19.7776 18.7182 19.6589 18.6307 19.5713C18.5431 19.4838 18.4244 19.4347 18.3007 19.4347H12.0427C11.9152 19.4347 11.7929 19.4853 11.7028 19.5754C11.6127 19.6656 11.562 19.7878 11.562 19.9153C11.562 20.0428 11.6127 20.1651 11.7028 20.2552C11.7929 20.3454 11.9152 20.396 12.0427 20.396H18.2867C18.3516 20.3981 18.4162 20.3866 18.4763 20.3623C18.5365 20.3379 18.591 20.3013 18.6362 20.2548C18.6815 20.2082 18.7165 20.1527 18.7391 20.0919C18.7616 20.031 18.7713 19.9661 18.7673 19.9013Z" fill="#828282"/>
<path d="M12.0427 21.2733C11.9152 21.2733 11.7929 21.324 11.7028 21.4141C11.6127 21.5043 11.562 21.6265 11.562 21.754C11.562 21.8815 11.6127 22.0037 11.7028 22.0939C11.7929 22.184 11.9152 22.2347 12.0427 22.2347H16.7093C16.8368 22.2347 16.9591 22.184 17.0492 22.0939C17.1394 22.0037 17.19 21.8815 17.19 21.754C17.19 21.6265 17.1394 21.5043 17.0492 21.4141C16.9591 21.324 16.8368 21.2733 16.7093 21.2733H12.0427Z" fill="#828282"/>
<path d="M28.1333 17.596L25.856 11.8L27.2 10.4793C27.5486 10.1285 27.7618 9.66561 27.802 9.17266C27.8245 8.96273 27.7993 8.75041 27.7282 8.55161C27.6571 8.3528 27.5419 8.17266 27.3913 8.02466C27.2421 7.87363 27.0615 7.7573 26.8623 7.68391C26.6631 7.61051 26.4502 7.58187 26.2387 7.59999C25.7492 7.64307 25.2902 7.85604 24.9413 8.20199L23.588 9.55533L17.8153 7.29666C17.7283 7.26003 17.6321 7.25067 17.5397 7.26984C17.4472 7.289 17.3627 7.33578 17.2973 7.40399L16.2427 8.45866C16.1938 8.50617 16.156 8.56379 16.1318 8.62748C16.1076 8.69117 16.0977 8.75938 16.1027 8.82733C16.1106 8.9449 16.1602 9.05577 16.2427 9.13999C16.2561 9.15492 16.2718 9.16754 16.2893 9.17733L17.442 10.0733L17.2973 10.218C17.207 10.3083 17.1562 10.4309 17.1562 10.5587C17.1562 10.6864 17.207 10.809 17.2973 10.8993C17.3877 10.9897 17.5102 11.0404 17.638 11.0404C17.7658 11.0404 17.8883 10.9897 17.9787 10.8993L18.2073 10.6707L19.024 11.3053L18.8747 11.4547C18.7843 11.545 18.7336 11.6676 18.7336 11.7953C18.7336 11.9231 18.7843 12.0456 18.8747 12.136C18.965 12.2263 19.0876 12.2771 19.2153 12.2771C19.3431 12.2771 19.4656 12.2263 19.556 12.136L19.7893 11.9027L20.606 12.5373L19.0287 14.1333L18.7813 14.3993L17.2553 13.8113C17.1684 13.7763 17.073 13.7682 16.9814 13.7882C16.8898 13.8082 16.8064 13.8553 16.742 13.9233L16.0653 14.6C16.0187 14.6436 15.9815 14.6964 15.9561 14.755C15.9307 14.8136 15.9176 14.8768 15.9176 14.9407C15.9176 15.0045 15.9307 15.0677 15.9561 15.1263C15.9815 15.1849 16.0187 15.2377 16.0653 15.2813L17.498 16.714C17.4747 16.798 17.4467 16.882 17.428 16.966C17.3921 17.1091 17.3939 17.2591 17.4333 17.4013C17.4726 17.5435 17.5482 17.6731 17.6525 17.7775C17.7568 17.8818 17.8864 17.9574 18.0287 17.9967C18.1709 18.036 18.3209 18.0379 18.464 18.002L18.7113 17.932L20.1487 19.3647C20.1923 19.4105 20.2447 19.4471 20.3029 19.4721C20.3611 19.497 20.4237 19.5099 20.487 19.5099C20.5503 19.5099 20.6129 19.497 20.6711 19.4721C20.7293 19.4471 20.7817 19.4105 20.8253 19.3647L21.5067 18.6833C21.5739 18.6184 21.6201 18.5347 21.6393 18.4432C21.6584 18.3516 21.6496 18.2565 21.614 18.17L21.0307 16.644C21.1193 16.5647 21.208 16.4853 21.292 16.4013L22.8693 14.8193L23.5087 15.6407L23.2753 15.8693C23.2287 15.913 23.1915 15.9657 23.1661 16.0243C23.1407 16.0829 23.1276 16.1461 23.1276 16.21C23.1276 16.2739 23.1407 16.3371 23.1661 16.3957C23.1915 16.4542 23.2287 16.507 23.2753 16.5507C23.319 16.5973 23.3717 16.6345 23.4303 16.6599C23.4889 16.6853 23.5521 16.6984 23.616 16.6984C23.6799 16.6984 23.7431 16.6853 23.8017 16.6599C23.8602 16.6345 23.913 16.5973 23.9567 16.5507L24.1013 16.406L24.7407 17.2227L24.512 17.4513C24.4673 17.4961 24.4318 17.5492 24.4076 17.6076C24.3833 17.6661 24.3709 17.7287 24.3709 17.792C24.3709 17.8553 24.3833 17.9179 24.4076 17.9764C24.4318 18.0348 24.4673 18.0879 24.512 18.1327C24.5567 18.1774 24.6098 18.2129 24.6683 18.2371C24.7267 18.2613 24.7894 18.2738 24.8527 18.2738C24.9159 18.2738 24.9786 18.2613 25.037 18.2371C25.0955 18.2129 25.1486 18.1774 25.1933 18.1327L25.3333 17.988L26.2293 19.1407L26.2713 19.1873C26.355 19.2678 26.4637 19.3172 26.5793 19.3273C26.648 19.333 26.7171 19.3234 26.7817 19.2992C26.8463 19.275 26.9046 19.2368 26.9527 19.1873L28.0073 18.128C28.0816 18.0638 28.1338 17.9779 28.1564 17.8824C28.179 17.7869 28.1709 17.6867 28.1333 17.596ZM17.8667 15.72L17.0687 14.922L17.19 14.8053L18.17 15.1787C18.0599 15.3539 17.9586 15.5346 17.8667 15.72ZM17.3067 8.75266L17.7733 8.28599L22.8647 10.2787L21.3107 11.8327L17.3067 8.75266ZM20.4847 18.3333L19.6913 17.54C19.8733 17.4467 20.0553 17.344 20.228 17.2367L20.606 18.2167L20.4847 18.3333ZM20.6107 15.7107C19.9972 16.3225 19.2398 16.7702 18.408 17.0127C18.6536 16.1729 19.1099 15.4099 19.7333 14.796L25.6227 8.88333C25.8103 8.69554 26.0582 8.57988 26.3227 8.55666C26.3921 8.55026 26.4621 8.55951 26.5276 8.58374C26.593 8.60797 26.6521 8.64656 26.7007 8.69666C26.7538 8.74957 26.7935 8.81452 26.8162 8.88601C26.839 8.95749 26.8442 9.03341 26.8313 9.10733C26.8097 9.36721 26.6955 9.61067 26.5093 9.79333L20.6107 15.7107ZM26.654 18.1L23.5553 14.1333L25.114 12.5793L27.102 17.6707L26.654 18.1Z" fill="#828282"/>
<path d="M12.0427 16.9753H14.0213C14.1488 16.9753 14.2711 16.9247 14.3612 16.8346C14.4514 16.7444 14.502 16.6222 14.502 16.4947C14.502 16.3672 14.4514 16.2449 14.3612 16.1548C14.2711 16.0646 14.1488 16.014 14.0213 16.014H12.0427C11.9152 16.014 11.7929 16.0646 11.7028 16.1548C11.6127 16.2449 11.562 16.3672 11.562 16.4947C11.562 16.6222 11.6127 16.7444 11.7028 16.8346C11.7929 16.9247 11.9152 16.9753 12.0427 16.9753Z" fill="#828282"/>
<path d="M11.562 19.9013C11.562 20.0251 11.6112 20.1438 11.6987 20.2313C11.7862 20.3188 11.9049 20.368 12.0287 20.368H18.282C18.4095 20.368 18.5318 20.3174 18.6219 20.2272C18.712 20.1371 18.7627 20.0148 18.7627 19.8873C18.7627 19.7599 18.712 19.6376 18.6219 19.5475C18.5318 19.4573 18.4095 19.4067 18.282 19.4067H12.0427C11.9778 19.4046 11.9132 19.4161 11.853 19.4404C11.7928 19.4647 11.7384 19.5013 11.6931 19.5479C11.6479 19.5944 11.6129 19.6499 11.5903 19.7108C11.5677 19.7716 11.5581 19.8365 11.562 19.9013Z" fill="#828282"/>
<path d="M12.0427 21.2733C11.9152 21.2733 11.7929 21.324 11.7028 21.4141C11.6127 21.5043 11.562 21.6265 11.562 21.754C11.562 21.8815 11.6127 22.0037 11.7028 22.0939C11.7929 22.184 11.9152 22.2347 12.0427 22.2347H16.7093C16.8368 22.2347 16.9591 22.184 17.0492 22.0939C17.1394 22.0037 17.19 21.8815 17.19 21.754C17.19 21.6265 17.1394 21.5043 17.0492 21.4141C16.9591 21.324 16.8368 21.2733 16.7093 21.2733H12.0427Z" fill="#828282"/>
<path d="M25.2493 20.4613C25.1255 20.4613 25.0068 20.5105 24.9193 20.598C24.8318 20.6855 24.7826 20.8042 24.7826 20.928V23.602C24.7814 23.6445 24.7637 23.6849 24.7332 23.7145C24.7027 23.7441 24.6618 23.7607 24.6193 23.7607H5.29463L5.9993 22.8273C6.0644 22.7449 6.09982 22.643 6.09982 22.538C6.09982 22.433 6.0644 22.3311 5.9993 22.2487L4.9353 20.8487L5.9993 19.4487C6.06325 19.3667 6.09799 19.2657 6.09799 19.1617C6.09799 19.0577 6.06325 18.9567 5.9993 18.8747L4.9353 17.4L5.9993 16C6.06325 15.918 6.09799 15.817 6.09799 15.713C6.09799 15.609 6.06325 15.508 5.9993 15.426L5.29463 14.4927H13.62C13.7474 14.4927 13.8697 14.442 13.9598 14.3519C14.05 14.2617 14.1006 14.1395 14.1006 14.012C14.1006 13.8845 14.05 13.7623 13.9598 13.6721C13.8697 13.582 13.7474 13.5313 13.62 13.5313H7.1753L7.5953 11.5573L15.5333 13.2C15.5946 13.2132 15.6579 13.2142 15.7195 13.2029C15.7812 13.1916 15.84 13.1683 15.8927 13.1343C15.9453 13.1002 15.9908 13.0562 16.0264 13.0046C16.062 12.953 16.0871 12.8949 16.1003 12.8337C16.1135 12.7724 16.1144 12.7091 16.1032 12.6474C16.0919 12.5858 16.0686 12.5269 16.0346 12.4743C16.0005 12.4216 15.9565 12.3762 15.9049 12.3406C15.8533 12.305 15.7952 12.2798 15.734 12.2667L7.66063 10.5493C7.4555 10.5105 7.24329 10.553 7.06904 10.668C6.89479 10.7831 6.7722 10.9614 6.7273 11.1653L6.19997 13.5127H4.3333C4.24132 13.506 4.14943 13.5267 4.06923 13.5722C3.98902 13.6178 3.9241 13.686 3.88266 13.7684C3.84122 13.8508 3.82512 13.9436 3.83638 14.0351C3.84765 14.1267 3.88578 14.2128 3.94597 14.2827L5.01463 15.6827L3.94597 17.0827C3.88454 17.1666 3.85142 17.268 3.85142 17.372C3.85142 17.476 3.88454 17.5774 3.94597 17.6613L5.01463 19.1267L3.94597 20.5267C3.88454 20.6106 3.85142 20.712 3.85142 20.816C3.85142 20.92 3.88454 21.0214 3.94597 21.1053L5.01463 22.5333L3.94597 23.9333C3.89221 24.004 3.8597 24.0884 3.85226 24.1769C3.84482 24.2653 3.86276 24.3541 3.90397 24.4327C3.94178 24.5144 4.00244 24.5834 4.07862 24.6315C4.1548 24.6795 4.24325 24.7045 4.3333 24.7033H24.6053C24.9036 24.7033 25.1896 24.5848 25.4006 24.3739C25.6115 24.163 25.73 23.8769 25.73 23.5787V20.942C25.7319 20.8784 25.7208 20.815 25.6973 20.7558C25.6739 20.6966 25.6385 20.6428 25.5935 20.5978C25.5485 20.5528 25.4947 20.5174 25.4355 20.494C25.3763 20.4705 25.3129 20.4594 25.2493 20.4613Z" fill="#828282"/>
</svg>
