<svg width="32" height="32" viewBox="0 0 32 32" fill="none" xmlns="http://www.w3.org/2000/svg">
<path d="M23.5059 8.05176H8.48535C6.58691 8.05176 5.59375 9.03613 5.59375 10.917V11.708H26.3975V10.917C26.3975 9.03613 25.4131 8.05176 23.5059 8.05176ZM9.26758 20.4707C8.74902 20.4707 8.39746 20.1279 8.39746 19.627V18.001C8.39746 17.5088 8.74902 17.1572 9.26758 17.1572H11.4209C11.9307 17.1572 12.2822 17.5088 12.2822 18.001V19.627C12.2822 20.1279 11.9307 20.4707 11.4209 20.4707H9.26758ZM8.48535 23.2832H23.5059C25.4131 23.2832 26.3975 22.29 26.3975 20.4092V13.7734H5.59375V20.4092C5.59375 22.2988 6.58691 23.2832 8.48535 23.2832Z" fill="#828282"/>
</svg>
