<svg width="32" height="32" viewBox="0 0 32 32" fill="none" xmlns="http://www.w3.org/2000/svg">
<path d="M20.8542 20.0868L28 13.2979L23.5428 8.60641L20.8542 20.0868ZM26.384 13.2564L22.8394 16.6234L24.1729 10.9293L26.384 13.2564Z" fill="#828282"/>
<path d="M22.8334 8.12595L22.8081 8.11978L16.4758 6.63687L16.4525 6.7357L20.3269 18.8293L22.8334 8.12595ZM18.121 8.19649L21.4594 8.9781L20.1553 14.5464L18.121 8.19649Z" fill="#828282"/>
<path d="M9.3374 8.55152L9.56532 9.26315L19.6358 19.3336L19.6422 19.3143L15.5558 6.55905L9.3374 8.55152ZM11.105 9.18571L14.8158 7.99716L17.1251 15.2065L11.105 9.18571Z" fill="#828282"/>
<path d="M20.1255 20.8587L20.1598 20.8238L20.142 20.8059L8.61699 9.28094L8.60599 9.29213L4 13.8981L15.5428 25.4409L20.1255 20.8587ZM8.61699 10.8977L18.543 20.8238L15.5428 23.8242L5.61652 13.8981L8.61699 10.8977Z" fill="#828282"/>
<path d="M15.5787 19.8948C16.1311 19.8948 16.579 20.3429 16.579 20.8952C16.579 21.4475 16.1311 21.8956 15.5787 21.8956C15.0261 21.8956 14.5782 21.4475 14.5782 20.8952C14.5782 20.3429 15.0261 19.8948 15.5787 19.8948Z" fill="#828282"/>
</svg>
