<svg width="32" height="32" viewBox="0 0 32 32" fill="none" xmlns="http://www.w3.org/2000/svg">
<path d="M26.959 24.2439C26.2708 23.9723 25.669 23.5053 25.235 22.8973C26.9348 21.7488 28.0001 20.1023 28.0001 18.273C28.0001 16.2713 26.7247 14.4882 24.7378 13.3373C24.5279 18.1868 19.3811 21.6402 13.5899 21.6402C13.1025 21.6402 12.6195 21.6151 12.1418 21.5679C13.6499 23.362 16.3523 24.5579 19.4358 24.5579C20.5604 24.5579 21.6343 24.3985 22.6182 24.1094C23.4985 24.9332 24.7508 25.3327 26.0218 25.0722C26.3632 25.0022 26.6845 24.8891 26.9816 24.7395C27.0773 24.6914 27.1357 24.5915 27.1309 24.4844C27.126 24.3773 27.0587 24.2833 26.959 24.2439Z" fill="#828282"/>
<path d="M23.1798 13.0375C23.1798 9.15078 18.8862 6 13.5899 6C8.29355 6 4 9.15078 4 13.0375C4 15.0857 5.1927 16.9292 7.09584 18.2153C6.59654 18.9147 5.89913 19.4475 5.10212 19.7478C5.002 19.7855 4.93329 19.8784 4.92661 19.9852C4.91993 20.092 4.97659 20.1927 5.07129 20.2426C5.69111 20.5689 6.38769 20.7393 7.08374 20.7393C8.19541 20.7393 9.24254 20.3062 10.0264 19.5727C11.1281 19.8965 12.3306 20.0749 13.5899 20.0749C18.8863 20.0749 23.1798 16.9242 23.1798 13.0375Z" fill="#828282"/>
</svg>
