<svg width="32" height="32" viewBox="0 0 32 32" fill="none" xmlns="http://www.w3.org/2000/svg">
<path d="M28 8.28571C28 8.84852 27.6896 9.40582 27.0866 9.92579C26.4835 10.4458 25.5996 10.9182 24.4853 11.3162C23.371 11.7141 22.0481 12.0298 20.5922 12.2452C19.1363 12.4606 17.5759 12.5714 16 12.5714C12.8174 12.5714 9.76515 12.1199 7.51472 11.3162C5.26428 10.5124 4 9.42236 4 8.28571C4 7.72291 4.31039 7.16561 4.91345 6.64564C5.5165 6.12568 6.40042 5.65322 7.51472 5.25526C8.62902 4.85729 9.95189 4.54161 11.4078 4.32623C12.8637 4.11085 14.4241 4 16 4C17.5759 4 19.1363 4.11085 20.5922 4.32623C22.0481 4.54161 23.371 4.85729 24.4853 5.25526C25.5996 5.65322 26.4835 6.12568 27.0866 6.64564C27.6896 7.16561 28 7.72291 28 8.28571V8.28571Z" stroke="#828282" stroke-width="2" stroke-linecap="round" stroke-linejoin="round"/>
<path d="M28 23.7143C28 24.4666 27.4455 25.2056 26.3923 25.8571C25.3391 26.5086 23.8242 27.0497 22 27.4258C20.1758 27.802 18.1064 28 16 28C13.8936 28 11.8242 27.802 10 27.4258C8.17577 27.0497 6.66091 26.5086 5.60769 25.8571C4.55447 25.2056 4 24.4666 4 23.7143" stroke="#828282" stroke-width="2" stroke-linecap="round" stroke-linejoin="round"/>
<path d="M28 18.5714C28 19.3237 27.4455 20.0628 26.3923 20.7143C25.3391 21.3658 23.8242 21.9068 22 22.283C20.1758 22.6591 18.1064 22.8571 16 22.8571C13.8936 22.8571 11.8242 22.6591 10 22.283C8.17577 21.9068 6.66091 21.3658 5.6077 20.7143C4.55448 20.0628 4 19.3237 4 18.5714" stroke="#828282" stroke-width="2" stroke-linecap="round" stroke-linejoin="round"/>
<path d="M28 13.4286C28 14.1809 27.4455 14.9199 26.3923 15.5714C25.3391 16.2229 23.8242 16.764 22 17.1401C20.1758 17.5163 18.1064 17.7143 16 17.7143C13.8936 17.7143 11.8242 17.5163 10 17.1401C8.17577 16.764 6.66091 16.2229 5.60769 15.5714C4.55447 14.9199 4 14.1809 4 13.4286" stroke="#828282" stroke-width="2" stroke-linecap="round" stroke-linejoin="round"/>
<path d="M4 8.28574V23.7143" stroke="#828282" stroke-width="2" stroke-linecap="round" stroke-linejoin="round"/>
<path d="M28 8.28571V23.7143" stroke="#828282" stroke-width="2" stroke-linecap="round" stroke-linejoin="round"/>
</svg>
