<svg width="32" height="32" viewBox="0 0 32 32" fill="none" xmlns="http://www.w3.org/2000/svg">
<path d="M7 23.4621C7 25.6317 8.125 26.7667 10.2746 26.7667H20.9821C23.1417 26.7667 24.2567 25.6317 24.2567 23.4621V8.31473C24.2567 6.13504 23.1417 5 20.9821 5H10.2746C8.125 5 7 6.13504 7 8.31473V23.4621ZM8.99888 23.3315V8.43527C8.99888 7.51116 9.48103 7.00893 10.4554 7.00893H20.8013C21.7757 7.00893 22.2578 7.51116 22.2578 8.43527V23.3315C22.2578 24.2556 21.7757 24.7578 20.8013 24.7578H10.4554C9.48103 24.7578 8.99888 24.2556 8.99888 23.3315Z" fill="#828282"/>
</svg>
