<svg width="32" height="32" viewBox="0 0 32 32" fill="none" xmlns="http://www.w3.org/2000/svg">
<path d="M17.7522 27.279L25.567 22.7489C26.4107 22.2567 26.7824 21.8348 26.7824 21.202C26.7824 20.5592 26.4107 20.1473 25.567 19.6451L24.2009 18.8516L25.567 18.058C26.4107 17.5658 26.7824 17.144 26.7824 16.5112C26.7824 15.8783 26.4107 15.4565 25.567 14.9643L23.9498 14.0201L25.567 13.0859C26.4107 12.5937 26.7824 12.1719 26.7824 11.5391C26.7824 10.8962 26.4107 10.4844 25.567 9.98214L17.7522 5.45201C17.2299 5.15067 16.8181 5 16.3962 5C15.9643 5 15.5525 5.15067 15.0301 5.45201L7.2154 9.98214C6.37165 10.4844 6 10.8962 6 11.5391C6 12.1719 6.37165 12.5937 7.2154 13.0859L8.83259 14.0301L7.2154 14.9643C6.37165 15.4565 6 15.8783 6 16.5112C6 17.144 6.37165 17.5658 7.2154 18.058L8.59152 18.8516L7.2154 19.6451C6.37165 20.1473 6 20.5592 6 21.202C6 21.8348 6.37165 22.2567 7.2154 22.7489L15.0301 27.279C15.5525 27.5804 15.9643 27.731 16.3962 27.731C16.8181 27.731 17.2299 27.5804 17.7522 27.279ZM16.3962 18.0681C16.8181 18.0681 17.2299 17.9275 17.7522 17.6161L21.9911 15.1652L24.2009 16.4107C24.2411 16.4408 24.2712 16.4609 24.2712 16.5112C24.2712 16.5614 24.2411 16.5815 24.2009 16.6116L16.798 20.8203C16.6473 20.9107 16.5268 20.9509 16.3962 20.9509C16.2556 20.9509 16.135 20.9107 15.9844 20.8203L8.59152 16.6116C8.54129 16.5815 8.52121 16.5614 8.52121 16.5112C8.52121 16.4609 8.54129 16.4408 8.59152 16.4107L10.7913 15.1551L15.0301 17.6161C15.5525 17.9275 15.9643 18.0681 16.3962 18.0681ZM15.9844 25.5112L8.59152 21.2924C8.54129 21.2723 8.52121 21.2422 8.52121 21.202C8.52121 21.1518 8.54129 21.1317 8.59152 21.1016L10.5502 19.9866L15.0301 22.5882C15.5525 22.8996 15.9643 23.0502 16.3962 23.0502C16.8181 23.0502 17.2299 22.8996 17.7522 22.5882L22.2422 19.9866L24.2009 21.1016C24.2411 21.1317 24.2712 21.1518 24.2712 21.202C24.2712 21.2422 24.2411 21.2723 24.2009 21.2924L16.798 25.5112C16.6473 25.5915 16.5268 25.6417 16.3962 25.6417C16.2556 25.6417 16.135 25.5915 15.9844 25.5112Z" fill="#828282"/>
</svg>
