<svg width="32" height="32" viewBox="0 0 32 32" fill="none" xmlns="http://www.w3.org/2000/svg">
<path d="M4 4V14.9565H14.9565V4H4ZM13.3913 13.3913H5.5652V5.5652H13.3913V13.3913Z" fill="#828282"/>
<path d="M11.8261 7.13046H7.13049V11.8261H11.8261V7.13046Z" fill="#828282"/>
<path d="M17.0435 4V14.9565H28V4H17.0435ZM26.4348 13.3913H18.6087V5.5652H26.4348V13.3913Z" fill="#828282"/>
<path d="M24.8696 7.13046H20.174V11.8261H24.8696V7.13046Z" fill="#828282"/>
<path d="M4 17.0435V28H14.9565V17.0435H4ZM13.3913 26.4348H5.5652V18.6087H13.3913V26.4348Z" fill="#828282"/>
<path d="M11.8261 20.1739H7.13049V24.8695H11.8261V20.1739Z" fill="#828282"/>
<path d="M20.1739 18.6087V17.0435H17.0435V28H20.1739V26.4348H18.6087V23.3043H20.1739V21.7391H18.6087V18.6087H20.1739Z" fill="#828282"/>
<path d="M28 17.0435H26.4348V18.6087H28V17.0435Z" fill="#828282"/>
<path d="M26.4348 20.6956V26.4348H24.8695V28H28V20.6956H26.4348Z" fill="#828282"/>
<path d="M24.8696 17.0435H21.7391V18.6087H24.8696V17.0435Z" fill="#828282"/>
<path d="M24.8695 21.7391V20.1739H21.7391V24.8695H24.8695V23.3043H23.3043V21.7391H24.8695Z" fill="#828282"/>
<path d="M23.3043 26.4348H21.7391V28H23.3043V26.4348Z" fill="#828282"/>
</svg>
