<svg width="32" height="32" viewBox="0 0 32 32" fill="none" xmlns="http://www.w3.org/2000/svg">
<path d="M27.6975 26.281L20.8116 19.3901C22.1691 17.762 22.9856 15.6815 22.9856 13.4091C22.9856 8.22501 18.731 4.00983 13.4977 4.00983C8.26437 4.00983 4 8.22993 4 13.4141C4 18.5982 8.25453 22.8134 13.4879 22.8134C15.711 22.8134 17.7571 22.051 19.3803 20.7771L26.2908 27.6877C26.6941 28.091 27.2942 28.091 27.6975 27.6877C28.1008 27.2843 28.1008 26.6843 27.6975 26.281ZM6.0166 13.4141C6.0166 9.34152 9.37104 6.03134 13.4879 6.03134C17.6047 6.03134 20.9591 9.34152 20.9591 13.4141C20.9591 17.4866 17.6047 20.7968 13.4879 20.7968C9.37104 20.7968 6.0166 17.4817 6.0166 13.4141Z" fill="#828282"/>
</svg>
