<svg width="32" height="32" viewBox="0 0 32 32" fill="none" xmlns="http://www.w3.org/2000/svg">
<path d="M27.9465 13.6801C27.8181 13.285 27.4767 12.9971 27.0657 12.9375L20.0956 11.9248L16.9784 5.60825C16.7946 5.23582 16.4152 5 16 5C15.5846 5 15.2053 5.23582 15.0215 5.60825L11.9046 11.9247L4.93423 12.9374C4.52325 12.9971 4.18174 13.285 4.05342 13.68C3.92511 14.0751 4.03211 14.5087 4.32954 14.7985L9.37327 19.7144L8.18215 26.6572C8.11196 27.0666 8.2802 27.4802 8.61619 27.7244C8.80626 27.8625 9.03139 27.9328 9.25761 27.9328C9.43124 27.9328 9.6056 27.8914 9.76527 27.8074L15.9999 24.5298L22.2344 27.8074C22.3951 27.8919 22.5709 27.9321 22.7452 27.9328C23.3471 27.9319 23.8347 27.4437 23.8347 26.8417C23.8347 26.7579 23.8253 26.6762 23.8074 26.5978L22.6266 19.7145L27.6703 14.7985C27.9678 14.5087 28.0748 14.0751 27.9465 13.6801Z" fill="#828282"/>
</svg>
