<svg width="32" height="32" viewBox="0 0 32 32" fill="none" xmlns="http://www.w3.org/2000/svg">
<path d="M7.74427 14.693H13.7515C15.5587 14.693 16.4958 13.7559 16.4958 11.9738V8.71917C16.4958 6.93707 15.5587 6 13.7515 6H7.74427C5.93707 6 5 6.9287 5 8.71917V11.9738C5 13.7643 5.93707 14.693 7.74427 14.693ZM7.84467 13.0531C7.06657 13.0531 6.63987 12.6431 6.63987 11.8316V8.8614C6.63987 8.04984 7.06657 7.63987 7.84467 7.63987H13.6595C14.4292 7.63987 14.8559 8.04984 14.8559 8.8614V11.8316C14.8559 12.6431 14.4292 13.0531 13.6595 13.0531H7.84467ZM23.3983 15.5045C23.6661 15.8643 23.9924 15.8559 24.2601 15.5045L25.8916 13.3125C26.2597 12.8272 26.0924 12.3085 25.4482 12.3085H24.3689V12.0491C24.3689 9.59767 22.6872 7.91597 20.2274 7.91597H18.9054C18.5791 7.91597 18.303 8.19207 18.303 8.51837C18.303 8.85304 18.5791 9.12914 18.9054 9.12914H20.219C21.9844 9.12914 23.2394 10.2754 23.2394 12.0491V12.3085H22.2019C21.5828 12.3085 21.4154 12.8272 21.7752 13.3125L23.3983 15.5045ZM12.7726 23.821H14.0862C14.4209 23.821 14.6886 23.5533 14.6886 23.2186C14.6886 22.8923 14.4209 22.6162 14.0862 22.6162H12.7726C11.0073 22.6162 9.75227 21.47 9.75227 19.6963V19.4285H10.7897C11.4172 19.4285 11.5762 18.9182 11.2164 18.4329L9.60167 16.2324C9.33394 15.8727 8.99927 15.881 8.73991 16.2324L7.1084 18.4329C6.74027 18.9182 6.89924 19.4285 7.54347 19.4285H8.63114V19.6963C8.63114 22.1477 10.3045 23.821 12.7726 23.821ZM19.2401 25.737H25.2557C27.0546 25.737 28 24.8083 28 23.0262V19.7716C28 17.9811 27.0546 17.0524 25.2557 17.0524H19.2401C17.4413 17.0524 16.4958 17.9811 16.4958 19.7716V23.0262C16.4958 24.8167 17.4413 25.737 19.2401 25.737ZM19.3405 24.0971C18.5624 24.0971 18.1357 23.6955 18.1357 22.884V19.9138C18.1357 19.0939 18.5624 18.6923 19.3405 18.6923H25.1553C25.9251 18.6923 26.3601 19.0939 26.3601 19.9138V22.884C26.3601 23.6955 25.9251 24.0971 25.1553 24.0971H19.3405Z" fill="#828282"/>
</svg>
