<svg width="32" height="32" viewBox="0 0 32 32" fill="none" xmlns="http://www.w3.org/2000/svg">
<path d="M23.5147 5.87867H20.4853V5.85519C20.4853 5.45376 20.1588 5.1272 19.7573 5.1272H17.8552V5.10372C17.8552 4.49512 17.3601 4 16.7515 4H15.2485C14.6399 4 14.1448 4.49512 14.1448 5.10372V5.1272H12.2427C11.8412 5.1272 11.5147 5.45376 11.5147 5.85519V5.87867H8.48531C7.46238 5.87867 6.63013 6.71092 6.63013 7.73386V26.1448C6.63013 27.1677 7.46238 28 8.48531 28H23.5147C24.5376 28 25.3699 27.1677 25.3699 26.1448V7.73386C25.3699 6.71092 24.5376 5.87867 23.5147 5.87867ZM20.133 8.08611H23.1389C23.1519 8.08611 23.1624 8.09663 23.1624 8.10959V25.7691C23.1624 25.782 23.1519 25.7926 23.1389 25.7926H8.86105C8.84808 25.7926 8.83756 25.782 8.83756 25.7691V8.10959C8.83756 8.09663 8.84808 8.08611 8.86105 8.08611H11.867C11.8711 8.08611 11.8752 8.08564 11.8793 8.08549C12.2176 8.54145 12.7598 8.83757 13.3699 8.83757H18.6301C19.2402 8.83757 19.7824 8.54145 20.1207 8.08549C20.1248 8.08564 20.1288 8.08611 20.133 8.08611ZM14.8493 5.10372C14.8493 4.88359 15.0284 4.7045 15.2485 4.7045H16.7515C16.9716 4.7045 17.1507 4.88359 17.1507 5.10372V5.1272H14.8493V5.10372ZM12.2192 5.85519C12.2192 5.84222 12.2297 5.8317 12.2427 5.8317H19.7573C19.7703 5.8317 19.7808 5.84222 19.7808 5.85519V6.2282C19.7808 6.22914 19.7807 6.23003 19.7807 6.23092C19.7807 6.23181 19.7808 6.23275 19.7808 6.23364V6.98239C19.7808 7.61686 19.2646 8.13307 18.6301 8.13307H13.3699C12.7354 8.13307 12.2192 7.61686 12.2192 6.98239V5.85519ZM24.6654 26.1448C24.6654 26.7793 24.1491 27.2955 23.5147 27.2955H8.48531C7.85084 27.2955 7.33463 26.7793 7.33463 26.1448V7.73386C7.33463 7.09938 7.85084 6.58317 8.48531 6.58317H11.5147V6.98239C11.5147 7.11944 11.5301 7.25292 11.5584 7.3816H8.86105C8.45962 7.3816 8.13306 7.70816 8.13306 8.10959V25.7691C8.13306 26.1705 8.45962 26.4971 8.86105 26.4971H23.1389C23.5404 26.4971 23.8669 26.1705 23.8669 25.7691V8.10959C23.8669 7.70816 23.5404 7.3816 23.1389 7.3816H20.4416C20.47 7.25292 20.4853 7.11944 20.4853 6.98239V6.58317H23.5147C24.1491 6.58317 24.6654 7.09938 24.6654 7.73386V26.1448Z" fill="#828282"/>
<path d="M10.7867 14.0979H13.6986C13.9187 14.0979 14.0978 13.9188 14.0978 13.6986V10.7867C14.0978 10.5666 13.9187 10.3875 13.6986 10.3875H10.7867C10.5665 10.3875 10.3875 10.5666 10.3875 10.7867V13.6986C10.3875 13.9188 10.5665 14.0979 10.7867 14.0979ZM11.092 11.092H13.3933V13.3934H11.092V11.092Z" fill="#828282"/>
<path d="M13.6986 20.1566H10.7867C10.5665 20.1566 10.3875 20.3356 10.3875 20.5558V23.4677C10.3875 23.6878 10.5665 23.8669 10.7867 23.8669H13.6986C13.9187 23.8669 14.0978 23.6878 14.0978 23.4677V20.5558C14.0978 20.3356 13.9187 20.1566 13.6986 20.1566ZM13.3933 23.1624H11.092V20.8611H13.3933V23.1624Z" fill="#828282"/>
<path d="M14.248 15.3752L13.9947 15.6284C13.8676 15.4155 13.6354 15.272 13.3698 15.272H11.1154C10.714 15.272 10.3875 15.5986 10.3875 16V18.2544C10.3875 18.6558 10.714 18.9824 11.1154 18.9824H13.3698C13.7713 18.9824 14.0978 18.6558 14.0978 18.2544V17.8787C14.0978 17.6841 13.9401 17.5264 13.7456 17.5264C13.551 17.5264 13.3933 17.6841 13.3933 17.8787V18.2544C13.3933 18.2674 13.3828 18.2779 13.3698 18.2779H11.1154C11.1025 18.2779 11.092 18.2674 11.092 18.2544V16C11.092 15.987 11.1025 15.9765 11.1154 15.9765H13.3698C13.3828 15.9765 13.3933 15.987 13.3933 16V16.2299L12.6184 17.0048L12.116 16.5024C11.9784 16.3648 11.7554 16.3648 11.6178 16.5024C11.4803 16.64 11.4803 16.863 11.6178 17.0005L12.3693 17.752C12.4381 17.8208 12.5282 17.8552 12.6184 17.8552C12.7085 17.8552 12.7987 17.8208 12.8674 17.752L13.9946 16.6248C13.9946 16.6248 13.9947 16.6248 13.9947 16.6248L14.7461 15.8733C14.8837 15.7358 14.8837 15.5128 14.7461 15.3752C14.6086 15.2376 14.3855 15.2376 14.248 15.3752Z" fill="#828282"/>
<path d="M15.2485 11.4677H16.3757C16.5702 11.4677 16.7279 11.31 16.7279 11.1155C16.7279 10.9209 16.5702 10.7632 16.3757 10.7632H15.2485C15.054 10.7632 14.8962 10.9209 14.8962 11.1155C14.8962 11.31 15.054 11.4677 15.2485 11.4677Z" fill="#828282"/>
<path d="M14.8962 12.6184C14.8962 12.8129 15.054 12.9706 15.2485 12.9706H20.8845C21.079 12.9706 21.2367 12.8129 21.2367 12.6184C21.2367 12.4239 21.079 12.2661 20.8845 12.2661H15.2485C15.054 12.2661 14.8962 12.4239 14.8962 12.6184Z" fill="#828282"/>
<path d="M15.2485 16.728H19.0058C19.2004 16.728 19.3581 16.5703 19.3581 16.3757C19.3581 16.1812 19.2004 16.0235 19.0058 16.0235H15.2485C15.054 16.0235 14.8962 16.1812 14.8962 16.3757C14.8962 16.5703 15.054 16.728 15.2485 16.728Z" fill="#828282"/>
<path d="M20.8845 17.5264H15.2485C15.054 17.5264 14.8962 17.6841 14.8962 17.8787C14.8962 18.0732 15.054 18.2309 15.2485 18.2309H20.8845C21.079 18.2309 21.2367 18.0732 21.2367 17.8787C21.2367 17.6841 21.079 17.5264 20.8845 17.5264Z" fill="#828282"/>
<path d="M15.2485 21.6125H16.7514C16.946 21.6125 17.1037 21.4548 17.1037 21.2603C17.1037 21.0657 16.946 20.908 16.7514 20.908H15.2485C15.054 20.908 14.8962 21.0657 14.8962 21.2603C14.8962 21.4548 15.054 21.6125 15.2485 21.6125Z" fill="#828282"/>
<path d="M20.8845 22.411H15.2485C15.054 22.411 14.8962 22.5687 14.8962 22.7632C14.8962 22.9578 15.054 23.1155 15.2485 23.1155H20.8845C21.079 23.1155 21.2367 22.9578 21.2367 22.7632C21.2367 22.5687 21.079 22.411 20.8845 22.411Z" fill="#828282"/>
</svg>
