<svg width="181" height="181" viewBox="0 0 181 181" fill="none" xmlns="http://www.w3.org/2000/svg">
<rect x="0.723999" y="0.405762" width="180" height="180" rx="32" fill="white"/>
<path d="M91 140C118.614 140 141 117.614 141 90C141 62.3858 118.614 40 91 40C63.3858 40 41 62.3858 41 90C41 117.614 63.3858 140 91 140Z" fill="#FB2EA3"/>
<path d="M111.725 83.8125C111.016 88.6094 108.356 90.9313 104.828 91.7438C109.672 94.2656 112.141 98.1375 109.791 104.844C106.875 113.175 99.95 113.875 90.7406 112.134L88.5 121.094L83.1 119.747L85.3063 110.909C83.8669 110.552 82.4313 110.179 81 109.791L78.7875 118.672L73.3906 117.328L75.6281 108.35C74.3656 108.028 73.0844 107.684 71.775 107.356L64.7469 105.606L67.4281 99.4187C67.4281 99.4187 71.4094 100.481 71.3531 100.4C72.8844 100.778 73.5625 99.7812 73.8313 99.1187L77.3625 84.9562L77.9344 85.0969C77.751 85.0252 77.5631 84.9657 77.3719 84.9187L79.8906 74.8094C79.9563 73.6594 79.5625 72.2156 77.375 71.6656C77.4594 71.6094 73.45 70.6906 73.45 70.6906L74.8875 64.9219L82.3375 66.7812L82.3313 66.8125C83.45 67.0875 84.6063 67.3531 85.7813 67.6219L87.9969 58.75L93.3969 60.0937L91.2281 68.7937C92.675 69.125 94.1344 69.4562 95.5531 69.8125L97.7094 61.1719L103.109 62.5156L100.897 71.3906C107.719 73.7406 112.706 77.2625 111.725 83.8125V83.8125ZM99.3813 101.119C101.131 94.125 89.3875 92.3156 85.725 91.4L82.7594 103.291C86.4219 104.2 97.7156 107.828 99.3844 101.119H99.3813ZM101.053 83.7156C102.641 77.35 92.8219 75.9344 89.7719 75.1719L87.0844 85.9563C90.1313 86.7188 99.5313 89.8188 101.053 83.7156ZM116.772 107.556C116.51 107.521 116.244 107.538 115.989 107.606C115.733 107.674 115.494 107.792 115.284 107.953C114.878 108.301 114.603 108.777 114.503 109.303C114.439 109.595 114.418 109.895 114.441 110.194C114.467 110.534 114.577 110.862 114.759 111.15C114.947 111.462 115.247 111.756 115.653 112.031C116.059 112.303 116.622 112.522 117.341 112.688C117.728 112.781 118.128 112.825 118.538 112.822C118.95 112.822 119.331 112.756 119.681 112.625C120.051 112.494 120.381 112.27 120.639 111.974C120.896 111.677 121.072 111.319 121.15 110.934C121.224 110.66 121.242 110.374 121.205 110.092C121.167 109.811 121.074 109.539 120.931 109.294C120.644 108.812 120.172 108.444 119.513 108.187L119.994 106.106C121.181 106.584 122.013 107.269 122.494 108.153C122.975 109.041 123.075 110.094 122.794 111.312C122.651 111.988 122.369 112.627 121.966 113.188C121.603 113.682 121.138 114.092 120.603 114.391C120.067 114.69 119.474 114.87 118.863 114.919C118.19 114.98 117.513 114.93 116.856 114.772C116.181 114.621 115.533 114.368 114.934 114.022C114.382 113.706 113.901 113.28 113.519 112.772C113.147 112.267 112.893 111.685 112.775 111.069C112.649 110.362 112.676 109.636 112.853 108.941C112.973 108.412 113.165 107.903 113.425 107.428C113.678 106.966 113.988 106.575 114.359 106.256C114.728 105.937 115.153 105.706 115.634 105.562C116.119 105.416 116.656 105.388 117.253 105.472L116.772 107.556V107.556ZM125.184 100.953C125.037 101.648 124.751 102.306 124.344 102.888C123.959 103.419 123.5 103.838 122.969 104.147C122.419 104.459 121.81 104.653 121.181 104.716C120.483 104.785 119.779 104.737 119.097 104.572C118.418 104.422 117.769 104.158 117.178 103.791C116.641 103.459 116.179 103.018 115.822 102.497C115.471 101.973 115.237 101.381 115.134 100.759C115.024 100.059 115.056 99.3439 115.228 98.6563C115.375 97.9615 115.661 97.3036 116.069 96.7219C116.456 96.1906 116.913 95.7687 117.447 95.4625C117.997 95.1503 118.605 94.9566 119.234 94.8937C119.891 94.8219 120.578 94.8688 121.297 95.0344C121.982 95.1842 122.637 95.4484 123.234 95.8156C123.797 96.1719 124.247 96.6031 124.591 97.1125C124.934 97.6219 125.163 98.2 125.278 98.8469C125.389 99.5481 125.357 100.264 125.184 100.953V100.953ZM116.984 92.2094L117.438 90.2563L119.263 90.6781L119.272 90.6406C119.017 90.5094 118.791 90.3288 118.606 90.1094C118.182 89.6163 117.901 89.0165 117.794 88.375C117.741 88.051 117.752 87.72 117.825 87.4C117.882 87.1363 117.961 86.878 118.063 86.6281L120.072 87.0906C120.013 87.2341 119.958 87.379 119.906 87.525C119.854 87.6691 119.81 87.8163 119.775 87.9656C119.689 88.3085 119.681 88.6665 119.752 89.0128C119.824 89.3592 119.973 89.6849 120.188 89.9656C120.431 90.2801 120.732 90.5453 121.075 90.7469C121.447 90.975 121.894 91.15 122.419 91.2719L126.913 92.3094L126.431 94.3906L116.984 92.2094V92.2094ZM124.109 85.3656C124.472 85.4531 124.838 85.4812 125.203 85.4594C125.55 85.4376 125.89 85.3484 126.203 85.1969C126.514 85.0448 126.786 84.8248 127 84.5531C127.241 84.2349 127.408 83.8664 127.488 83.475C127.633 82.9613 127.614 82.4152 127.434 81.9125C127.231 81.4498 126.887 81.0635 126.45 80.8094L126.903 78.8375C127.581 79.1456 128.16 79.6355 128.577 80.2527C128.993 80.8699 129.231 81.5905 129.263 82.3344C129.294 82.8344 129.25 83.3406 129.134 83.8531C128.963 84.5969 128.688 85.2281 128.313 85.7437C127.952 86.25 127.484 86.6696 126.941 86.9723C126.398 87.275 125.795 87.4531 125.175 87.4937C123.806 87.6032 122.437 87.2796 121.263 86.5688C120.725 86.2328 120.257 85.798 119.881 85.2875C119.516 84.7834 119.259 84.2087 119.128 83.6C118.988 82.9812 119.003 82.3187 119.163 81.6094C119.312 80.9115 119.63 80.261 120.091 79.7156C120.522 79.21 121.058 78.8048 121.663 78.5281C122.28 78.2545 122.946 78.1059 123.622 78.0906C124.328 78.0656 125.022 78.1781 125.709 78.425L124.106 85.3687L124.109 85.3656ZM123.541 100.575C123.644 100.175 123.644 99.7547 123.541 99.3542C123.438 98.9538 123.236 98.5857 122.953 98.2844C122.68 97.9863 122.356 97.7387 121.997 97.5531C121.251 97.1608 120.417 96.9671 119.575 96.9906C119.171 96.9984 118.772 97.0799 118.397 97.2312C118.012 97.3796 117.671 97.6227 117.405 97.9378C117.139 98.253 116.957 98.6301 116.875 99.0344C116.771 99.4333 116.769 99.852 116.87 100.252C116.97 100.652 117.17 101.02 117.45 101.322C117.709 101.616 118.028 101.856 118.406 102.053C119.152 102.444 119.986 102.638 120.828 102.616C121.233 102.606 121.633 102.524 122.009 102.375C122.396 102.228 122.738 101.986 123.006 101.672C123.274 101.357 123.458 100.98 123.541 100.575V100.575ZM123.859 80.1906C123.528 80.1389 123.191 80.1357 122.859 80.1812C122.543 80.2166 122.237 80.314 121.959 80.468C121.681 80.6219 121.435 80.8292 121.238 81.0781C121.033 81.3551 120.886 81.6705 120.805 82.0055C120.724 82.3405 120.712 82.6883 120.769 83.0281C120.831 83.3563 120.947 83.6531 121.122 83.9187C121.508 84.4777 122.081 84.8801 122.738 85.0531L123.859 80.1906Z" fill="white"/>
</svg>
