<svg width="181" height="181" viewBox="0 0 181 181" fill="none" xmlns="http://www.w3.org/2000/svg">
<path d="M0.932861 49C0.932861 26.3726 0.932861 15.0589 7.9623 8.02944C14.9917 1 26.3054 1 48.9329 1H132.933C155.56 1 166.874 1 173.903 8.02944C180.933 15.0589 180.933 26.3726 180.933 49V133C180.933 155.627 180.933 166.941 173.903 173.971C166.874 181 155.56 181 132.933 181H48.9329C26.3054 181 14.9917 181 7.9623 173.971C0.932861 166.941 0.932861 155.627 0.932861 133V49Z" fill="white"/>
<path d="M134.88 70.0078C134.879 68.3309 134.52 66.8491 133.795 65.5773C133.083 64.3268 132.016 63.2786 130.585 62.4499C118.772 55.6384 106.947 48.8478 95.1379 42.0294C91.9542 40.1914 88.8674 40.2584 85.7073 42.1228C81.0053 44.8957 57.4643 58.3829 50.4493 62.4461C47.5604 64.1185 46.1546 66.6779 46.1539 70.0047C46.1494 83.7029 46.1539 97.4009 46.1494 111.099C46.1501 112.74 46.4935 114.193 47.1868 115.445C47.8996 116.734 48.9814 117.811 50.4455 118.658C57.4608 122.721 81.005 136.207 85.7059 138.981C88.8674 140.846 91.9542 140.913 95.139 139.074C106.949 132.256 118.774 125.465 130.589 118.654C132.053 117.807 133.134 116.729 133.847 115.442C134.54 114.189 134.884 112.736 134.884 111.096C134.884 111.096 134.884 83.7064 134.88 70.0078" fill="#5C8DBC"/>
<path d="M90.6526 90.4187L47.1868 115.445C47.8995 116.734 48.9814 117.811 50.4455 118.658C57.4608 122.721 81.0049 136.208 85.7059 138.981C88.8674 140.847 91.9542 140.913 95.139 139.075C106.949 132.256 118.774 125.466 130.589 118.654C132.053 117.807 133.135 116.729 133.847 115.442L90.6526 90.4187" fill="#1A4674"/>
<path d="M77.7786 97.8318C80.3078 102.247 85.0626 105.225 90.5169 105.225C96.0049 105.225 100.787 102.209 103.303 97.7467L90.6526 90.4187L77.7786 97.8318" fill="#1A4674"/>
<path d="M134.88 70.0079C134.879 68.3309 134.52 66.8491 133.795 65.5774L90.6526 90.4187L133.847 115.442C134.54 114.189 134.884 112.736 134.884 111.096C134.884 111.096 134.884 83.7065 134.88 70.0079" fill="#1B598E"/>
<path d="M132.505 92.2074H129.129V95.5834H125.753V92.2074H122.378V88.8324H125.753V85.457H129.129V88.8324H132.505V92.2074ZM120.188 92.2074H116.813V95.5834H113.438V92.2074H110.062V88.8324H113.438V85.457H116.813V88.8324H120.188V92.2074Z" fill="white"/>
<path d="M103.303 97.7467C100.787 102.209 96.0049 105.225 90.5169 105.225C85.0626 105.225 80.3078 102.247 77.7786 97.8317C76.508 95.6161 75.8407 93.106 75.8433 90.5519C75.8433 82.4482 82.4132 75.8787 90.5169 75.8787C95.9361 75.8787 100.666 78.8197 103.208 83.1901L116.033 75.8048C110.935 67.005 101.418 61.0847 90.5169 61.0847C74.2421 61.0847 61.0493 74.2778 61.0493 90.5519C61.0493 95.891 62.4697 100.898 64.9521 105.216C70.037 114.063 79.5815 120.019 90.5169 120.019C101.472 120.019 111.032 114.039 116.109 105.166L103.303 97.7467Z" fill="white"/>
</svg>
