<svg width="181" height="181" viewBox="0 0 181 181" fill="none" xmlns="http://www.w3.org/2000/svg">
<path d="M0.932861 49C0.932861 26.3726 0.932861 15.0589 7.9623 8.02944C14.9917 1 26.3054 1 48.9329 1H132.933C155.56 1 166.874 1 173.903 8.02944C180.933 15.0589 180.933 26.3726 180.933 49V133C180.933 155.627 180.933 166.941 173.903 173.971C166.874 181 155.56 181 132.933 181H48.9329C26.3054 181 14.9917 181 7.9623 173.971C0.932861 166.941 0.932861 155.627 0.932861 133V49Z" fill="white"/>
<path d="M126.264 121.016C125.543 121.016 124.846 120.759 124.297 120.292C123.749 119.824 123.385 119.175 123.272 118.463C123.159 117.751 123.303 117.022 123.679 116.407C124.055 115.792 124.639 115.332 125.324 115.108C131.085 113.223 134.807 108.173 134.807 102.243C134.807 94.7328 128.698 88.6226 121.188 88.6226C120.666 88.6226 120.105 88.6636 119.422 88.7523L116.461 89.1363L116.035 86.1792C114.215 73.5011 103.171 63.9402 90.3452 63.9402C79.7416 63.9402 70.3018 70.2878 66.2987 80.1128L65.5448 81.9613L63.5502 81.9976C54.3827 82.166 46.9245 89.7585 46.9245 98.9214C46.9245 105.61 50.8081 111.71 56.8178 114.461C57.5482 114.796 58.1159 115.406 58.396 116.159C58.6761 116.912 58.6456 117.745 58.3114 118.476C57.9771 119.206 57.3664 119.774 56.6136 120.054C55.8608 120.334 55.0275 120.303 54.2971 119.969C46.1374 116.235 40.8655 107.973 40.8655 98.9218C40.8655 87.1425 49.9413 77.2753 61.469 76.0632C66.7807 64.9566 77.9131 57.8835 90.344 57.8835C105.223 57.8835 118.157 68.3152 121.511 82.5691C132.212 82.7425 140.865 91.5015 140.865 102.244C140.865 110.709 135.376 118.191 127.208 120.865C126.896 120.967 126.577 121.016 126.264 121.016Z" fill="#0071CE"/>
<path d="M79.9347 122.326L79.9331 122.325L79.9304 122.325H79.9296L79.9288 122.324L79.928 122.323C79.928 122.323 79.9273 122.323 79.9273 122.322H79.9265L79.9257 122.322C79.9265 122.321 79.9249 122.321 79.9249 122.321L79.9241 122.32H79.9234L79.9226 122.319L79.9218 122.318L79.9195 122.318L79.9187 122.317L79.9179 122.316L79.9171 122.315L79.9148 122.314C79.914 122.315 79.914 122.314 79.9132 122.314L79.9124 122.313L79.9109 122.312L79.9101 122.311C79.9093 122.311 79.9077 122.311 79.907 122.311L79.9038 122.31L79.9023 122.309H79.9015C79.9007 122.308 79.8999 122.308 79.8988 122.308C79.898 122.307 79.8964 122.307 79.8964 122.307H79.8956L79.8941 122.307C79.8933 122.307 79.8933 122.306 79.8933 122.306H79.8925C79.8447 122.289 79.7947 122.279 79.7441 122.277H79.7394H79.737L79.7363 122.276H79.728H79.7288H79.7226C78.4136 122.276 77.3425 121.21 77.3347 119.904V93.2911H79.3741C79.6847 93.3044 79.8964 93.0653 79.8964 92.7786C79.8964 92.5641 79.7652 92.3809 79.5788 92.3044L69.7929 85.5501C69.7072 85.4911 69.6057 85.4595 69.5017 85.4595C69.3977 85.4595 69.2961 85.4911 69.2105 85.5501L59.348 92.3571C59.2585 92.4195 59.1912 92.5087 59.1559 92.6118C59.1205 92.715 59.119 92.8267 59.1514 92.9308C59.1838 93.0349 59.2486 93.126 59.3362 93.1909C59.4239 93.2557 59.5299 93.291 59.639 93.2915H61.678L61.68 119.911C61.6902 121.752 63.1683 123.254 65.0491 123.301C65.0706 123.304 65.0909 123.305 65.1124 123.305H79.7304C79.8648 123.303 79.9866 123.249 80.0769 123.163L80.0777 123.162L80.0816 123.158C80.0823 123.157 80.0831 123.157 80.0839 123.156L80.0847 123.155L80.0855 123.154L80.0863 123.153L80.087 123.152L80.0878 123.152L80.0886 123.151C80.0902 123.15 80.0894 123.15 80.0902 123.149L80.0909 123.148L80.0917 123.148L80.0925 123.147C80.1812 123.055 80.2366 122.931 80.237 122.793V122.786C80.235 122.688 80.2055 122.594 80.152 122.512C80.0985 122.431 80.0232 122.367 79.9347 122.326V122.326Z" fill="#DC8327"/>
<path d="M101.071 122.326L101.069 122.325L101.067 122.325H101.065L101.065 122.324L101.064 122.323H101.063L101.062 122.322L101.062 122.321C101.062 122.321 101.061 122.321 101.06 122.321L101.059 122.32H101.058C101.058 122.32 101.058 122.319 101.058 122.319C101.056 122.32 101.056 122.318 101.056 122.318L101.055 122.318L101.054 122.317H101.053L101.052 122.316L101.051 122.315L101.05 122.314C101.049 122.315 101.049 122.314 101.048 122.314L101.047 122.313L101.046 122.312L101.044 122.311C101.044 122.311 101.042 122.311 101.041 122.311L101.038 122.31L101.037 122.309L101.035 122.308L101.033 122.307L101.032 122.307C101.029 122.307 101.031 122.307 101.03 122.306L101.028 122.305L101.028 122.304H101.027C100.979 122.287 100.929 122.277 100.878 122.275H100.872L100.871 122.274H100.855C99.5467 122.274 98.476 121.209 98.4682 119.903V99.2503H100.507C100.628 99.256 100.747 99.2186 100.843 99.1449C100.939 99.0712 101.005 98.966 101.031 98.8477C101.057 98.7295 101.04 98.606 100.983 98.4991C100.927 98.3921 100.834 98.3087 100.722 98.2636L90.9354 91.5097C90.8497 91.4506 90.7481 91.4189 90.644 91.4189C90.5399 91.4189 90.4383 91.4506 90.3526 91.5097L80.494 98.316C80.4045 98.3783 80.3372 98.4675 80.3019 98.5707C80.2665 98.6738 80.265 98.7856 80.2974 98.8897C80.3298 98.9938 80.3946 99.0849 80.4822 99.1497C80.5699 99.2146 80.6759 99.2498 80.785 99.2503H82.8151L82.8166 119.911C82.8252 121.752 84.3061 123.254 86.1877 123.301C86.208 123.304 86.2284 123.304 86.2491 123.304H100.867C101.002 123.302 101.123 123.248 101.214 123.162L101.214 123.161C101.216 123.159 101.219 123.158 101.218 123.157C101.219 123.156 101.22 123.156 101.221 123.155L101.221 123.154L101.222 123.153L101.223 123.152C101.223 123.152 101.224 123.152 101.224 123.152L101.224 123.151C101.225 123.151 101.225 123.15 101.225 123.15C101.228 123.149 101.227 123.149 101.227 123.148L101.228 123.148L101.228 123.147L101.229 123.146C101.318 123.054 101.373 122.93 101.374 122.793V122.785C101.371 122.688 101.341 122.593 101.288 122.512C101.234 122.431 101.159 122.367 101.071 122.326V122.326Z" fill="#F4B21B"/>
<path d="M122.262 122.326L122.26 122.325L122.258 122.325H122.257L122.256 122.324L122.255 122.323C122.255 122.323 122.255 122.323 122.255 122.322H122.254L122.253 122.321L122.252 122.321C122.252 122.321 122.251 122.321 122.251 122.32H122.251L122.25 122.319C122.249 122.32 122.249 122.318 122.248 122.318C122.249 122.317 122.248 122.317 122.247 122.317L122.246 122.317H122.245L122.244 122.316L122.244 122.315L122.242 122.314C122.241 122.315 122.241 122.314 122.24 122.314L122.239 122.313C122.24 122.312 122.238 122.312 122.237 122.312C122.237 122.312 122.237 122.312 122.237 122.311C122.236 122.31 122.234 122.31 122.234 122.31L122.23 122.31L122.228 122.309L122.227 122.308L122.225 122.307L122.224 122.307C122.221 122.307 122.221 122.307 122.222 122.306C122.221 122.306 122.221 122.305 122.221 122.305L122.22 122.304H122.219C122.171 122.287 122.121 122.277 122.071 122.275H122.063L122.062 122.274H122.053H122.048H122.051H122.05C120.741 122.274 119.671 121.209 119.662 119.903V105.207H121.707C121.995 105.201 122.229 104.982 122.229 104.696C122.229 104.481 122.098 104.298 121.912 104.221L112.125 97.4671C112.039 97.4081 111.938 97.3765 111.834 97.3765C111.73 97.3765 111.628 97.4081 111.543 97.4671L101.68 104.273C101.591 104.336 101.523 104.425 101.488 104.528C101.453 104.631 101.451 104.743 101.483 104.847C101.516 104.951 101.581 105.042 101.668 105.107C101.756 105.172 101.862 105.207 101.971 105.208H104.005L104.007 119.91C104.017 121.751 105.496 123.255 107.377 123.301C107.398 123.303 107.418 123.304 107.439 123.304H122.057C122.191 123.302 122.313 123.248 122.403 123.162L122.404 123.161C122.406 123.159 122.408 123.158 122.408 123.157C122.409 123.156 122.41 123.156 122.41 123.155L122.411 123.154L122.412 123.153L122.413 123.152L122.414 123.151L122.414 123.151L122.415 123.15C122.418 123.149 122.416 123.149 122.417 123.148L122.418 123.148L122.418 123.147L122.419 123.146C122.508 123.054 122.563 122.93 122.564 122.793V122.785C122.562 122.688 122.532 122.593 122.479 122.512C122.425 122.431 122.35 122.366 122.262 122.326V122.326Z" fill="#F2D864"/>
</svg>
