<svg width="181" height="180" viewBox="0 0 181 180" fill="none" xmlns="http://www.w3.org/2000/svg">
<path d="M0.723999 48C0.723999 25.3726 0.723999 14.0589 7.75344 7.02944C14.7829 0 26.0966 0 48.724 0H132.724C155.351 0 166.665 0 173.695 7.02944C180.724 14.0589 180.724 25.3726 180.724 48V132C180.724 154.627 180.724 165.941 173.695 172.971C166.665 180 155.351 180 132.724 180H48.724C26.0966 180 14.7829 180 7.75344 172.971C0.723999 165.941 0.723999 154.627 0.723999 132V48Z" fill="white"/>
<path d="M74.1617 140C83.3617 140 90.8284 132.533 90.8284 123.333V106.667H74.1617C64.9617 106.667 57.4951 114.133 57.4951 123.333C57.4951 132.533 64.9617 140 74.1617 140Z" fill="#0ACF83"/>
<path d="M57.4951 89.9999C57.4951 80.7999 64.9617 73.3333 74.1617 73.3333H90.8284V106.667H74.1617C64.9617 106.667 57.4951 99.1999 57.4951 89.9999Z" fill="#A259FF"/>
<path d="M57.4951 56.6667C57.4951 47.4667 64.9617 40 74.1617 40H90.8284V73.3333H74.1617C64.9617 73.3333 57.4951 65.8667 57.4951 56.6667Z" fill="#F24E1E"/>
<path d="M90.8284 40H107.495C116.695 40 124.162 47.4667 124.162 56.6667C124.162 65.8667 116.695 73.3333 107.495 73.3333H90.8284V40Z" fill="#FF7262"/>
<path d="M124.162 89.9999C124.162 99.1999 116.695 106.667 107.495 106.667C98.295 106.667 90.8284 99.1999 90.8284 89.9999C90.8284 80.7999 98.295 73.3333 107.495 73.3333C116.695 73.3333 124.162 80.7999 124.162 89.9999Z" fill="#1ABCFE"/>
</svg>
