<svg width="181" height="181" viewBox="0 0 181 181" fill="none" xmlns="http://www.w3.org/2000/svg">
<path d="M0.723999 49C0.723999 26.3726 0.723999 15.0589 7.75344 8.02944C14.7829 1 26.0966 1 48.724 1H132.724C155.351 1 166.665 1 173.695 8.02944C180.724 15.0589 180.724 26.3726 180.724 49V133C180.724 155.627 180.724 166.941 173.695 173.971C166.665 181 155.351 181 132.724 181H48.724C26.0966 181 14.7829 181 7.75344 173.971C0.723999 166.941 0.723999 155.627 0.723999 133V49Z" fill="white"/>
<path d="M140.552 40.5942H40.5522V140.594H140.552V40.5942Z" fill="#F7DF1E"/>
<path d="M107.727 118.72C109.741 122.009 112.362 124.426 116.997 124.426C120.89 124.426 123.378 122.48 123.378 119.791C123.378 116.569 120.822 115.428 116.536 113.553L114.187 112.545C107.406 109.656 102.901 106.037 102.901 98.3863C102.901 91.3387 108.271 85.9736 116.663 85.9736C122.638 85.9736 126.933 88.053 130.028 93.4974L122.711 98.1959C121.1 95.307 119.362 94.1689 116.663 94.1689C113.911 94.1689 112.167 95.9149 112.167 98.1959C112.167 101.015 113.913 102.156 117.944 103.902L120.293 104.909C128.278 108.332 132.786 111.823 132.786 119.67C132.786 128.131 126.14 132.766 117.214 132.766C108.487 132.766 102.849 128.607 100.09 123.156L107.727 118.72ZM74.5316 119.534C76.0078 122.153 77.3506 124.367 80.5792 124.367C83.6665 124.367 85.6141 123.159 85.6141 118.463V86.5101H95.011V118.59C95.011 128.32 89.3062 132.748 80.9792 132.748C73.4554 132.748 69.0983 128.855 66.8824 124.165L74.5316 119.534Z" fill="black"/>
</svg>
