<svg width="181" height="181" viewBox="0 0 181 181" fill="none" xmlns="http://www.w3.org/2000/svg">
<rect x="0.723999" y="0.405762" width="180" height="180" rx="32" fill="white"/>
<g clip-path="url(#clip0_105_31)">
<path fill-rule="evenodd" clip-rule="evenodd" d="M92.9419 44.7339C90.7628 44.7392 88.5521 45.8446 87.0833 48.0343L43.3173 114.121C39.4708 122.224 45.0444 129.968 52.5998 132.165C66.7915 135.325 79.789 126.876 79.789 126.876C98.9344 114.625 111.299 107.71 111.299 107.71C126.557 99.9754 139.905 109.466 139.933 109.486L98.6236 48.0343C97.2699 45.8253 95.121 44.7291 92.9419 44.7339ZM92.9598 51.5246C94.6745 51.5192 96.3658 52.3842 97.4311 54.1225C107.52 69.0983 118.986 84.538 128.641 99.784C128.641 99.784 119.427 94.9898 107.407 101.083C107.407 101.083 97.6738 106.526 82.6081 116.167C82.6081 116.167 72.3829 122.811 61.2154 120.324C55.2697 118.596 50.8811 112.5 53.9078 106.124L88.3517 54.1225C89.5074 52.3994 91.2449 51.5284 92.9598 51.5246V51.5246Z" fill="#FF7102"/>
<path fill-rule="evenodd" clip-rule="evenodd" d="M127.405 109.475C110.899 109.883 96.5768 125.305 84.9109 129.863C102.646 151.178 155.745 125.891 135.861 111.764C133.339 110.044 130.482 109.399 127.405 109.475V109.475ZM133.262 115.586C142.622 124.937 107.47 141.203 92.5229 130.507C98.2504 130.065 122.355 106.872 133.262 115.586V115.586Z" fill="#FF7102"/>
</g>
<defs>
<clipPath id="clip0_105_31">
<rect width="100" height="97.512" fill="white" transform="translate(41 41)"/>
</clipPath>
</defs>
</svg>
