<svg width="182" height="182" viewBox="0 0 182 182" fill="none" xmlns="http://www.w3.org/2000/svg">
<path d="M0.932861 49.2969C0.932861 26.6695 0.932861 15.3557 7.9623 8.32631C14.9917 1.29688 26.3054 1.29688 48.9329 1.29688H132.933C155.56 1.29688 166.874 1.29688 173.903 8.32631C180.933 15.3557 180.933 26.6695 180.933 49.2969V133.297C180.933 155.924 180.933 167.238 173.903 174.267C166.874 181.297 155.56 181.297 132.933 181.297H48.9329C26.3054 181.297 14.9917 181.297 7.9623 174.267C0.932861 167.238 0.932861 155.924 0.932861 133.297V49.2969Z" fill="white"/>
<path d="M133.319 118.136C127.878 117.999 123.662 118.551 120.125 120.07C119.105 120.484 117.472 120.484 117.336 121.796C117.88 122.348 117.948 123.246 118.424 124.005C119.241 125.386 120.669 127.25 121.961 128.217C123.389 129.321 124.818 130.425 126.314 131.392C128.966 133.049 131.959 134.015 134.544 135.673C136.04 136.638 137.536 137.882 139.032 138.917C139.78 139.469 140.256 140.367 141.209 140.712V140.505C140.732 139.884 140.596 138.986 140.121 138.296C139.441 137.605 138.76 136.984 138.08 136.294C136.108 133.602 133.659 131.254 131.007 129.321C128.831 127.802 124.069 125.731 123.185 123.176C123.185 123.176 123.117 123.108 123.049 123.039C124.545 122.901 126.314 122.348 127.742 121.934C130.055 121.312 132.163 121.451 134.544 120.829C135.632 120.553 136.72 120.208 137.808 119.863V119.242C136.584 117.999 135.7 116.342 134.408 115.168C130.939 112.13 127.13 109.162 123.185 106.676C121.077 105.296 118.356 104.398 116.112 103.225C115.296 102.81 113.935 102.603 113.46 101.913C112.235 100.394 111.555 98.3921 110.671 96.597C108.699 92.7994 106.794 88.5884 105.094 84.5846C103.87 81.8918 103.122 79.199 101.625 76.7141C94.62 64.9775 87.0025 57.8666 75.3045 50.8933C72.7878 49.4438 69.7953 48.8223 66.5987 48.0632C64.899 47.9938 63.1981 47.8561 61.498 47.7867C60.4096 47.3033 59.3213 45.9919 58.369 45.3704C54.493 42.8848 44.4944 37.5004 41.638 44.6113C39.8014 49.0985 44.3588 53.5167 45.9225 55.7956C47.0796 57.3832 48.5752 59.178 49.3915 60.9732C49.8676 62.1462 50.0033 63.3898 50.4794 64.6323C51.5681 67.6691 52.5877 71.0527 54.0165 73.8836C54.7647 75.3332 55.5806 76.8518 56.5329 78.1637C57.077 78.9228 58.0289 79.2684 58.2334 80.5108C57.2815 81.8918 57.2131 83.9631 56.6685 85.6889C54.2202 93.4903 55.1728 103.156 58.6411 108.886C59.729 110.611 62.3138 114.409 65.7825 112.959C68.8434 111.716 68.1632 107.781 69.0467 104.329C69.2515 103.5 69.1155 102.948 69.5232 102.396V102.535C70.4755 104.467 71.4274 106.332 72.3116 108.265C74.4203 111.647 78.0926 115.168 81.1531 117.516C82.786 118.758 84.078 120.898 86.1186 121.658V121.45H85.9822C85.574 120.829 84.9619 120.553 84.4181 120.069C83.1941 118.827 81.8333 117.308 80.8814 115.927C78.0253 112.061 75.5082 107.781 73.2639 103.362C72.176 101.223 71.2233 98.8751 70.3394 96.735C69.9309 95.9057 69.9309 94.6637 69.2511 94.2498C68.2308 95.7684 66.7347 97.0803 65.9865 98.9441C64.6949 101.913 64.5585 105.572 64.0823 109.368C63.8103 109.438 63.9459 109.368 63.8099 109.507C61.634 108.954 60.8858 106.676 60.0691 104.743C58.0285 99.8417 57.6884 91.9713 59.4573 86.3103C59.9335 84.8603 61.9741 80.3041 61.1579 78.9232C60.7497 77.6113 59.3889 76.8518 58.6411 75.8165C57.7572 74.5046 56.8045 72.8483 56.1928 71.398C54.5603 67.5318 53.744 63.2514 51.9759 59.3852C51.1596 57.59 49.732 55.7265 48.5752 54.0694C47.2833 52.2056 45.8548 50.8933 44.8345 48.6843C44.4948 47.9251 44.0183 46.6823 44.5624 45.8538C44.6985 45.3014 44.9702 45.0947 45.5147 44.9566C46.399 44.1967 48.9157 45.1633 49.7992 45.5776C52.316 46.6125 54.4242 47.5799 56.5329 49.0295C57.4847 49.7199 58.5051 51.0318 59.729 51.377H61.1575C63.3341 51.86 65.7821 51.5151 67.8227 52.1362C71.4278 53.3095 74.692 55.0357 77.6168 56.8999C86.5267 62.6299 93.8714 70.7766 98.8368 80.5108C99.6531 82.0981 99.9928 83.5489 100.741 85.2052C102.17 88.5884 103.938 92.0403 105.366 95.3541C106.794 98.5985 108.154 101.913 110.195 104.605C111.215 106.055 115.295 106.815 117.132 107.574C118.492 108.195 120.601 108.748 121.825 109.507C124.137 110.956 126.45 112.614 128.626 114.201C129.715 115.03 133.115 116.756 133.319 118.136V118.136Z" fill="#00546B"/>
<path d="M63.9455 58.142C62.7896 58.142 61.9737 58.2809 61.1575 58.4876V58.6257H61.2935C61.8381 59.7304 62.7896 60.4899 63.4694 61.4562C64.0139 62.5605 64.4897 63.6656 65.0342 64.7704C65.1019 64.7009 65.1699 64.6323 65.1699 64.6323C66.1226 63.9414 66.5983 62.8371 66.5983 61.18C66.1902 60.6971 66.1222 60.2137 65.7821 59.7304C65.3743 59.0396 64.4897 58.6947 63.9455 58.142V58.142Z" fill="#00546B"/>
</svg>
