<svg width="181" height="181" viewBox="0 0 181 181" fill="none" xmlns="http://www.w3.org/2000/svg">
<rect x="0.723999" y="0.405762" width="180" height="180" rx="32" fill="white"/>
<path d="M90.8508 144.437C61.5983 144.437 36.7915 119.73 36.5635 90.2921C36.5126 83.1908 37.8718 76.15 40.5623 69.5779C43.2528 63.0058 47.221 57.0331 52.237 52.006C57.286 46.8349 63.312 42.7184 69.9652 39.8957C76.6184 37.073 83.7661 35.6003 90.9933 35.5631V35.5631C98.0898 35.5568 105.117 36.9548 111.671 39.6766C118.225 42.3984 124.175 46.3901 129.18 51.4219C134.267 56.3814 138.323 62.2989 141.114 68.8332C143.904 75.3675 145.373 82.3894 145.437 89.4942C145.502 103.948 139.844 117.84 129.698 128.134C119.553 138.429 105.745 144.29 91.2925 144.437H90.8508ZM91.0218 38.4129C84.1732 38.453 77.4008 39.8528 71.0975 42.5312C64.7943 45.2095 59.0857 49.113 54.3031 54.0151C49.5458 58.7711 45.7801 64.4242 43.2241 70.6466C40.6681 76.869 39.3728 83.5369 39.4132 90.2636C39.627 118.162 63.1372 141.559 90.8365 141.559H91.207C104.912 141.434 118.01 135.89 127.638 126.136C137.266 116.382 142.641 103.214 142.588 89.5084C142.524 82.7775 141.128 76.1257 138.482 69.9363C135.837 63.7469 131.992 58.1423 127.171 53.4452C122.44 48.6723 116.808 44.8859 110.603 42.3054C104.398 39.725 97.7421 38.4019 91.0218 38.4129V38.4129Z" fill="#F1592A"/>
<path d="M48.7745 105.923V74.1199H56.5115V76.9696H52.4079V103.13H56.5115V105.98L48.7745 105.923Z" fill="#F1592A"/>
<path d="M75.0348 89.708C75.0348 95.5072 71.5154 98.8128 66.7421 98.8128C61.9688 98.8128 58.7914 95.094 58.7914 90.0072C58.7914 84.6925 62.1256 80.9451 66.9986 80.9451C71.8716 80.9451 75.0348 84.8492 75.0348 89.708ZM62.1256 89.9645C62.1256 93.4839 63.8924 96.2766 66.9273 96.2766C69.9623 96.2766 71.7006 93.4269 71.7006 89.8362C71.7006 86.5733 70.0905 83.4956 66.9273 83.4956C63.7642 83.4956 62.0971 86.4735 62.0971 90.0357L62.1256 89.9645Z" fill="#F1592A"/>
<path d="M77.7135 81.5434C79.2287 81.2817 80.7639 81.153 82.3016 81.1587C84.0289 80.99 85.7652 81.3742 87.2601 82.2558C87.8205 82.5859 88.2825 83.0599 88.5982 83.6286C88.9139 84.1973 89.0717 84.84 89.0554 85.4903C89.0349 86.3352 88.7485 87.1522 88.2368 87.825C87.7252 88.4978 87.0145 88.9921 86.2057 89.2377C87.1913 89.4382 88.0773 89.9733 88.7135 90.7523C89.3498 91.5314 89.6971 92.5064 89.6966 93.5122C89.7074 94.1936 89.5628 94.8685 89.274 95.4856C88.9852 96.1028 88.5596 96.6461 88.0295 97.0744C86.8041 98.1573 84.7666 98.6845 81.6176 98.6845C80.3222 98.6909 79.0277 98.6147 77.742 98.4565L77.7135 81.5434ZM80.8482 88.3685H82.4583C84.6383 88.3685 85.8637 87.3426 85.8637 85.875C85.8637 84.4074 84.6383 83.5097 82.6293 83.5097C82.028 83.4892 81.4262 83.5321 80.834 83.6379L80.8482 88.3685ZM80.8482 96.3192C81.402 96.3763 81.9587 96.4001 82.5153 96.3905C84.5386 96.3905 86.3339 95.621 86.3339 93.5407C86.3339 91.4604 84.5956 90.691 82.4155 90.691H80.8482V96.3192Z" fill="#F1592A"/>
<path d="M95.9232 81.3154H99.0722V92.5576C99.0722 97.3309 96.7639 98.9267 93.3727 98.9267C92.4658 98.9192 91.5661 98.7653 90.7083 98.4708L91.093 95.9345C91.7253 96.132 92.3827 96.2376 93.045 96.248C94.8404 96.248 95.8948 95.4216 95.8948 92.4294L95.9232 81.3154Z" fill="#F1592A"/>
<path d="M108.035 90.6769V92.8569H101.48V90.6769H108.035Z" fill="#F1592A"/>
<path d="M123.338 98.0861C121.921 98.6509 120.402 98.913 118.878 98.8555C113.392 98.8555 110.058 95.4216 110.058 90.1638C109.993 88.9388 110.188 87.7139 110.631 86.5697C111.073 85.4256 111.753 84.388 112.625 83.5253C113.497 82.6625 114.542 81.9942 115.691 81.5642C116.84 81.1342 118.067 80.9523 119.291 81.0305C120.755 80.9698 122.215 81.2325 123.566 81.7999L122.867 84.3076C121.796 83.8515 120.641 83.6235 119.476 83.638C115.957 83.638 113.421 85.8465 113.421 90.0071C113.421 93.7972 115.658 96.248 119.448 96.248C120.624 96.265 121.791 96.047 122.882 95.6068L123.338 98.0861Z" fill="#F1592A"/>
<path d="M133.226 74.0344V105.923H125.489V103.073H129.593V76.8841H125.489V74.0344H133.226Z" fill="#F1592A"/>
</svg>
