<svg width="181" height="181" viewBox="0 0 181 181" fill="none" xmlns="http://www.w3.org/2000/svg">
<path d="M0.724121 48.4058C0.724121 25.7783 0.724121 14.4646 7.75356 7.4352C14.783 0.405762 26.0967 0.405762 48.7241 0.405762H132.724C155.352 0.405762 166.665 0.405762 173.695 7.4352C180.724 14.4646 180.724 25.7783 180.724 48.4058V132.406C180.724 155.033 180.724 166.347 173.695 173.376C166.665 180.406 155.352 180.406 132.724 180.406H48.7241C26.0967 180.406 14.783 180.406 7.75356 173.376C0.724121 166.347 0.724121 155.033 0.724121 132.406V48.4058Z" fill="white"/>
<g clip-path="url(#clip0_305_101)">
<path d="M75.4564 31.8816L32.9067 105.578L106.603 148.127L149.152 74.4312L75.4564 31.8816Z" fill="#222458"/>
<path d="M107.031 149.359L31.7329 105.939L75.1528 30.6412L150.45 74.1527L107.031 149.359ZM34.2062 105.206L106.298 146.886L147.977 74.7939L75.8856 33.1145L34.2062 105.206Z" fill="#51537D"/>
<path d="M106.552 31.9398L32.8562 74.4894L75.4058 148.185L149.102 105.636L106.552 31.9398Z" fill="#222458"/>
<path d="M74.8779 150L31 73.9695L107.122 30L151.092 106.122L74.8779 150ZM34.7557 74.9771L75.9771 146.336L147.336 105.115L106.115 33.7557L34.7557 74.9771Z" fill="#A3A4B9"/>
<path d="M133.595 47.4045H48.4961V132.504H133.595V47.4045Z" fill="#00023B"/>
<path d="M135.885 134.885H46.2061V45.1145H135.885V134.885ZM50.7862 130.305H131.305V49.6947H50.7862V130.305Z" fill="white"/>
<path d="M85.0459 109.42L78.9085 91.8321H77.8092H66.6337V109.42H61.5039V65.2672H78.4505C81.7482 65.2672 84.2215 65.8168 85.8703 66.9161C87.5192 68.0153 88.6184 69.481 89.0764 71.313C89.5344 73.1451 89.8092 75.5268 89.8092 78.4581C89.8092 81.6642 89.4428 84.3206 88.6184 86.4275C87.8856 88.5344 86.2367 90 83.7634 90.8245L90.5421 109.42H85.0459ZM82.023 86.4275C83.1222 85.7863 83.8551 84.8703 84.2215 83.6794C84.5879 82.4886 84.7711 80.7481 84.7711 78.5497C84.7711 76.2596 84.5879 74.6107 84.3131 73.4199C84.0383 72.229 83.3054 71.4046 82.2062 70.7634C81.107 70.1222 79.4581 69.8474 77.168 69.8474H66.6337V87.3435H76.8016C79.0917 87.3435 80.8322 87.0687 82.023 86.4275Z" fill="white"/>
<path d="M99.0611 107.863C97.5954 106.489 96.771 104.015 96.771 100.351C96.771 97.8779 97.0458 95.9542 97.5954 94.5802C98.145 93.2061 99.0611 92.1985 100.344 91.5573C101.626 90.9161 103.458 90.6412 105.84 90.6412C107.031 90.6412 110.511 90.7329 116.282 90.9161V88.7176C116.282 86.0611 116.099 84.1374 115.641 83.0382C115.183 81.939 114.45 81.2061 113.26 80.8397C112.16 80.5649 110.237 80.3817 107.489 80.3817C106.298 80.3817 104.74 80.4733 103 80.5649C101.168 80.6565 99.7023 80.8397 98.6031 81.0229V77.084C101.626 76.4428 105.107 76.168 109.046 76.168C112.435 76.168 115 76.5344 116.74 77.2672C118.389 78 119.58 79.2825 120.221 81.0229C120.863 82.7634 121.137 85.3283 121.137 88.7176V109.328H116.74L116.466 104.748H116.191C115.458 106.763 114.176 108.137 112.435 108.779C110.695 109.42 108.679 109.786 106.389 109.786C103 109.878 100.618 109.237 99.0611 107.863ZM112.618 105.115C113.718 104.748 114.634 104.015 115.183 102.916C116.008 101.267 116.374 98.9771 116.374 96.229V94.397H107.214C105.656 94.397 104.466 94.5802 103.733 94.855C103 95.1298 102.45 95.6794 102.176 96.5038C101.901 97.3283 101.718 98.5191 101.718 100.168C101.718 101.817 101.901 103.008 102.267 103.74C102.634 104.473 103.275 105.023 104.099 105.389C105.015 105.664 106.389 105.847 108.221 105.847C109.962 105.664 111.427 105.481 112.618 105.115Z" fill="white"/>
</g>
<defs>
<clipPath id="clip0_305_101">
<rect width="120" height="120" fill="white" transform="translate(31 30)"/>
</clipPath>
</defs>
</svg>
