<svg width="182" height="181" viewBox="0 0 182 181" fill="none" xmlns="http://www.w3.org/2000/svg">
<path d="M0.723999 49C0.723999 26.3726 0.723999 15.0589 7.75344 8.02944C14.7829 1 26.0966 1 48.724 1H132.724C155.351 1 166.665 1 173.695 8.02944C180.724 15.0589 180.724 26.3726 180.724 49V133C180.724 155.627 180.724 166.941 173.695 173.971C166.665 181 155.351 181 132.724 181H48.724C26.0966 181 14.7829 181 7.75344 173.971C0.723999 166.941 0.723999 155.627 0.723999 133V49Z" fill="white"/>
<path d="M91.1045 99.4105C95.9736 99.4105 99.9208 95.4634 99.9208 90.5943C99.9208 85.7252 95.9736 81.7781 91.1045 81.7781C86.2355 81.7781 82.2883 85.7252 82.2883 90.5943C82.2883 95.4634 86.2355 99.4105 91.1045 99.4105Z" fill="#61DAFB"/>
<path d="M91.1045 108.657C117.231 108.657 138.411 100.57 138.411 90.5943C138.411 80.6186 117.231 72.5317 91.1045 72.5317C64.9778 72.5317 43.7979 80.6186 43.7979 90.5943C43.7979 100.57 64.9778 108.657 91.1045 108.657Z" stroke="#61DAFB" stroke-width="5"/>
<path d="M75.4618 99.6255C88.5252 122.252 106.119 136.551 114.758 131.563C123.397 126.575 119.81 104.189 106.747 81.563C93.6837 58.9366 76.0903 44.6377 67.4511 49.6255C58.812 54.6133 62.3985 76.9991 75.4618 99.6255Z" stroke="#61DAFB" stroke-width="5"/>
<path d="M75.4619 81.5629C62.3985 104.189 58.812 126.575 67.4512 131.563C76.0903 136.551 93.6837 122.252 106.747 99.6255C119.81 76.9991 123.397 54.6133 114.758 49.6255C106.119 44.6376 88.5252 58.9365 75.4619 81.5629Z" stroke="#61DAFB" stroke-width="5"/>
</svg>
