<svg width="181" height="181" viewBox="0 0 181 181" fill="none" xmlns="http://www.w3.org/2000/svg">
<path d="M0.723999 48.4058C0.723999 25.7783 0.723999 14.4646 7.75344 7.4352C14.7829 0.405762 26.0966 0.405762 48.724 0.405762H132.724C155.351 0.405762 166.665 0.405762 173.695 7.4352C180.724 14.4646 180.724 25.7783 180.724 48.4058V132.406C180.724 155.033 180.724 166.347 173.695 173.376C166.665 180.406 155.351 180.406 132.724 180.406H48.724C26.0966 180.406 14.7829 180.406 7.75344 173.376C0.723999 166.347 0.723999 155.033 0.723999 132.406V48.4058Z" fill="white"/>
<path d="M138.907 41H72.9786V74.0559H105.418C106.574 74.0559 107.512 74.9934 107.512 76.1491V108.141H141V43.0971C141.001 42.5413 140.781 42.0078 140.388 41.6145C139.996 41.2211 139.462 41 138.907 41Z" fill="#8E75FF"/>
<path opacity="0.405" d="M72.9749 41V74.0559H42.0467C41.6217 74.0551 41.2392 73.7979 41.0782 73.4046C40.9172 73.0113 41.0095 72.5597 41.312 72.2611L72.9749 41ZM109.295 139.437C108.994 139.732 108.545 139.819 108.155 139.656C107.766 139.493 107.512 139.112 107.512 138.69V108.141H141L109.295 139.433V139.437Z" fill="#8E75FF"/>
<path opacity="0.405" d="M72.9749 74.0558H106.467C107.041 74.0558 107.512 74.5227 107.512 75.1005V108.141H75.0719C73.9159 108.141 72.9787 107.204 72.9787 106.048V74.0558H72.9749Z" fill="#8E75FF"/>
</svg>
