<svg width="181" height="181" viewBox="0 0 181 181" fill="none" xmlns="http://www.w3.org/2000/svg">
<path d="M0.724121 48.4058C0.724121 25.7783 0.724121 14.4646 7.75356 7.4352C14.783 0.405762 26.0967 0.405762 48.7241 0.405762H132.724C155.352 0.405762 166.665 0.405762 173.695 7.4352C180.724 14.4646 180.724 25.7783 180.724 48.4058V132.406C180.724 155.033 180.724 166.347 173.695 173.376C166.665 180.406 155.352 180.406 132.724 180.406H48.7241C26.0967 180.406 14.783 180.406 7.75356 173.376C0.724121 166.347 0.724121 155.033 0.724121 132.406V48.4058Z" fill="white"/>
<path d="M121.747 144H60.253C47.41 144 37 133.59 37 120.747V59.253C37 46.41 47.41 36 60.253 36H121.744C134.59 36 145 46.41 145 59.253V120.744C145 133.59 134.59 144 121.747 144Z" fill="#0D47A1"/>
<path d="M145 59.253C145 46.41 134.59 36 121.747 36H60.253C47.41 36 37 46.41 37 59.253V86.337C46 96 62.506 107.757 77.938 107.655C98.482 107.52 128.962 99.498 145 82.221V59.253Z" fill="#1565C0"/>
<path d="M145 59.253C145 46.41 134.59 36 121.747 36H60.253C47.41 36 37 46.41 37 59.253V85.503C46 96 58.657 100.077 78.082 100.218C109.429 100.446 133.984 85.731 145 71.976V59.253Z" fill="#1E88E5"/>
<path d="M145 59.253C145 46.41 134.59 36 121.747 36H60.253C47.41 36 37 46.41 37 59.253V83.793C50.224 91.8 64.231 93.579 75.022 93.801C106.483 93.981 134.833 78.093 145 59.607V59.253Z" fill="#29B6F6"/>
<path d="M121.747 36H60.253C47.41 36 37 46.41 37 59.253V77.193C49.501 85.317 62.416 87.639 75.751 87.531C97.333 87.531 131.905 76.035 142.546 48.897C138.733 41.259 130.864 36 121.747 36Z" fill="#00E5FF"/>
<path d="M121.747 36H60.253C47.41 36 37 46.41 37 59.253V70.326C51.244 79.917 68.629 84.135 90.334 78.927C117.163 72.489 132.367 58.146 137.824 42.48C133.648 38.475 127.99 36 121.747 36Z" fill="#18FFFF"/>
<path d="M80.605 36H60.253C47.41 36 37 46.41 37 59.253V87.855L37.189 88.122C49.939 106.122 81.439 117.747 102.064 98.811C114.064 83.811 107.128 59.247 98.125 51.186C93.604 47.136 86.53 41.052 80.605 36Z" fill="#448AFF"/>
<path d="M81.919 36H60.253C47.41 36 37 46.41 37 59.253V88.407C52.237 100.266 76.015 104.937 92.689 89.625C104.689 74.625 97.753 50.061 88.75 42C86.839 40.29 84.463 38.205 81.919 36Z" fill="#40C4FF"/>
<path d="M60.253 36C47.41 36 37 46.41 37 59.253V83.049C51.058 88.974 67.945 88.947 80.689 77.25C90.361 65.16 87.724 46.866 81.625 36H60.253Z" fill="#00E5FF"/>
<path d="M60.253 36C47.41 36 37 46.41 37 59.253V73.431C47.428 74.577 58.165 72.054 66.937 63.999C73.294 56.052 74.317 45.435 72.55 36H60.253Z" fill="#18FFFF"/>
<path d="M56.824 62.61C56.824 62.61 77.323 93.591 94.558 104.07C88.036 106.167 73.876 114.735 49.186 99.594C55.474 108.213 66.607 125.499 93.859 123.87C103.408 123.405 109.231 120.375 114.589 118.281C119.947 116.187 125.071 116.418 129.496 124.338C130.429 117.117 130.66 110.361 123.208 102.675C123.208 102.675 130.576 74.586 99.205 52.422C105.727 65.466 109.504 72.822 106.438 90.795C99.451 86.136 73.645 65.355 67.822 58.599C72.016 66.054 84.079 82.407 88.27 86.601C80.818 81.477 56.824 62.61 56.824 62.61Z" fill="#212121"/>
</svg>
