<svg width="181" height="181" viewBox="0 0 181 181" fill="none" xmlns="http://www.w3.org/2000/svg">
<path d="M0.932861 49C0.932861 26.3726 0.932861 15.0589 7.9623 8.02944C14.9917 1 26.3054 1 48.9329 1H132.933C155.56 1 166.874 1 173.903 8.02944C180.933 15.0589 180.933 26.3726 180.933 49V133C180.933 155.627 180.933 166.941 173.903 173.971C166.874 181 155.56 181 132.933 181H48.9329C26.3054 181 14.9917 181 7.9623 173.971C0.932861 166.941 0.932861 155.627 0.932861 133V49Z" fill="white"/>
<path d="M62.7029 40.5942H118.072C120.766 40.5942 123.382 41.0239 125.92 41.9224C129.591 43.2505 132.91 45.5942 135.409 48.6411C137.947 51.688 139.626 55.438 140.212 59.3442C140.446 60.7896 140.485 62.2349 140.485 63.6802V117.704C140.485 119.422 140.407 121.18 140.056 122.86C139.275 126.727 137.439 130.36 134.784 133.29C132.168 136.219 128.732 138.407 125.022 139.579C122.758 140.282 120.415 140.594 118.033 140.594C116.979 140.594 62.5467 140.594 61.7268 140.555C57.7439 140.36 53.8002 139.071 50.4811 136.844C47.2402 134.657 44.585 131.61 42.8669 128.094C41.3831 125.086 40.6412 121.727 40.6412 118.368V62.8208C40.5631 59.5005 41.266 56.2192 42.7107 53.2505C44.3898 49.7349 47.0059 46.6489 50.2469 44.4614C53.5659 42.1958 57.4706 40.8677 61.4534 40.6724C61.8439 40.5942 62.2734 40.5942 62.7029 40.5942V40.5942Z" fill="url(#paint0_linear_25_404)"/>
<path d="M124.827 122.391C124.476 121.844 124.085 121.297 123.656 120.79C122.679 119.618 121.547 118.602 120.297 117.743C118.736 116.688 116.9 116.024 115.026 115.946C113.698 115.868 112.371 116.102 111.121 116.571C109.872 117 108.661 117.625 107.49 118.25C106.123 118.954 104.757 119.657 103.312 120.243C101.594 120.946 99.7977 121.493 97.9625 121.883C95.6587 122.313 93.3158 122.469 91.0121 122.43C86.834 122.352 82.656 121.727 78.6732 120.555C75.1589 119.5 71.8008 118.055 68.638 116.219C65.8657 114.618 63.2886 112.782 60.8676 110.711C58.8762 108.993 57.041 107.157 55.3229 105.204C54.1515 103.836 53.0191 102.391 51.9649 100.907C51.5353 100.321 51.1449 99.6958 50.7934 99.0708L40.485 87.938V62.7427C40.485 50.5161 50.3639 40.5942 62.5857 40.5942H82.3045L96.9082 55.438C129.864 77.8599 119.204 102.586 119.204 102.586C119.204 102.586 128.575 113.133 124.827 122.391V122.391Z" fill="url(#paint1_linear_25_404)"/>
<path d="M96.9862 55.438C129.942 77.8599 119.282 102.586 119.282 102.586C119.282 102.586 128.653 113.172 124.866 122.43C124.866 122.43 121 115.946 114.518 115.946C108.271 115.946 104.6 122.43 92.0272 122.43C64.0304 122.43 50.7935 99.0317 50.7935 99.0317C76.0179 115.633 93.2377 103.875 93.2377 103.875C81.875 97.2739 57.7048 65.7114 57.7048 65.7114C78.7512 83.6411 87.8492 88.3677 87.8492 88.3677C82.4216 83.8755 67.1933 61.9224 67.1933 61.9224C79.376 74.2661 103.585 91.4927 103.585 91.4927C110.457 72.4302 96.9862 55.438 96.9862 55.438Z" fill="white"/>
<defs>
<linearGradient id="paint0_linear_25_404" x1="99.9505" y1="37.0259" x2="81.0502" y2="144.172" gradientUnits="userSpaceOnUse">
<stop stop-color="#FAAE42"/>
<stop offset="1" stop-color="#EF3E31"/>
</linearGradient>
<linearGradient id="paint1_linear_25_404" x1="91.4853" y1="42.2099" x2="77.6525" y2="120.629" gradientUnits="userSpaceOnUse">
<stop stop-color="#E39F3A"/>
<stop offset="1" stop-color="#D33929"/>
</linearGradient>
</defs>
</svg>
