<svg width="181" height="181" viewBox="0 0 181 181" fill="none" xmlns="http://www.w3.org/2000/svg">
<path d="M0.723999 48.8909C0.723999 26.2635 0.723999 14.9497 7.75344 7.92031C14.7829 0.890869 26.0966 0.890869 48.724 0.890869H132.724C155.351 0.890869 166.665 0.890869 173.695 7.92031C180.724 14.9497 180.724 26.2635 180.724 48.8909V132.891C180.724 155.518 180.724 166.832 173.695 173.861C166.665 180.891 155.351 180.891 132.724 180.891H48.724C26.0966 180.891 14.7829 180.891 7.75344 173.861C0.723999 166.832 0.723999 155.518 0.723999 132.891V48.8909Z" fill="white"/>
<path d="M40.3806 40.4851H140.381V140.485H40.3806V40.4851Z" fill="#017ACB"/>
<path d="M88.3963 77.5164H93.1932V85.7976H80.2244V122.641L79.8807 122.735C79.4119 122.86 73.24 122.86 71.9119 122.719L70.8494 122.626V85.7976H57.8806V77.5164L61.99 77.4695C64.24 77.4382 70.0213 77.4382 74.8338 77.4695C79.6463 77.5007 85.74 77.5164 88.3963 77.5164V77.5164ZM125.006 118.735C123.099 120.751 121.053 121.876 117.646 122.798C116.162 123.204 115.912 123.219 112.568 123.204C109.224 123.188 108.959 123.188 107.334 122.766C103.131 121.688 99.7401 119.579 97.4276 116.594C96.7713 115.751 95.6932 114.001 95.6932 113.782C95.6932 113.719 95.8494 113.579 96.0526 113.485C96.2557 113.391 96.6776 113.126 97.0213 112.923C97.3651 112.719 97.9901 112.344 98.4119 112.126C98.8338 111.907 100.053 111.188 101.115 110.548C102.178 109.907 103.146 109.391 103.256 109.391C103.365 109.391 103.568 109.61 103.724 109.876C104.662 111.454 106.849 113.469 108.396 114.157C109.349 114.563 111.459 115.016 112.474 115.016C113.412 115.016 115.131 114.61 116.053 114.188C117.037 113.735 117.537 113.282 118.131 112.376C118.537 111.735 118.584 111.563 118.568 110.344C118.568 109.219 118.506 108.907 118.193 108.391C117.318 106.954 116.131 106.204 111.318 104.079C106.349 101.876 104.115 100.563 102.303 98.7976C100.959 97.4851 100.693 97.1257 99.8494 95.4851C98.7557 93.3757 98.6151 92.6882 98.5994 89.5476C98.5838 87.3445 98.6307 86.6257 98.8651 85.8757C99.1932 84.7507 100.256 82.5789 100.74 82.032C101.74 80.8601 102.099 80.5007 102.803 79.9226C104.928 78.1726 108.24 77.0164 111.412 76.907C111.771 76.907 112.959 76.9695 114.068 77.0476C117.256 77.3132 119.428 78.0945 121.521 79.7664C123.099 81.0164 125.49 83.9539 125.256 84.3445C125.099 84.5789 118.865 88.7351 118.459 88.8601C118.209 88.9382 118.037 88.8445 117.693 88.4382C115.568 85.8914 114.709 85.3445 112.646 85.2195C111.178 85.1257 110.396 85.2976 109.412 85.9539C108.381 86.6414 107.881 87.6882 107.881 89.1414C107.896 91.2664 108.709 92.2664 111.709 93.7507C113.646 94.7039 115.303 95.4851 115.428 95.4851C115.615 95.4851 119.631 97.4851 120.678 98.1101C125.553 100.969 127.537 103.907 128.053 108.969C128.428 112.782 127.349 116.266 125.006 118.735V118.735Z" fill="white"/>
</svg>
