<svg viewBox="0 0 205 75" fill="none" xmlns="http://www.w3.org/2000/svg">
<path d="M0.5 73.9865V0H22.0744C27.4776 0 32.1197 0.912162 36.0008 2.73649C39.958 4.56081 43.002 7.12837 45.1329 10.4392C47.3398 13.75 48.4432 17.6689 48.4432 22.1959V51.6892C48.4432 56.2162 47.3398 60.1689 45.1329 63.5473C43.002 66.8581 39.958 69.4257 36.0008 71.25C32.1197 73.0743 27.4776 73.9865 22.0744 73.9865H0.5ZM10.7735 65.8784H22.0744C27.0971 65.8784 31.0162 64.6284 33.8319 62.1284C36.7238 59.6284 38.1697 56.1486 38.1697 51.6892V22.1959C38.1697 17.8041 36.7238 14.3581 33.8319 11.8581C31.0162 9.35811 27.0971 8.10811 22.0744 8.10811H10.7735V65.8784Z" fill="#FFFFFF"/>
<path d="M86.9815 75C79.2193 75 73.2834 73.1081 69.174 69.3243C65.0646 65.473 63.0099 60.2703 63.0099 53.7162V0H73.2834V53.7162C73.2834 57.7703 74.3869 60.9797 76.5938 63.3446C78.8768 65.7095 82.3394 66.8919 86.9815 66.8919C91.5475 66.8919 94.972 65.7095 97.255 63.3446C99.5381 60.9797 100.68 57.7703 100.68 53.7162V0H110.953V53.7162C110.953 60.3378 108.898 65.5405 104.789 69.3243C100.756 73.1081 94.8198 75 86.9815 75Z" fill="#FFFFFF"/>
<path d="M125.976 73.9865V0H152.802C157.977 0 162.466 0.912162 166.272 2.73649C170.077 4.49324 173.006 6.99324 175.061 10.2365C177.192 13.4797 178.257 17.3311 178.257 21.7905C178.257 26.1824 177.192 30.0338 175.061 33.3446C173.006 36.5878 170.077 39.1216 166.272 40.9459C162.466 42.7027 157.977 43.5811 152.802 43.5811H136.25V73.9865H125.976ZM136.25 35.3716H152.802C157.292 35.3716 160.868 34.1554 163.532 31.723C166.272 29.223 167.641 25.9122 167.641 21.7905C167.641 17.6013 166.272 14.2905 163.532 11.8581C160.868 9.42567 157.292 8.20946 152.802 8.20946H136.25V35.3716Z" fill="#FFFFFF"/>
<path d="M141.617 73.9865V70.959H147.813V50.0618H141.617V47.0343H157.834V50.0618H151.638V70.959H157.834V73.9865H141.617Z" fill="#FFFFFF"/>
<path d="M163.931 73.9865V53.68H167.673V57.5567H168.463L167.673 58.332C167.673 56.7321 168.214 55.5014 169.295 54.64C170.376 53.7539 171.873 53.3108 173.786 53.3108C176.087 53.3108 177.917 53.9385 179.275 55.1938C180.634 56.4491 181.313 58.1597 181.313 60.3258V73.9865H177.57V60.695C177.57 59.2428 177.127 58.1351 176.24 57.3721C175.38 56.5845 174.202 56.1906 172.705 56.1906C171.153 56.1906 169.919 56.6091 169.004 57.4459C168.117 58.2828 167.673 59.4889 167.673 61.0642V73.9865H163.931Z" fill="#FFFFFF"/>
<path d="M195.601 74.3557C193.771 74.3557 192.164 74.048 190.777 73.4327C189.419 72.8173 188.366 71.9312 187.617 70.7744C186.869 69.5929 186.494 68.2022 186.494 66.6023V61.0642C186.494 59.4397 186.869 58.049 187.617 56.8921C188.366 55.7353 189.419 54.8492 190.777 54.2338C192.164 53.6185 193.771 53.3108 195.601 53.3108C198.235 53.3108 200.356 53.9385 201.963 55.1938C203.571 56.4491 204.417 58.1597 204.5 60.3258H200.758C200.674 59.0212 200.175 58.0244 199.261 57.3352C198.373 56.6214 197.154 56.2645 195.601 56.2645C193.966 56.2645 192.663 56.6829 191.692 57.5198C190.722 58.332 190.237 59.5012 190.237 61.0273V66.6023C190.237 68.1284 190.722 69.3098 191.692 70.1467C192.663 70.9836 193.966 71.402 195.601 71.402C197.154 71.402 198.373 71.0451 199.261 70.3313C200.175 69.6175 200.674 68.6207 200.758 67.3407H204.5C204.417 69.5068 203.571 71.2174 201.963 72.4727C200.356 73.728 198.235 74.3557 195.601 74.3557Z" fill="#FFFFFF"/>
</svg>
